<ttFont>
<head>
    <!-- Most of this table will be recalculated by the compiler -->
    <tableVersion value="1.0"/>
    <fontRevision value="0.0"/>
    <checkSumAdjustment value="0x5015565c"/>
    <magicNumber value="0x5f0f3cf5"/>
    <flags value="00000000 00001011"/>
    <unitsPerEm value="512"/>
    <created value="Wed May 28 19:19:14 2014"/>
    <modified value="Wed May 28 19:19:14 2014"/>
    <xMin value="0"/>
    <yMin value="-33"/>
    <xMax value="1024"/>
    <yMax value="479"/>
    <macStyle value="00000000 00000000"/>
    <lowestRecPPEM value="8"/>
    <fontDirectionHint value="2"/>
    <indexToLocFormat value="0"/>
    <glyphDataFormat value="0"/>
  </head>
    <TTGlyph name="a" xMin="0" yMin="-33" xMax="628" yMax="479">
      <contour>
        <pt x="611" y="297" on="1"/>
        <pt x="594" y="297" on="1"/>
        <pt x="595" y="347" on="1"/>
        <pt x="561" y="347" on="1"/>
        <pt x="562" y="380" on="1"/>
        <pt x="528" y="380" on="1"/>
        <pt x="529" y="413" on="1"/>
        <pt x="494" y="413" on="1"/>
        <pt x="495" y="429" on="1"/>
        <pt x="461" y="429" on="1"/>
        <pt x="462" y="446" on="1"/>
        <pt x="428" y="446" on="1"/>
        <pt x="429" y="462" on="1"/>
        <pt x="362" y="462" on="1"/>
        <pt x="363" y="479" on="1"/>
        <pt x="263" y="479" on="1"/>
        <pt x="264" y="462" on="1"/>
        <pt x="197" y="462" on="1"/>
        <pt x="198" y="446" on="1"/>
        <pt x="164" y="446" on="1"/>
        <pt x="165" y="429" on="1"/>
        <pt x="131" y="429" on="1"/>
        <pt x="132" y="413" on="1"/>
        <pt x="98" y="413" on="1"/>
        <pt x="99" y="380" on="1"/>
        <pt x="65" y="380" on="1"/>
        <pt x="66" y="347" on="1"/>
        <pt x="32" y="347" on="1"/>
        <pt x="33" y="281" on="1"/>
        <pt x="-1" y="281" on="1"/>
        <pt x="0" y="-33" on="1"/>
        <pt x="230" y="-33" on="1"/>
        <pt x="231" y="33" on="1"/>
        <pt x="395" y="33" on="1"/>
        <pt x="396" y="-33" on="1"/>
        <pt x="627" y="-33" on="1"/>
        <pt x="628" y="297" on="1"/>
        <pt x="610" y="297" on="1"/>
      </contour>
      <contour>
        <pt x="396" y="363" on="1"/>
        <pt x="395" y="116" on="1"/>
        <pt x="231" y="116" on="1"/>
        <pt x="230" y="380" on="1"/>
        <pt x="264" y="380" on="1"/>
        <pt x="263" y="413" on="1"/>
        <pt x="297" y="413" on="1"/>
        <pt x="296" y="429" on="1"/>
        <pt x="330" y="429" on="1"/>
        <pt x="329" y="413" on="1"/>
        <pt x="363" y="413" on="1"/>
        <pt x="362" y="380" on="1"/>
        <pt x="396" y="380" on="1"/>
        <pt x="395" y="363" on="1"/>
      </contour>
    </TTGlyph>
    <TTGlyph name="b" xMin="0" yMin="-33" xMax="628" yMax="479">
      <contour>
        <pt x="628" y="165" on="1"/>
        <pt x="628" y="182" on="0"/>
        <pt x="628" y="215" on="0"/>
        <pt x="628" y="248" on="0"/>
        <pt x="628" y="281" on="0"/>
        <pt x="628" y="297" on="1"/>
        <pt x="595" y="297" on="1"/>
        <pt x="595" y="303" on="0"/>
        <pt x="595" y="316" on="0"/>
        <pt x="595" y="328" on="0"/>
        <pt x="595" y="341" on="0"/>
        <pt x="595" y="347" on="1"/>
        <pt x="590" y="347" on="0"/>
        <pt x="582" y="347" on="0"/>
        <pt x="574" y="347" on="0"/>
        <pt x="566" y="347" on="0"/>
        <pt x="562" y="347" on="1"/>
        <pt x="562" y="351" on="0"/>
        <pt x="562" y="359" on="0"/>
        <pt x="562" y="367" on="0"/>
        <pt x="562" y="376" on="0"/>
        <pt x="562" y="380" on="1"/>
        <pt x="557" y="380" on="0"/>
        <pt x="549" y="380" on="0"/>
        <pt x="541" y="380" on="0"/>
        <pt x="533" y="380" on="0"/>
        <pt x="529" y="380" on="1"/>
        <pt x="529" y="384" on="0"/>
        <pt x="529" y="392" on="0"/>
        <pt x="529" y="401" on="0"/>
        <pt x="529" y="409" on="0"/>
        <pt x="529" y="413" on="1"/>
        <pt x="524" y="413" on="0"/>
        <pt x="516" y="413" on="0"/>
        <pt x="508" y="413" on="0"/>
        <pt x="500" y="413" on="0"/>
        <pt x="495" y="413" on="1"/>
        <pt x="495" y="429" on="1"/>
        <pt x="491" y="429" on="0"/>
        <pt x="483" y="429" on="0"/>
        <pt x="475" y="429" on="0"/>
        <pt x="467" y="429" on="0"/>
        <pt x="462" y="429" on="1"/>
        <pt x="462" y="446" on="1"/>
        <pt x="458" y="446" on="0"/>
        <pt x="450" y="446" on="0"/>
        <pt x="442" y="446" on="0"/>
        <pt x="434" y="446" on="0"/>
        <pt x="429" y="446" on="1"/>
        <pt x="429" y="462" on="1"/>
        <pt x="421" y="462" on="0"/>
        <pt x="405" y="462" on="0"/>
        <pt x="388" y="462" on="0"/>
        <pt x="372" y="462" on="0"/>
        <pt x="363" y="462" on="1"/>
        <pt x="363" y="479" on="1"/>
        <pt x="318" y="479" on="0"/>
        <pt x="227" y="479" on="0"/>
        <pt x="136" y="479" on="0"/>
        <pt x="45" y="479" on="0"/>
        <pt x="0" y="479" on="1"/>
        <pt x="0" y="415" on="0"/>
        <pt x="0" y="287" on="0"/>
        <pt x="0" y="159" on="0"/>
        <pt x="0" y="31" on="0"/>
        <pt x="0" y="-33" on="1"/>
        <pt x="78" y="-33" on="0"/>
        <pt x="235" y="-33" on="0"/>
        <pt x="392" y="-33" on="0"/>
        <pt x="549" y="-33" on="0"/>
        <pt x="628" y="-33" on="1"/>
        <pt x="628" y="-14" on="0"/>
        <pt x="628" y="23" on="0"/>
        <pt x="628" y="60" on="0"/>
        <pt x="628" y="97" on="0"/>
        <pt x="628" y="116" on="1"/>
        <pt x="623" y="116" on="0"/>
        <pt x="615" y="116" on="0"/>
        <pt x="607" y="116" on="0"/>
        <pt x="599" y="116" on="0"/>
        <pt x="595" y="116" on="1"/>
        <pt x="595" y="120" on="0"/>
        <pt x="595" y="128" on="0"/>
        <pt x="595" y="136" on="0"/>
        <pt x="595" y="145" on="0"/>
        <pt x="595" y="149" on="1"/>
        <pt x="590" y="149" on="0"/>
        <pt x="582" y="149" on="0"/>
        <pt x="574" y="149" on="0"/>
        <pt x="566" y="149" on="0"/>
        <pt x="562" y="149" on="1"/>
        <pt x="562" y="165" on="1"/>
        <pt x="570" y="165" on="0"/>
        <pt x="586" y="165" on="0"/>
        <pt x="603" y="165" on="0"/>
        <pt x="619" y="165" on="0"/>
        <pt x="628" y="165" on="1"/>
      </contour>
      <contour>
        <pt x="396" y="50" on="1"/>
        <pt x="231" y="50" on="1"/>
        <pt x="231" y="165" on="1"/>
        <pt x="330" y="165" on="1"/>
        <pt x="330" y="149" on="1"/>
        <pt x="363" y="149" on="1"/>
        <pt x="363" y="116" on="1"/>
        <pt x="396" y="116" on="1"/>
        <pt x="396" y="50" on="1"/>
      </contour>
      <contour>
        <pt x="396" y="215" on="1"/>
        <pt x="231" y="215" on="1"/>
        <pt x="231" y="429" on="1"/>
        <pt x="330" y="429" on="1"/>
        <pt x="330" y="413" on="1"/>
        <pt x="363" y="413" on="1"/>
        <pt x="363" y="380" on="1"/>
        <pt x="396" y="380" on="1"/>
        <pt x="396" y="215" on="1"/>
      </contour>
    </TTGlyph>
    <TTGlyph name="c" xMin="0" yMin="-33" xMax="628" yMax="479">
      <contour>
        <pt x="611" y="50" on="1"/>
        <pt x="564" y="50" on="0"/>
        <pt x="469" y="50" on="0"/>
        <pt x="374" y="50" on="0"/>
        <pt x="279" y="50" on="0"/>
        <pt x="231" y="50" on="1"/>
        <pt x="231" y="91" on="0"/>
        <pt x="231" y="173" on="0"/>
        <pt x="231" y="256" on="0"/>
        <pt x="231" y="339" on="0"/>
        <pt x="231" y="380" on="1"/>
        <pt x="235" y="380" on="0"/>
        <pt x="244" y="380" on="0"/>
        <pt x="252" y="380" on="0"/>
        <pt x="260" y="380" on="0"/>
        <pt x="264" y="380" on="1"/>
        <pt x="264" y="384" on="0"/>
        <pt x="264" y="392" on="0"/>
        <pt x="264" y="401" on="0"/>
        <pt x="264" y="409" on="0"/>
        <pt x="264" y="413" on="1"/>
        <pt x="268" y="413" on="0"/>
        <pt x="277" y="413" on="0"/>
        <pt x="285" y="413" on="0"/>
        <pt x="293" y="413" on="0"/>
        <pt x="297" y="413" on="1"/>
        <pt x="297" y="429" on="1"/>
        <pt x="318" y="429" on="0"/>
        <pt x="359" y="429" on="0"/>
        <pt x="401" y="429" on="0"/>
        <pt x="442" y="429" on="0"/>
        <pt x="462" y="429" on="1"/>
        <pt x="462" y="436" on="0"/>
        <pt x="462" y="448" on="0"/>
        <pt x="462" y="460" on="0"/>
        <pt x="462" y="473" on="0"/>
        <pt x="462" y="479" on="1"/>
        <pt x="438" y="479" on="0"/>
        <pt x="388" y="479" on="0"/>
        <pt x="339" y="479" on="0"/>
        <pt x="289" y="479" on="0"/>
        <pt x="264" y="479" on="1"/>
        <pt x="264" y="462" on="1"/>
        <pt x="256" y="462" on="0"/>
        <pt x="239" y="462" on="0"/>
        <pt x="223" y="462" on="0"/>
        <pt x="206" y="462" on="0"/>
        <pt x="198" y="462" on="1"/>
        <pt x="198" y="446" on="1"/>
        <pt x="194" y="446" on="0"/>
        <pt x="186" y="446" on="0"/>
        <pt x="178" y="446" on="0"/>
        <pt x="169" y="446" on="0"/>
        <pt x="165" y="446" on="1"/>
        <pt x="165" y="429" on="1"/>
        <pt x="161" y="429" on="0"/>
        <pt x="153" y="429" on="0"/>
        <pt x="145" y="429" on="0"/>
        <pt x="136" y="429" on="0"/>
        <pt x="132" y="429" on="1"/>
        <pt x="132" y="413" on="1"/>
        <pt x="128" y="413" on="0"/>
        <pt x="120" y="413" on="0"/>
        <pt x="111" y="413" on="0"/>
        <pt x="103" y="413" on="0"/>
        <pt x="99" y="413" on="1"/>
        <pt x="99" y="409" on="0"/>
        <pt x="99" y="401" on="0"/>
        <pt x="99" y="392" on="0"/>
        <pt x="99" y="384" on="0"/>
        <pt x="99" y="380" on="1"/>
        <pt x="95" y="380" on="0"/>
        <pt x="87" y="380" on="0"/>
        <pt x="78" y="380" on="0"/>
        <pt x="70" y="380" on="0"/>
        <pt x="66" y="380" on="1"/>
        <pt x="66" y="376" on="0"/>
        <pt x="66" y="367" on="0"/>
        <pt x="66" y="359" on="0"/>
        <pt x="66" y="351" on="0"/>
        <pt x="66" y="347" on="1"/>
        <pt x="62" y="347" on="0"/>
        <pt x="54" y="347" on="0"/>
        <pt x="45" y="347" on="0"/>
        <pt x="37" y="347" on="0"/>
        <pt x="33" y="347" on="1"/>
        <pt x="33" y="339" on="0"/>
        <pt x="33" y="322" on="0"/>
        <pt x="33" y="306" on="0"/>
        <pt x="33" y="289" on="0"/>
        <pt x="33" y="281" on="1"/>
        <pt x="29" y="281" on="0"/>
        <pt x="21" y="281" on="0"/>
        <pt x="12" y="281" on="0"/>
        <pt x="4" y="281" on="0"/>
        <pt x="0" y="281" on="1"/>
        <pt x="0" y="242" on="0"/>
        <pt x="0" y="163" on="0"/>
        <pt x="0" y="85" on="0"/>
        <pt x="0" y="6" on="0"/>
        <pt x="0" y="-33" on="1"/>
        <pt x="78" y="-33" on="0"/>
        <pt x="235" y="-33" on="0"/>
        <pt x="392" y="-33" on="0"/>
        <pt x="549" y="-33" on="0"/>
        <pt x="628" y="-33" on="1"/>
        <pt x="628" y="-23" on="0"/>
        <pt x="628" y="-2" on="0"/>
        <pt x="628" y="19" on="0"/>
        <pt x="628" y="39" on="0"/>
        <pt x="628" y="50" on="1"/>
        <pt x="611" y="50" on="1"/>
      </contour>
    </TTGlyph>
    <TTGlyph name="comma" xMin="0" yMin="-33" xMax="231" yMax="66">
      <contour>
        <pt x="215" y="66" on="1"/>
        <pt x="201" y="66" on="0"/>
        <pt x="171" y="66" on="0"/>
        <pt x="143" y="66" on="0"/>
        <pt x="114" y="66" on="0"/>
        <pt x="100" y="66" on="1"/>
        <pt x="99" y="50" on="1"/>
        <pt x="96" y="50" on="0"/>
        <pt x="87" y="50" on="0"/>
        <pt x="79" y="50" on="0"/>
        <pt x="70" y="50" on="0"/>
        <pt x="67" y="50" on="1"/>
        <pt x="66" y="45" on="0"/>
        <pt x="67" y="37" on="0"/>
        <pt x="66" y="29" on="0"/>
        <pt x="67" y="21" on="0"/>
        <pt x="66" y="17" on="1"/>
        <pt x="63" y="17" on="0"/>
        <pt x="54" y="17" on="0"/>
        <pt x="46" y="17" on="0"/>
        <pt x="37" y="17" on="0"/>
        <pt x="34" y="17" on="1"/>
        <pt x="33" y="12" on="0"/>
        <pt x="34" y="4" on="0"/>
        <pt x="33" y="-4" on="0"/>
        <pt x="34" y="-12" on="0"/>
        <pt x="33" y="-17" on="1"/>
        <pt x="30" y="-17" on="0"/>
        <pt x="21" y="-17" on="0"/>
        <pt x="13" y="-17" on="0"/>
        <pt x="4" y="-17" on="0"/>
        <pt x="1" y="-17" on="1"/>
        <pt x="0" y="-33" on="1"/>
        <pt x="22" y="-33" on="0"/>
        <pt x="62" y="-33" on="0"/>
        <pt x="104" y="-33" on="0"/>
        <pt x="145" y="-33" on="0"/>
        <pt x="166" y="-33" on="1"/>
        <pt x="165" y="-17" on="1"/>
        <pt x="170" y="-17" on="0"/>
        <pt x="178" y="-17" on="0"/>
        <pt x="187" y="-17" on="0"/>
        <pt x="194" y="-17" on="0"/>
        <pt x="199" y="-17" on="1"/>
        <pt x="198" y="-12" on="0"/>
        <pt x="199" y="-4" on="0"/>
        <pt x="198" y="4" on="0"/>
        <pt x="199" y="12" on="0"/>
        <pt x="198" y="17" on="1"/>
        <pt x="203" y="17" on="0"/>
        <pt x="211" y="17" on="0"/>
        <pt x="220" y="17" on="0"/>
        <pt x="227" y="17" on="0"/>
        <pt x="232" y="17" on="1"/>
        <pt x="231" y="23" on="0"/>
        <pt x="232" y="35" on="0"/>
        <pt x="231" y="47" on="0"/>
        <pt x="232" y="60" on="0"/>
        <pt x="231" y="66" on="1"/>
        <pt x="216" y="66" on="1"/>
      </contour>
    </TTGlyph>
    <TTGlyph name="d" xMin="0" yMin="-33" xMax="628" yMax="479">
      <contour>
        <pt x="611" y="297" on="1"/>
        <pt x="594" y="297" on="1"/>
        <pt x="595" y="303" on="0"/>
        <pt x="594" y="316" on="0"/>
        <pt x="595" y="328" on="0"/>
        <pt x="594" y="341" on="0"/>
        <pt x="595" y="347" on="1"/>
        <pt x="589" y="347" on="0"/>
        <pt x="582" y="347" on="0"/>
        <pt x="573" y="347" on="0"/>
        <pt x="566" y="347" on="0"/>
        <pt x="561" y="347" on="1"/>
        <pt x="562" y="351" on="0"/>
        <pt x="561" y="359" on="0"/>
        <pt x="562" y="367" on="0"/>
        <pt x="561" y="376" on="0"/>
        <pt x="562" y="380" on="1"/>
        <pt x="556" y="380" on="0"/>
        <pt x="549" y="380" on="0"/>
        <pt x="540" y="380" on="0"/>
        <pt x="533" y="380" on="0"/>
        <pt x="528" y="380" on="1"/>
        <pt x="529" y="384" on="0"/>
        <pt x="528" y="392" on="0"/>
        <pt x="529" y="401" on="0"/>
        <pt x="528" y="409" on="0"/>
        <pt x="529" y="413" on="1"/>
        <pt x="523" y="413" on="0"/>
        <pt x="516" y="413" on="0"/>
        <pt x="507" y="413" on="0"/>
        <pt x="500" y="413" on="0"/>
        <pt x="494" y="413" on="1"/>
        <pt x="495" y="429" on="1"/>
        <pt x="490" y="429" on="0"/>
        <pt x="483" y="429" on="0"/>
        <pt x="474" y="429" on="0"/>
        <pt x="467" y="429" on="0"/>
        <pt x="461" y="429" on="1"/>
        <pt x="462" y="446" on="1"/>
        <pt x="457" y="446" on="0"/>
        <pt x="450" y="446" on="0"/>
        <pt x="441" y="446" on="0"/>
        <pt x="434" y="446" on="0"/>
        <pt x="428" y="446" on="1"/>
        <pt x="429" y="462" on="1"/>
        <pt x="420" y="462" on="0"/>
        <pt x="405" y="462" on="0"/>
        <pt x="387" y="462" on="0"/>
        <pt x="372" y="462" on="0"/>
        <pt x="362" y="462" on="1"/>
        <pt x="363" y="479" on="1"/>
        <pt x="317" y="479" on="0"/>
        <pt x="227" y="479" on="0"/>
        <pt x="135" y="479" on="0"/>
        <pt x="45" y="479" on="0"/>
        <pt x="-1" y="479" on="1"/>
        <pt x="0" y="415" on="0"/>
        <pt x="-1" y="287" on="0"/>
        <pt x="0" y="159" on="0"/>
        <pt x="-1" y="31" on="0"/>
        <pt x="0" y="-33" on="1"/>
        <pt x="77" y="-33" on="0"/>
        <pt x="235" y="-33" on="0"/>
        <pt x="391" y="-33" on="0"/>
        <pt x="549" y="-33" on="0"/>
        <pt x="627" y="-33" on="1"/>
        <pt x="628" y="8" on="0"/>
        <pt x="627" y="91" on="0"/>
        <pt x="628" y="173" on="0"/>
        <pt x="627" y="256" on="0"/>
        <pt x="628" y="297" on="1"/>
        <pt x="610" y="297" on="1"/>
      </contour>
      <contour>
        <pt x="396" y="50" on="1"/>
        <pt x="230" y="50" on="1"/>
        <pt x="231" y="429" on="1"/>
        <pt x="329" y="429" on="1"/>
        <pt x="330" y="413" on="1"/>
        <pt x="362" y="413" on="1"/>
        <pt x="363" y="380" on="1"/>
        <pt x="395" y="380" on="1"/>
        <pt x="396" y="50" on="1"/>
      </contour>
    </TTGlyph>
    <TTGlyph name="e" xMin="0" yMin="-33" xMax="628" yMax="479">
      <contour>
        <pt x="611" y="50" on="1"/>
        <pt x="564" y="50" on="0"/>
        <pt x="469" y="50" on="0"/>
        <pt x="374" y="50" on="0"/>
        <pt x="279" y="50" on="0"/>
        <pt x="231" y="50" on="1"/>
        <pt x="231" y="54" on="0"/>
        <pt x="231" y="62" on="0"/>
        <pt x="231" y="70" on="0"/>
        <pt x="231" y="78" on="0"/>
        <pt x="231" y="83" on="1"/>
        <pt x="248" y="83" on="0"/>
        <pt x="281" y="83" on="0"/>
        <pt x="314" y="83" on="0"/>
        <pt x="347" y="83" on="0"/>
        <pt x="363" y="83" on="1"/>
        <pt x="363" y="91" on="0"/>
        <pt x="363" y="107" on="0"/>
        <pt x="363" y="124" on="0"/>
        <pt x="363" y="140" on="0"/>
        <pt x="363" y="149" on="1"/>
        <pt x="347" y="149" on="0"/>
        <pt x="314" y="149" on="0"/>
        <pt x="281" y="149" on="0"/>
        <pt x="248" y="149" on="0"/>
        <pt x="231" y="149" on="1"/>
        <pt x="231" y="178" on="0"/>
        <pt x="231" y="235" on="0"/>
        <pt x="231" y="293" on="0"/>
        <pt x="231" y="351" on="0"/>
        <pt x="231" y="380" on="1"/>
        <pt x="235" y="380" on="0"/>
        <pt x="244" y="380" on="0"/>
        <pt x="252" y="380" on="0"/>
        <pt x="260" y="380" on="0"/>
        <pt x="264" y="380" on="1"/>
        <pt x="264" y="384" on="0"/>
        <pt x="264" y="392" on="0"/>
        <pt x="264" y="401" on="0"/>
        <pt x="264" y="409" on="0"/>
        <pt x="264" y="413" on="1"/>
        <pt x="268" y="413" on="0"/>
        <pt x="277" y="413" on="0"/>
        <pt x="285" y="413" on="0"/>
        <pt x="293" y="413" on="0"/>
        <pt x="297" y="413" on="1"/>
        <pt x="297" y="429" on="1"/>
        <pt x="318" y="429" on="0"/>
        <pt x="359" y="429" on="0"/>
        <pt x="401" y="429" on="0"/>
        <pt x="442" y="429" on="0"/>
        <pt x="462" y="429" on="1"/>
        <pt x="462" y="436" on="0"/>
        <pt x="462" y="448" on="0"/>
        <pt x="462" y="460" on="0"/>
        <pt x="462" y="473" on="0"/>
        <pt x="462" y="479" on="1"/>
        <pt x="438" y="479" on="0"/>
        <pt x="388" y="479" on="0"/>
        <pt x="339" y="479" on="0"/>
        <pt x="289" y="479" on="0"/>
        <pt x="264" y="479" on="1"/>
        <pt x="264" y="462" on="1"/>
        <pt x="256" y="462" on="0"/>
        <pt x="239" y="462" on="0"/>
        <pt x="223" y="462" on="0"/>
        <pt x="206" y="462" on="0"/>
        <pt x="198" y="462" on="1"/>
        <pt x="198" y="446" on="1"/>
        <pt x="194" y="446" on="0"/>
        <pt x="186" y="446" on="0"/>
        <pt x="178" y="446" on="0"/>
        <pt x="169" y="446" on="0"/>
        <pt x="165" y="446" on="1"/>
        <pt x="165" y="429" on="1"/>
        <pt x="161" y="429" on="0"/>
        <pt x="153" y="429" on="0"/>
        <pt x="145" y="429" on="0"/>
        <pt x="136" y="429" on="0"/>
        <pt x="132" y="429" on="1"/>
        <pt x="132" y="413" on="1"/>
        <pt x="128" y="413" on="0"/>
        <pt x="120" y="413" on="0"/>
        <pt x="111" y="413" on="0"/>
        <pt x="103" y="413" on="0"/>
        <pt x="99" y="413" on="1"/>
        <pt x="99" y="409" on="0"/>
        <pt x="99" y="401" on="0"/>
        <pt x="99" y="392" on="0"/>
        <pt x="99" y="384" on="0"/>
        <pt x="99" y="380" on="1"/>
        <pt x="95" y="380" on="0"/>
        <pt x="87" y="380" on="0"/>
        <pt x="78" y="380" on="0"/>
        <pt x="70" y="380" on="0"/>
        <pt x="66" y="380" on="1"/>
        <pt x="66" y="376" on="0"/>
        <pt x="66" y="367" on="0"/>
        <pt x="66" y="359" on="0"/>
        <pt x="66" y="351" on="0"/>
        <pt x="66" y="347" on="1"/>
        <pt x="62" y="347" on="0"/>
        <pt x="54" y="347" on="0"/>
        <pt x="45" y="347" on="0"/>
        <pt x="37" y="347" on="0"/>
        <pt x="33" y="347" on="1"/>
        <pt x="33" y="339" on="0"/>
        <pt x="33" y="322" on="0"/>
        <pt x="33" y="306" on="0"/>
        <pt x="33" y="289" on="0"/>
        <pt x="33" y="281" on="1"/>
        <pt x="29" y="281" on="0"/>
        <pt x="21" y="281" on="0"/>
        <pt x="12" y="281" on="0"/>
        <pt x="4" y="281" on="0"/>
        <pt x="0" y="281" on="1"/>
        <pt x="0" y="242" on="0"/>
        <pt x="0" y="163" on="0"/>
        <pt x="0" y="85" on="0"/>
        <pt x="0" y="6" on="0"/>
        <pt x="0" y="-33" on="1"/>
        <pt x="78" y="-33" on="0"/>
        <pt x="235" y="-33" on="0"/>
        <pt x="392" y="-33" on="0"/>
        <pt x="549" y="-33" on="0"/>
        <pt x="628" y="-33" on="1"/>
        <pt x="628" y="-23" on="0"/>
        <pt x="628" y="-2" on="0"/>
        <pt x="628" y="19" on="0"/>
        <pt x="628" y="39" on="0"/>
        <pt x="628" y="50" on="1"/>
        <pt x="611" y="50" on="1"/>
      </contour>
    </TTGlyph>
    <TTGlyph name="eight" xMin="0" yMin="-33" xMax="628" yMax="479">
      <contour>
        <pt x="628" y="165" on="1"/>
        <pt x="628" y="182" on="0"/>
        <pt x="628" y="215" on="0"/>
        <pt x="628" y="248" on="0"/>
        <pt x="628" y="281" on="0"/>
        <pt x="628" y="297" on="1"/>
        <pt x="595" y="297" on="1"/>
        <pt x="595" y="303" on="0"/>
        <pt x="595" y="316" on="0"/>
        <pt x="595" y="328" on="0"/>
        <pt x="595" y="341" on="0"/>
        <pt x="595" y="347" on="1"/>
        <pt x="590" y="347" on="0"/>
        <pt x="582" y="347" on="0"/>
        <pt x="574" y="347" on="0"/>
        <pt x="566" y="347" on="0"/>
        <pt x="562" y="347" on="1"/>
        <pt x="562" y="351" on="0"/>
        <pt x="562" y="359" on="0"/>
        <pt x="562" y="367" on="0"/>
        <pt x="562" y="376" on="0"/>
        <pt x="562" y="380" on="1"/>
        <pt x="557" y="380" on="0"/>
        <pt x="549" y="380" on="0"/>
        <pt x="541" y="380" on="0"/>
        <pt x="533" y="380" on="0"/>
        <pt x="529" y="380" on="1"/>
        <pt x="529" y="384" on="0"/>
        <pt x="529" y="392" on="0"/>
        <pt x="529" y="401" on="0"/>
        <pt x="529" y="409" on="0"/>
        <pt x="529" y="413" on="1"/>
        <pt x="524" y="413" on="0"/>
        <pt x="516" y="413" on="0"/>
        <pt x="508" y="413" on="0"/>
        <pt x="500" y="413" on="0"/>
        <pt x="495" y="413" on="1"/>
        <pt x="495" y="429" on="1"/>
        <pt x="491" y="429" on="0"/>
        <pt x="483" y="429" on="0"/>
        <pt x="475" y="429" on="0"/>
        <pt x="467" y="429" on="0"/>
        <pt x="462" y="429" on="1"/>
        <pt x="462" y="446" on="1"/>
        <pt x="458" y="446" on="0"/>
        <pt x="450" y="446" on="0"/>
        <pt x="442" y="446" on="0"/>
        <pt x="434" y="446" on="0"/>
        <pt x="429" y="446" on="1"/>
        <pt x="429" y="462" on="1"/>
        <pt x="421" y="462" on="0"/>
        <pt x="405" y="462" on="0"/>
        <pt x="388" y="462" on="0"/>
        <pt x="372" y="462" on="0"/>
        <pt x="363" y="462" on="1"/>
        <pt x="363" y="479" on="1"/>
        <pt x="351" y="479" on="0"/>
        <pt x="326" y="479" on="0"/>
        <pt x="301" y="479" on="0"/>
        <pt x="277" y="479" on="0"/>
        <pt x="264" y="479" on="1"/>
        <pt x="264" y="462" on="1"/>
        <pt x="256" y="462" on="0"/>
        <pt x="239" y="462" on="0"/>
        <pt x="223" y="462" on="0"/>
        <pt x="206" y="462" on="0"/>
        <pt x="198" y="462" on="1"/>
        <pt x="198" y="446" on="1"/>
        <pt x="194" y="446" on="0"/>
        <pt x="186" y="446" on="0"/>
        <pt x="178" y="446" on="0"/>
        <pt x="169" y="446" on="0"/>
        <pt x="165" y="446" on="1"/>
        <pt x="165" y="429" on="1"/>
        <pt x="161" y="429" on="0"/>
        <pt x="153" y="429" on="0"/>
        <pt x="145" y="429" on="0"/>
        <pt x="136" y="429" on="0"/>
        <pt x="132" y="429" on="1"/>
        <pt x="132" y="413" on="1"/>
        <pt x="128" y="413" on="0"/>
        <pt x="120" y="413" on="0"/>
        <pt x="111" y="413" on="0"/>
        <pt x="103" y="413" on="0"/>
        <pt x="99" y="413" on="1"/>
        <pt x="99" y="409" on="0"/>
        <pt x="99" y="401" on="0"/>
        <pt x="99" y="392" on="0"/>
        <pt x="99" y="384" on="0"/>
        <pt x="99" y="380" on="1"/>
        <pt x="95" y="380" on="0"/>
        <pt x="87" y="380" on="0"/>
        <pt x="78" y="380" on="0"/>
        <pt x="70" y="380" on="0"/>
        <pt x="66" y="380" on="1"/>
        <pt x="66" y="376" on="0"/>
        <pt x="66" y="367" on="0"/>
        <pt x="66" y="359" on="0"/>
        <pt x="66" y="351" on="0"/>
        <pt x="66" y="347" on="1"/>
        <pt x="62" y="347" on="0"/>
        <pt x="54" y="347" on="0"/>
        <pt x="45" y="347" on="0"/>
        <pt x="37" y="347" on="0"/>
        <pt x="33" y="347" on="1"/>
        <pt x="33" y="339" on="0"/>
        <pt x="33" y="322" on="0"/>
        <pt x="33" y="306" on="0"/>
        <pt x="33" y="289" on="0"/>
        <pt x="33" y="281" on="1"/>
        <pt x="29" y="281" on="0"/>
        <pt x="21" y="281" on="0"/>
        <pt x="12" y="281" on="0"/>
        <pt x="4" y="281" on="0"/>
        <pt x="0" y="281" on="1"/>
        <pt x="0" y="266" on="0"/>
        <pt x="0" y="237" on="0"/>
        <pt x="0" y="209" on="0"/>
        <pt x="0" y="180" on="0"/>
        <pt x="0" y="165" on="1"/>
        <pt x="8" y="165" on="0"/>
        <pt x="25" y="165" on="0"/>
        <pt x="41" y="165" on="0"/>
        <pt x="58" y="165" on="0"/>
        <pt x="66" y="165" on="1"/>
        <pt x="66" y="161" on="0"/>
        <pt x="66" y="153" on="0"/>
        <pt x="66" y="145" on="0"/>
        <pt x="66" y="136" on="0"/>
        <pt x="66" y="132" on="1"/>
        <pt x="62" y="132" on="0"/>
        <pt x="54" y="132" on="0"/>
        <pt x="45" y="132" on="0"/>
        <pt x="37" y="132" on="0"/>
        <pt x="33" y="132" on="1"/>
        <pt x="33" y="128" on="0"/>
        <pt x="33" y="120" on="0"/>
        <pt x="33" y="111" on="0"/>
        <pt x="33" y="103" on="0"/>
        <pt x="33" y="99" on="1"/>
        <pt x="29" y="99" on="0"/>
        <pt x="21" y="99" on="0"/>
        <pt x="12" y="99" on="0"/>
        <pt x="4" y="99" on="0"/>
        <pt x="0" y="99" on="1"/>
        <pt x="0" y="83" on="0"/>
        <pt x="0" y="50" on="0"/>
        <pt x="0" y="17" on="0"/>
        <pt x="0" y="-17" on="0"/>
        <pt x="0" y="-33" on="1"/>
        <pt x="78" y="-33" on="0"/>
        <pt x="235" y="-33" on="0"/>
        <pt x="392" y="-33" on="0"/>
        <pt x="549" y="-33" on="0"/>
        <pt x="628" y="-33" on="1"/>
        <pt x="628" y="-14" on="0"/>
        <pt x="628" y="23" on="0"/>
        <pt x="628" y="60" on="0"/>
        <pt x="628" y="97" on="0"/>
        <pt x="628" y="116" on="1"/>
        <pt x="623" y="116" on="0"/>
        <pt x="615" y="116" on="0"/>
        <pt x="607" y="116" on="0"/>
        <pt x="599" y="116" on="0"/>
        <pt x="595" y="116" on="1"/>
        <pt x="595" y="120" on="0"/>
        <pt x="595" y="128" on="0"/>
        <pt x="595" y="136" on="0"/>
        <pt x="595" y="145" on="0"/>
        <pt x="595" y="149" on="1"/>
        <pt x="590" y="149" on="0"/>
        <pt x="582" y="149" on="0"/>
        <pt x="574" y="149" on="0"/>
        <pt x="566" y="149" on="0"/>
        <pt x="562" y="149" on="1"/>
        <pt x="562" y="165" on="1"/>
        <pt x="570" y="165" on="0"/>
        <pt x="586" y="165" on="0"/>
        <pt x="603" y="165" on="0"/>
        <pt x="619" y="165" on="0"/>
        <pt x="628" y="165" on="1"/>
      </contour>
      <contour>
        <pt x="396" y="83" on="1"/>
        <pt x="396" y="50" on="1"/>
        <pt x="231" y="50" on="1"/>
        <pt x="231" y="116" on="1"/>
        <pt x="264" y="116" on="1"/>
        <pt x="264" y="149" on="1"/>
        <pt x="297" y="149" on="1"/>
        <pt x="297" y="165" on="1"/>
        <pt x="330" y="165" on="1"/>
        <pt x="330" y="149" on="1"/>
        <pt x="363" y="149" on="1"/>
        <pt x="363" y="116" on="1"/>
        <pt x="396" y="116" on="1"/>
        <pt x="396" y="83" on="1"/>
      </contour>
      <contour>
        <pt x="396" y="215" on="1"/>
        <pt x="231" y="215" on="1"/>
        <pt x="231" y="380" on="1"/>
        <pt x="264" y="380" on="1"/>
        <pt x="264" y="413" on="1"/>
        <pt x="297" y="413" on="1"/>
        <pt x="297" y="429" on="1"/>
        <pt x="330" y="429" on="1"/>
        <pt x="330" y="413" on="1"/>
        <pt x="363" y="413" on="1"/>
        <pt x="363" y="380" on="1"/>
        <pt x="396" y="380" on="1"/>
        <pt x="396" y="215" on="1"/>
      </contour>
    </TTGlyph>
    <TTGlyph name="exclam" xMin="0" yMin="-33" xMax="231" yMax="479">
      <contour>
        <pt x="215" y="479" on="1"/>
        <pt x="188" y="479" on="0"/>
        <pt x="134" y="479" on="0"/>
        <pt x="81" y="479" on="0"/>
        <pt x="27" y="479" on="0"/>
        <pt x="0" y="479" on="1"/>
        <pt x="0" y="429" on="0"/>
        <pt x="0" y="330" on="0"/>
        <pt x="0" y="231" on="0"/>
        <pt x="0" y="132" on="0"/>
        <pt x="0" y="83" on="1"/>
        <pt x="29" y="83" on="0"/>
        <pt x="87" y="83" on="0"/>
        <pt x="145" y="83" on="0"/>
        <pt x="202" y="83" on="0"/>
        <pt x="231" y="83" on="1"/>
        <pt x="231" y="132" on="0"/>
        <pt x="231" y="231" on="0"/>
        <pt x="231" y="330" on="0"/>
        <pt x="231" y="429" on="0"/>
        <pt x="231" y="479" on="1"/>
        <pt x="215" y="479" on="1"/>
      </contour>
      <contour>
        <pt x="198" y="66" on="1"/>
        <pt x="173" y="66" on="0"/>
        <pt x="124" y="66" on="0"/>
        <pt x="74" y="66" on="0"/>
        <pt x="25" y="66" on="0"/>
        <pt x="0" y="66" on="1"/>
        <pt x="0" y="54" on="0"/>
        <pt x="0" y="29" on="0"/>
        <pt x="0" y="4" on="0"/>
        <pt x="0" y="-21" on="0"/>
        <pt x="0" y="-33" on="1"/>
        <pt x="29" y="-33" on="0"/>
        <pt x="87" y="-33" on="0"/>
        <pt x="145" y="-33" on="0"/>
        <pt x="202" y="-33" on="0"/>
        <pt x="231" y="-33" on="1"/>
        <pt x="231" y="-21" on="0"/>
        <pt x="231" y="4" on="0"/>
        <pt x="231" y="29" on="0"/>
        <pt x="231" y="54" on="0"/>
        <pt x="231" y="66" on="1"/>
        <pt x="227" y="66" on="0"/>
        <pt x="219" y="66" on="0"/>
        <pt x="211" y="66" on="0"/>
        <pt x="202" y="66" on="0"/>
        <pt x="198" y="66" on="1"/>
        <pt x="198" y="66" on="1"/>
      </contour>
    </TTGlyph>
    <TTGlyph name="f" xMin="0" yMin="-33" xMax="462" yMax="479">
      <contour>
        <pt x="446" y="479" on="1"/>
        <pt x="423" y="479" on="0"/>
        <pt x="378" y="479" on="0"/>
        <pt x="332" y="479" on="0"/>
        <pt x="287" y="479" on="0"/>
        <pt x="264" y="479" on="1"/>
        <pt x="264" y="462" on="1"/>
        <pt x="256" y="462" on="0"/>
        <pt x="239" y="462" on="0"/>
        <pt x="223" y="462" on="0"/>
        <pt x="206" y="462" on="0"/>
        <pt x="198" y="462" on="1"/>
        <pt x="198" y="446" on="1"/>
        <pt x="194" y="446" on="0"/>
        <pt x="186" y="446" on="0"/>
        <pt x="178" y="446" on="0"/>
        <pt x="169" y="446" on="0"/>
        <pt x="165" y="446" on="1"/>
        <pt x="165" y="429" on="1"/>
        <pt x="161" y="429" on="0"/>
        <pt x="153" y="429" on="0"/>
        <pt x="145" y="429" on="0"/>
        <pt x="136" y="429" on="0"/>
        <pt x="132" y="429" on="1"/>
        <pt x="132" y="413" on="1"/>
        <pt x="128" y="413" on="0"/>
        <pt x="120" y="413" on="0"/>
        <pt x="111" y="413" on="0"/>
        <pt x="103" y="413" on="0"/>
        <pt x="99" y="413" on="1"/>
        <pt x="99" y="409" on="0"/>
        <pt x="99" y="401" on="0"/>
        <pt x="99" y="392" on="0"/>
        <pt x="99" y="384" on="0"/>
        <pt x="99" y="380" on="1"/>
        <pt x="95" y="380" on="0"/>
        <pt x="87" y="380" on="0"/>
        <pt x="78" y="380" on="0"/>
        <pt x="70" y="380" on="0"/>
        <pt x="66" y="380" on="1"/>
        <pt x="66" y="376" on="0"/>
        <pt x="66" y="367" on="0"/>
        <pt x="66" y="359" on="0"/>
        <pt x="66" y="351" on="0"/>
        <pt x="66" y="347" on="1"/>
        <pt x="62" y="347" on="0"/>
        <pt x="54" y="347" on="0"/>
        <pt x="45" y="347" on="0"/>
        <pt x="37" y="347" on="0"/>
        <pt x="33" y="347" on="1"/>
        <pt x="33" y="339" on="0"/>
        <pt x="33" y="322" on="0"/>
        <pt x="33" y="306" on="0"/>
        <pt x="33" y="289" on="0"/>
        <pt x="33" y="281" on="1"/>
        <pt x="29" y="281" on="0"/>
        <pt x="21" y="281" on="0"/>
        <pt x="12" y="281" on="0"/>
        <pt x="4" y="281" on="0"/>
        <pt x="0" y="281" on="1"/>
        <pt x="0" y="242" on="0"/>
        <pt x="0" y="163" on="0"/>
        <pt x="0" y="85" on="0"/>
        <pt x="0" y="6" on="0"/>
        <pt x="0" y="-33" on="1"/>
        <pt x="29" y="-33" on="0"/>
        <pt x="87" y="-33" on="0"/>
        <pt x="145" y="-33" on="0"/>
        <pt x="202" y="-33" on="0"/>
        <pt x="231" y="-33" on="1"/>
        <pt x="231" y="-25" on="0"/>
        <pt x="231" y="-8" on="0"/>
        <pt x="231" y="8" on="0"/>
        <pt x="231" y="25" on="0"/>
        <pt x="231" y="33" on="1"/>
        <pt x="248" y="33" on="0"/>
        <pt x="281" y="33" on="0"/>
        <pt x="314" y="33" on="0"/>
        <pt x="347" y="33" on="0"/>
        <pt x="363" y="33" on="1"/>
        <pt x="363" y="43" on="0"/>
        <pt x="363" y="64" on="0"/>
        <pt x="363" y="85" on="0"/>
        <pt x="363" y="105" on="0"/>
        <pt x="363" y="116" on="1"/>
        <pt x="347" y="116" on="0"/>
        <pt x="314" y="116" on="0"/>
        <pt x="281" y="116" on="0"/>
        <pt x="248" y="116" on="0"/>
        <pt x="231" y="116" on="1"/>
        <pt x="231" y="149" on="0"/>
        <pt x="231" y="215" on="0"/>
        <pt x="231" y="281" on="0"/>
        <pt x="231" y="347" on="0"/>
        <pt x="231" y="380" on="1"/>
        <pt x="235" y="380" on="0"/>
        <pt x="244" y="380" on="0"/>
        <pt x="252" y="380" on="0"/>
        <pt x="260" y="380" on="0"/>
        <pt x="264" y="380" on="1"/>
        <pt x="264" y="384" on="0"/>
        <pt x="264" y="392" on="0"/>
        <pt x="264" y="401" on="0"/>
        <pt x="264" y="409" on="0"/>
        <pt x="264" y="413" on="1"/>
        <pt x="268" y="413" on="0"/>
        <pt x="277" y="413" on="0"/>
        <pt x="285" y="413" on="0"/>
        <pt x="293" y="413" on="0"/>
        <pt x="297" y="413" on="1"/>
        <pt x="297" y="429" on="1"/>
        <pt x="318" y="429" on="0"/>
        <pt x="359" y="429" on="0"/>
        <pt x="401" y="429" on="0"/>
        <pt x="442" y="429" on="0"/>
        <pt x="462" y="429" on="1"/>
        <pt x="462" y="436" on="0"/>
        <pt x="462" y="448" on="0"/>
        <pt x="462" y="460" on="0"/>
        <pt x="462" y="473" on="0"/>
        <pt x="462" y="479" on="1"/>
        <pt x="446" y="479" on="1"/>
      </contour>
    </TTGlyph>
    <TTGlyph name="five" xMin="0" yMin="-33" xMax="628" yMax="479">
      <contour>
        <pt x="611" y="116" on="1"/>
        <pt x="594" y="116" on="1"/>
        <pt x="595" y="120" on="0"/>
        <pt x="594" y="128" on="0"/>
        <pt x="595" y="136" on="0"/>
        <pt x="594" y="145" on="0"/>
        <pt x="595" y="149" on="1"/>
        <pt x="589" y="149" on="0"/>
        <pt x="582" y="149" on="0"/>
        <pt x="573" y="149" on="0"/>
        <pt x="566" y="149" on="0"/>
        <pt x="561" y="149" on="1"/>
        <pt x="562" y="165" on="1"/>
        <pt x="556" y="165" on="0"/>
        <pt x="549" y="165" on="0"/>
        <pt x="540" y="165" on="0"/>
        <pt x="533" y="165" on="0"/>
        <pt x="528" y="165" on="1"/>
        <pt x="529" y="182" on="1"/>
        <pt x="523" y="182" on="0"/>
        <pt x="516" y="182" on="0"/>
        <pt x="507" y="182" on="0"/>
        <pt x="500" y="182" on="0"/>
        <pt x="494" y="182" on="1"/>
        <pt x="495" y="198" on="1"/>
        <pt x="486" y="198" on="0"/>
        <pt x="471" y="198" on="0"/>
        <pt x="453" y="198" on="0"/>
        <pt x="438" y="198" on="0"/>
        <pt x="428" y="198" on="1"/>
        <pt x="429" y="215" on="1"/>
        <pt x="404" y="215" on="0"/>
        <pt x="355" y="215" on="0"/>
        <pt x="305" y="215" on="0"/>
        <pt x="256" y="215" on="0"/>
        <pt x="230" y="215" on="1"/>
        <pt x="231" y="242" on="0"/>
        <pt x="230" y="295" on="0"/>
        <pt x="231" y="349" on="0"/>
        <pt x="230" y="403" on="0"/>
        <pt x="231" y="429" on="1"/>
        <pt x="259" y="429" on="0"/>
        <pt x="318" y="429" on="0"/>
        <pt x="375" y="429" on="0"/>
        <pt x="434" y="429" on="0"/>
        <pt x="461" y="429" on="1"/>
        <pt x="462" y="436" on="0"/>
        <pt x="461" y="448" on="0"/>
        <pt x="462" y="460" on="0"/>
        <pt x="461" y="473" on="0"/>
        <pt x="462" y="479" on="1"/>
        <pt x="404" y="479" on="0"/>
        <pt x="289" y="479" on="0"/>
        <pt x="172" y="479" on="0"/>
        <pt x="58" y="479" on="0"/>
        <pt x="-1" y="479" on="1"/>
        <pt x="0" y="440" on="0"/>
        <pt x="-1" y="361" on="0"/>
        <pt x="0" y="283" on="0"/>
        <pt x="-1" y="204" on="0"/>
        <pt x="0" y="165" on="1"/>
        <pt x="40" y="165" on="0"/>
        <pt x="124" y="165" on="0"/>
        <pt x="205" y="165" on="0"/>
        <pt x="289" y="165" on="0"/>
        <pt x="329" y="165" on="1"/>
        <pt x="330" y="149" on="1"/>
        <pt x="333" y="149" on="0"/>
        <pt x="343" y="149" on="0"/>
        <pt x="350" y="149" on="0"/>
        <pt x="359" y="149" on="0"/>
        <pt x="362" y="149" on="1"/>
        <pt x="363" y="145" on="0"/>
        <pt x="362" y="136" on="0"/>
        <pt x="363" y="128" on="0"/>
        <pt x="362" y="120" on="0"/>
        <pt x="363" y="116" on="1"/>
        <pt x="366" y="116" on="0"/>
        <pt x="376" y="116" on="0"/>
        <pt x="383" y="116" on="0"/>
        <pt x="392" y="116" on="0"/>
        <pt x="395" y="116" on="1"/>
        <pt x="396" y="107" on="0"/>
        <pt x="395" y="91" on="0"/>
        <pt x="396" y="74" on="0"/>
        <pt x="395" y="58" on="0"/>
        <pt x="396" y="50" on="1"/>
        <pt x="346" y="50" on="0"/>
        <pt x="248" y="50" on="0"/>
        <pt x="148" y="50" on="0"/>
        <pt x="50" y="50" on="0"/>
        <pt x="-1" y="50" on="1"/>
        <pt x="0" y="39" on="0"/>
        <pt x="-1" y="19" on="0"/>
        <pt x="0" y="-2" on="0"/>
        <pt x="-1" y="-23" on="0"/>
        <pt x="0" y="-33" on="1"/>
        <pt x="77" y="-33" on="0"/>
        <pt x="235" y="-33" on="0"/>
        <pt x="391" y="-33" on="0"/>
        <pt x="549" y="-33" on="0"/>
        <pt x="627" y="-33" on="1"/>
        <pt x="628" y="-14" on="0"/>
        <pt x="627" y="23" on="0"/>
        <pt x="628" y="60" on="0"/>
        <pt x="627" y="97" on="0"/>
        <pt x="628" y="116" on="1"/>
        <pt x="610" y="116" on="1"/>
      </contour>
    </TTGlyph>
    <TTGlyph name="four" xMin="0" yMin="-33" xMax="628" yMax="479">
      <contour>
        <pt x="611" y="479" on="1"/>
        <pt x="584" y="479" on="0"/>
        <pt x="531" y="479" on="0"/>
        <pt x="477" y="479" on="0"/>
        <pt x="423" y="479" on="0"/>
        <pt x="396" y="479" on="1"/>
        <pt x="396" y="434" on="0"/>
        <pt x="396" y="343" on="0"/>
        <pt x="396" y="252" on="0"/>
        <pt x="396" y="161" on="0"/>
        <pt x="396" y="116" on="1"/>
        <pt x="376" y="116" on="0"/>
        <pt x="334" y="116" on="0"/>
        <pt x="293" y="116" on="0"/>
        <pt x="252" y="116" on="0"/>
        <pt x="231" y="116" on="1"/>
        <pt x="231" y="161" on="0"/>
        <pt x="231" y="252" on="0"/>
        <pt x="231" y="343" on="0"/>
        <pt x="231" y="434" on="0"/>
        <pt x="231" y="479" on="1"/>
        <pt x="202" y="479" on="0"/>
        <pt x="145" y="479" on="0"/>
        <pt x="87" y="479" on="0"/>
        <pt x="29" y="479" on="0"/>
        <pt x="0" y="479" on="1"/>
        <pt x="0" y="423" on="0"/>
        <pt x="0" y="312" on="0"/>
        <pt x="0" y="200" on="0"/>
        <pt x="0" y="89" on="0"/>
        <pt x="0" y="33" on="1"/>
        <pt x="50" y="33" on="0"/>
        <pt x="149" y="33" on="0"/>
        <pt x="248" y="33" on="0"/>
        <pt x="347" y="33" on="0"/>
        <pt x="396" y="33" on="1"/>
        <pt x="396" y="25" on="0"/>
        <pt x="396" y="8" on="0"/>
        <pt x="396" y="-8" on="0"/>
        <pt x="396" y="-25" on="0"/>
        <pt x="396" y="-33" on="1"/>
        <pt x="425" y="-33" on="0"/>
        <pt x="483" y="-33" on="0"/>
        <pt x="541" y="-33" on="0"/>
        <pt x="599" y="-33" on="0"/>
        <pt x="628" y="-33" on="1"/>
        <pt x="628" y="31" on="0"/>
        <pt x="628" y="159" on="0"/>
        <pt x="628" y="287" on="0"/>
        <pt x="628" y="415" on="0"/>
        <pt x="628" y="479" on="1"/>
        <pt x="611" y="479" on="1"/>
      </contour>
    </TTGlyph>
    <TTGlyph name="g" xMin="0" yMin="-33" xMax="628" yMax="479">
      <contour>
        <pt x="611" y="165" on="1"/>
        <pt x="584" y="165" on="0"/>
        <pt x="531" y="165" on="0"/>
        <pt x="477" y="165" on="0"/>
        <pt x="423" y="165" on="0"/>
        <pt x="396" y="165" on="1"/>
        <pt x="396" y="151" on="0"/>
        <pt x="396" y="122" on="0"/>
        <pt x="396" y="93" on="0"/>
        <pt x="396" y="64" on="0"/>
        <pt x="396" y="50" on="1"/>
        <pt x="376" y="50" on="0"/>
        <pt x="334" y="50" on="0"/>
        <pt x="293" y="50" on="0"/>
        <pt x="252" y="50" on="0"/>
        <pt x="231" y="50" on="1"/>
        <pt x="231" y="91" on="0"/>
        <pt x="231" y="173" on="0"/>
        <pt x="231" y="256" on="0"/>
        <pt x="231" y="339" on="0"/>
        <pt x="231" y="380" on="1"/>
        <pt x="235" y="380" on="0"/>
        <pt x="244" y="380" on="0"/>
        <pt x="252" y="380" on="0"/>
        <pt x="260" y="380" on="0"/>
        <pt x="264" y="380" on="1"/>
        <pt x="264" y="384" on="0"/>
        <pt x="264" y="392" on="0"/>
        <pt x="264" y="401" on="0"/>
        <pt x="264" y="409" on="0"/>
        <pt x="264" y="413" on="1"/>
        <pt x="268" y="413" on="0"/>
        <pt x="277" y="413" on="0"/>
        <pt x="285" y="413" on="0"/>
        <pt x="293" y="413" on="0"/>
        <pt x="297" y="413" on="1"/>
        <pt x="297" y="429" on="1"/>
        <pt x="318" y="429" on="0"/>
        <pt x="359" y="429" on="0"/>
        <pt x="401" y="429" on="0"/>
        <pt x="442" y="429" on="0"/>
        <pt x="462" y="429" on="1"/>
        <pt x="462" y="436" on="0"/>
        <pt x="462" y="448" on="0"/>
        <pt x="462" y="460" on="0"/>
        <pt x="462" y="473" on="0"/>
        <pt x="462" y="479" on="1"/>
        <pt x="438" y="479" on="0"/>
        <pt x="388" y="479" on="0"/>
        <pt x="339" y="479" on="0"/>
        <pt x="289" y="479" on="0"/>
        <pt x="264" y="479" on="1"/>
        <pt x="264" y="462" on="1"/>
        <pt x="256" y="462" on="0"/>
        <pt x="239" y="462" on="0"/>
        <pt x="223" y="462" on="0"/>
        <pt x="206" y="462" on="0"/>
        <pt x="198" y="462" on="1"/>
        <pt x="198" y="446" on="1"/>
        <pt x="194" y="446" on="0"/>
        <pt x="186" y="446" on="0"/>
        <pt x="178" y="446" on="0"/>
        <pt x="169" y="446" on="0"/>
        <pt x="165" y="446" on="1"/>
        <pt x="165" y="429" on="1"/>
        <pt x="161" y="429" on="0"/>
        <pt x="153" y="429" on="0"/>
        <pt x="145" y="429" on="0"/>
        <pt x="136" y="429" on="0"/>
        <pt x="132" y="429" on="1"/>
        <pt x="132" y="413" on="1"/>
        <pt x="128" y="413" on="0"/>
        <pt x="120" y="413" on="0"/>
        <pt x="111" y="413" on="0"/>
        <pt x="103" y="413" on="0"/>
        <pt x="99" y="413" on="1"/>
        <pt x="99" y="409" on="0"/>
        <pt x="99" y="401" on="0"/>
        <pt x="99" y="392" on="0"/>
        <pt x="99" y="384" on="0"/>
        <pt x="99" y="380" on="1"/>
        <pt x="95" y="380" on="0"/>
        <pt x="87" y="380" on="0"/>
        <pt x="78" y="380" on="0"/>
        <pt x="70" y="380" on="0"/>
        <pt x="66" y="380" on="1"/>
        <pt x="66" y="376" on="0"/>
        <pt x="66" y="367" on="0"/>
        <pt x="66" y="359" on="0"/>
        <pt x="66" y="351" on="0"/>
        <pt x="66" y="347" on="1"/>
        <pt x="62" y="347" on="0"/>
        <pt x="54" y="347" on="0"/>
        <pt x="45" y="347" on="0"/>
        <pt x="37" y="347" on="0"/>
        <pt x="33" y="347" on="1"/>
        <pt x="33" y="339" on="0"/>
        <pt x="33" y="322" on="0"/>
        <pt x="33" y="306" on="0"/>
        <pt x="33" y="289" on="0"/>
        <pt x="33" y="281" on="1"/>
        <pt x="29" y="281" on="0"/>
        <pt x="21" y="281" on="0"/>
        <pt x="12" y="281" on="0"/>
        <pt x="4" y="281" on="0"/>
        <pt x="0" y="281" on="1"/>
        <pt x="0" y="242" on="0"/>
        <pt x="0" y="163" on="0"/>
        <pt x="0" y="85" on="0"/>
        <pt x="0" y="6" on="0"/>
        <pt x="0" y="-33" on="1"/>
        <pt x="78" y="-33" on="0"/>
        <pt x="235" y="-33" on="0"/>
        <pt x="392" y="-33" on="0"/>
        <pt x="549" y="-33" on="0"/>
        <pt x="628" y="-33" on="1"/>
        <pt x="628" y="-8" on="0"/>
        <pt x="628" y="41" on="0"/>
        <pt x="628" y="91" on="0"/>
        <pt x="628" y="140" on="0"/>
        <pt x="628" y="165" on="1"/>
        <pt x="611" y="165" on="1"/>
      </contour>
    </TTGlyph>
    <TTGlyph name="h" xMin="0" yMin="-33" xMax="628" yMax="479">
      <contour>
        <pt x="611" y="479" on="1"/>
        <pt x="584" y="479" on="0"/>
        <pt x="531" y="479" on="0"/>
        <pt x="477" y="479" on="0"/>
        <pt x="423" y="479" on="0"/>
        <pt x="396" y="479" on="1"/>
        <pt x="396" y="434" on="0"/>
        <pt x="396" y="343" on="0"/>
        <pt x="396" y="252" on="0"/>
        <pt x="396" y="161" on="0"/>
        <pt x="396" y="116" on="1"/>
        <pt x="376" y="116" on="0"/>
        <pt x="334" y="116" on="0"/>
        <pt x="293" y="116" on="0"/>
        <pt x="252" y="116" on="0"/>
        <pt x="231" y="116" on="1"/>
        <pt x="231" y="161" on="0"/>
        <pt x="231" y="252" on="0"/>
        <pt x="231" y="343" on="0"/>
        <pt x="231" y="434" on="0"/>
        <pt x="231" y="479" on="1"/>
        <pt x="202" y="479" on="0"/>
        <pt x="145" y="479" on="0"/>
        <pt x="87" y="479" on="0"/>
        <pt x="29" y="479" on="0"/>
        <pt x="0" y="479" on="1"/>
        <pt x="0" y="415" on="0"/>
        <pt x="0" y="287" on="0"/>
        <pt x="0" y="159" on="0"/>
        <pt x="0" y="31" on="0"/>
        <pt x="0" y="-33" on="1"/>
        <pt x="29" y="-33" on="0"/>
        <pt x="87" y="-33" on="0"/>
        <pt x="145" y="-33" on="0"/>
        <pt x="202" y="-33" on="0"/>
        <pt x="231" y="-33" on="1"/>
        <pt x="231" y="-25" on="0"/>
        <pt x="231" y="-8" on="0"/>
        <pt x="231" y="8" on="0"/>
        <pt x="231" y="25" on="0"/>
        <pt x="231" y="33" on="1"/>
        <pt x="252" y="33" on="0"/>
        <pt x="293" y="33" on="0"/>
        <pt x="334" y="33" on="0"/>
        <pt x="376" y="33" on="0"/>
        <pt x="396" y="33" on="1"/>
        <pt x="396" y="25" on="0"/>
        <pt x="396" y="8" on="0"/>
        <pt x="396" y="-8" on="0"/>
        <pt x="396" y="-25" on="0"/>
        <pt x="396" y="-33" on="1"/>
        <pt x="425" y="-33" on="0"/>
        <pt x="483" y="-33" on="0"/>
        <pt x="541" y="-33" on="0"/>
        <pt x="599" y="-33" on="0"/>
        <pt x="628" y="-33" on="1"/>
        <pt x="628" y="31" on="0"/>
        <pt x="628" y="159" on="0"/>
        <pt x="628" y="287" on="0"/>
        <pt x="628" y="415" on="0"/>
        <pt x="628" y="479" on="1"/>
        <pt x="611" y="479" on="1"/>
      </contour>
    </TTGlyph>
    <TTGlyph name="i" xMin="0" yMin="-33" xMax="231" yMax="479">
      <contour>
        <pt x="215" y="479" on="1"/>
        <pt x="188" y="479" on="0"/>
        <pt x="134" y="479" on="0"/>
        <pt x="81" y="479" on="0"/>
        <pt x="27" y="479" on="0"/>
        <pt x="0" y="479" on="1"/>
        <pt x="0" y="415" on="0"/>
        <pt x="0" y="287" on="0"/>
        <pt x="0" y="159" on="0"/>
        <pt x="0" y="31" on="0"/>
        <pt x="0" y="-33" on="1"/>
        <pt x="29" y="-33" on="0"/>
        <pt x="87" y="-33" on="0"/>
        <pt x="145" y="-33" on="0"/>
        <pt x="202" y="-33" on="0"/>
        <pt x="231" y="-33" on="1"/>
        <pt x="231" y="31" on="0"/>
        <pt x="231" y="159" on="0"/>
        <pt x="231" y="287" on="0"/>
        <pt x="231" y="415" on="0"/>
        <pt x="231" y="479" on="1"/>
        <pt x="215" y="479" on="1"/>
      </contour>
    </TTGlyph>
    <TTGlyph name="j" xMin="0" yMin="-33" xMax="628" yMax="479">
      <contour>
        <pt x="611" y="479" on="1"/>
        <pt x="584" y="479" on="0"/>
        <pt x="531" y="479" on="0"/>
        <pt x="477" y="479" on="0"/>
        <pt x="423" y="479" on="0"/>
        <pt x="396" y="479" on="1"/>
        <pt x="396" y="425" on="0"/>
        <pt x="396" y="318" on="0"/>
        <pt x="396" y="211" on="0"/>
        <pt x="396" y="103" on="0"/>
        <pt x="396" y="50" on="1"/>
        <pt x="347" y="50" on="0"/>
        <pt x="248" y="50" on="0"/>
        <pt x="149" y="50" on="0"/>
        <pt x="50" y="50" on="0"/>
        <pt x="0" y="50" on="1"/>
        <pt x="0" y="39" on="0"/>
        <pt x="0" y="19" on="0"/>
        <pt x="0" y="-2" on="0"/>
        <pt x="0" y="-23" on="0"/>
        <pt x="0" y="-33" on="1"/>
        <pt x="78" y="-33" on="0"/>
        <pt x="235" y="-33" on="0"/>
        <pt x="392" y="-33" on="0"/>
        <pt x="549" y="-33" on="0"/>
        <pt x="628" y="-33" on="1"/>
        <pt x="628" y="31" on="0"/>
        <pt x="628" y="159" on="0"/>
        <pt x="628" y="287" on="0"/>
        <pt x="628" y="415" on="0"/>
        <pt x="628" y="479" on="1"/>
        <pt x="611" y="479" on="1"/>
      </contour>
    </TTGlyph>
    <TTGlyph name="k" xMin="0" yMin="-33" xMax="628" yMax="479">
      <contour>
        <pt x="611" y="479" on="1"/>
        <pt x="584" y="479" on="0"/>
        <pt x="531" y="479" on="0"/>
        <pt x="477" y="479" on="0"/>
        <pt x="423" y="479" on="0"/>
        <pt x="396" y="479" on="1"/>
        <pt x="396" y="475" on="0"/>
        <pt x="396" y="467" on="0"/>
        <pt x="396" y="458" on="0"/>
        <pt x="396" y="450" on="0"/>
        <pt x="396" y="446" on="1"/>
        <pt x="392" y="446" on="0"/>
        <pt x="384" y="446" on="0"/>
        <pt x="376" y="446" on="0"/>
        <pt x="367" y="446" on="0"/>
        <pt x="363" y="446" on="1"/>
        <pt x="363" y="440" on="0"/>
        <pt x="363" y="427" on="0"/>
        <pt x="363" y="415" on="0"/>
        <pt x="363" y="403" on="0"/>
        <pt x="363" y="396" on="1"/>
        <pt x="359" y="396" on="0"/>
        <pt x="351" y="396" on="0"/>
        <pt x="343" y="396" on="0"/>
        <pt x="334" y="396" on="0"/>
        <pt x="330" y="396" on="1"/>
        <pt x="330" y="390" on="0"/>
        <pt x="330" y="378" on="0"/>
        <pt x="330" y="365" on="0"/>
        <pt x="330" y="353" on="0"/>
        <pt x="330" y="347" on="1"/>
        <pt x="326" y="347" on="0"/>
        <pt x="318" y="347" on="0"/>
        <pt x="310" y="347" on="0"/>
        <pt x="301" y="347" on="0"/>
        <pt x="297" y="347" on="1"/>
        <pt x="297" y="341" on="0"/>
        <pt x="297" y="328" on="0"/>
        <pt x="297" y="316" on="0"/>
        <pt x="297" y="303" on="0"/>
        <pt x="297" y="297" on="1"/>
        <pt x="293" y="297" on="0"/>
        <pt x="285" y="297" on="0"/>
        <pt x="277" y="297" on="0"/>
        <pt x="268" y="297" on="0"/>
        <pt x="264" y="297" on="1"/>
        <pt x="264" y="291" on="0"/>
        <pt x="264" y="279" on="0"/>
        <pt x="264" y="266" on="0"/>
        <pt x="264" y="254" on="0"/>
        <pt x="264" y="248" on="1"/>
        <pt x="260" y="248" on="0"/>
        <pt x="252" y="248" on="0"/>
        <pt x="244" y="248" on="0"/>
        <pt x="235" y="248" on="0"/>
        <pt x="231" y="248" on="1"/>
        <pt x="231" y="277" on="0"/>
        <pt x="231" y="334" on="0"/>
        <pt x="231" y="392" on="0"/>
        <pt x="231" y="450" on="0"/>
        <pt x="231" y="479" on="1"/>
        <pt x="202" y="479" on="0"/>
        <pt x="145" y="479" on="0"/>
        <pt x="87" y="479" on="0"/>
        <pt x="29" y="479" on="0"/>
        <pt x="0" y="479" on="1"/>
        <pt x="0" y="415" on="0"/>
        <pt x="0" y="287" on="0"/>
        <pt x="0" y="159" on="0"/>
        <pt x="0" y="31" on="0"/>
        <pt x="0" y="-33" on="1"/>
        <pt x="29" y="-33" on="0"/>
        <pt x="87" y="-33" on="0"/>
        <pt x="145" y="-33" on="0"/>
        <pt x="202" y="-33" on="0"/>
        <pt x="231" y="-33" on="1"/>
        <pt x="231" y="-4" on="0"/>
        <pt x="231" y="54" on="0"/>
        <pt x="231" y="111" on="0"/>
        <pt x="231" y="169" on="0"/>
        <pt x="231" y="198" on="1"/>
        <pt x="235" y="198" on="0"/>
        <pt x="244" y="198" on="0"/>
        <pt x="252" y="198" on="0"/>
        <pt x="260" y="198" on="0"/>
        <pt x="264" y="198" on="1"/>
        <pt x="264" y="192" on="0"/>
        <pt x="264" y="180" on="0"/>
        <pt x="264" y="167" on="0"/>
        <pt x="264" y="155" on="0"/>
        <pt x="264" y="149" on="1"/>
        <pt x="268" y="149" on="0"/>
        <pt x="277" y="149" on="0"/>
        <pt x="285" y="149" on="0"/>
        <pt x="293" y="149" on="0"/>
        <pt x="297" y="149" on="1"/>
        <pt x="297" y="142" on="0"/>
        <pt x="297" y="130" on="0"/>
        <pt x="297" y="118" on="0"/>
        <pt x="297" y="105" on="0"/>
        <pt x="297" y="99" on="1"/>
        <pt x="301" y="99" on="0"/>
        <pt x="310" y="99" on="0"/>
        <pt x="318" y="99" on="0"/>
        <pt x="326" y="99" on="0"/>
        <pt x="330" y="99" on="1"/>
        <pt x="330" y="93" on="0"/>
        <pt x="330" y="81" on="0"/>
        <pt x="330" y="68" on="0"/>
        <pt x="330" y="56" on="0"/>
        <pt x="330" y="50" on="1"/>
        <pt x="334" y="50" on="0"/>
        <pt x="343" y="50" on="0"/>
        <pt x="351" y="50" on="0"/>
        <pt x="359" y="50" on="0"/>
        <pt x="363" y="50" on="1"/>
        <pt x="363" y="43" on="0"/>
        <pt x="363" y="31" on="0"/>
        <pt x="363" y="19" on="0"/>
        <pt x="363" y="6" on="0"/>
        <pt x="363" y="0" on="1"/>
        <pt x="367" y="0" on="0"/>
        <pt x="376" y="0" on="0"/>
        <pt x="384" y="0" on="0"/>
        <pt x="392" y="0" on="0"/>
        <pt x="396" y="0" on="1"/>
        <pt x="396" y="-4" on="0"/>
        <pt x="396" y="-12" on="0"/>
        <pt x="396" y="-21" on="0"/>
        <pt x="396" y="-29" on="0"/>
        <pt x="396" y="-33" on="1"/>
        <pt x="425" y="-33" on="0"/>
        <pt x="483" y="-33" on="0"/>
        <pt x="541" y="-33" on="0"/>
        <pt x="599" y="-33" on="0"/>
        <pt x="628" y="-33" on="1"/>
        <pt x="628" y="-27" on="0"/>
        <pt x="628" y="-14" on="0"/>
        <pt x="628" y="-2" on="0"/>
        <pt x="628" y="10" on="0"/>
        <pt x="628" y="17" on="1"/>
        <pt x="623" y="17" on="0"/>
        <pt x="615" y="17" on="0"/>
        <pt x="607" y="17" on="0"/>
        <pt x="599" y="17" on="0"/>
        <pt x="595" y="17" on="1"/>
        <pt x="595" y="33" on="1"/>
        <pt x="590" y="33" on="0"/>
        <pt x="582" y="33" on="0"/>
        <pt x="574" y="33" on="0"/>
        <pt x="566" y="33" on="0"/>
        <pt x="562" y="33" on="1"/>
        <pt x="562" y="37" on="0"/>
        <pt x="562" y="45" on="0"/>
        <pt x="562" y="54" on="0"/>
        <pt x="562" y="62" on="0"/>
        <pt x="562" y="66" on="1"/>
        <pt x="557" y="66" on="0"/>
        <pt x="549" y="66" on="0"/>
        <pt x="541" y="66" on="0"/>
        <pt x="533" y="66" on="0"/>
        <pt x="529" y="66" on="1"/>
        <pt x="529" y="83" on="1"/>
        <pt x="524" y="83" on="0"/>
        <pt x="516" y="83" on="0"/>
        <pt x="508" y="83" on="0"/>
        <pt x="500" y="83" on="0"/>
        <pt x="495" y="83" on="1"/>
        <pt x="495" y="87" on="0"/>
        <pt x="495" y="95" on="0"/>
        <pt x="495" y="103" on="0"/>
        <pt x="495" y="111" on="0"/>
        <pt x="495" y="116" on="1"/>
        <pt x="491" y="116" on="0"/>
        <pt x="483" y="116" on="0"/>
        <pt x="475" y="116" on="0"/>
        <pt x="467" y="116" on="0"/>
        <pt x="462" y="116" on="1"/>
        <pt x="462" y="132" on="1"/>
        <pt x="458" y="132" on="0"/>
        <pt x="450" y="132" on="0"/>
        <pt x="442" y="132" on="0"/>
        <pt x="434" y="132" on="0"/>
        <pt x="429" y="132" on="1"/>
        <pt x="429" y="136" on="0"/>
        <pt x="429" y="145" on="0"/>
        <pt x="429" y="153" on="0"/>
        <pt x="429" y="161" on="0"/>
        <pt x="429" y="165" on="1"/>
        <pt x="425" y="165" on="0"/>
        <pt x="417" y="165" on="0"/>
        <pt x="409" y="165" on="0"/>
        <pt x="401" y="165" on="0"/>
        <pt x="396" y="165" on="1"/>
        <pt x="396" y="182" on="1"/>
        <pt x="392" y="182" on="0"/>
        <pt x="384" y="182" on="0"/>
        <pt x="376" y="182" on="0"/>
        <pt x="367" y="182" on="0"/>
        <pt x="363" y="182" on="1"/>
        <pt x="363" y="186" on="0"/>
        <pt x="363" y="194" on="0"/>
        <pt x="363" y="202" on="0"/>
        <pt x="363" y="211" on="0"/>
        <pt x="363" y="215" on="1"/>
        <pt x="359" y="215" on="0"/>
        <pt x="351" y="215" on="0"/>
        <pt x="343" y="215" on="0"/>
        <pt x="334" y="215" on="0"/>
        <pt x="330" y="215" on="1"/>
        <pt x="330" y="231" on="1"/>
        <pt x="334" y="231" on="0"/>
        <pt x="343" y="231" on="0"/>
        <pt x="351" y="231" on="0"/>
        <pt x="359" y="231" on="0"/>
        <pt x="363" y="231" on="1"/>
        <pt x="363" y="235" on="0"/>
        <pt x="363" y="244" on="0"/>
        <pt x="363" y="252" on="0"/>
        <pt x="363" y="260" on="0"/>
        <pt x="363" y="264" on="1"/>
        <pt x="367" y="264" on="0"/>
        <pt x="376" y="264" on="0"/>
        <pt x="384" y="264" on="0"/>
        <pt x="392" y="264" on="0"/>
        <pt x="396" y="264" on="1"/>
        <pt x="396" y="281" on="1"/>
        <pt x="401" y="281" on="0"/>
        <pt x="409" y="281" on="0"/>
        <pt x="417" y="281" on="0"/>
        <pt x="425" y="281" on="0"/>
        <pt x="429" y="281" on="1"/>
        <pt x="429" y="285" on="0"/>
        <pt x="429" y="293" on="0"/>
        <pt x="429" y="301" on="0"/>
        <pt x="429" y="310" on="0"/>
        <pt x="429" y="314" on="1"/>
        <pt x="434" y="314" on="0"/>
        <pt x="442" y="314" on="0"/>
        <pt x="450" y="314" on="0"/>
        <pt x="458" y="314" on="0"/>
        <pt x="462" y="314" on="1"/>
        <pt x="462" y="330" on="1"/>
        <pt x="467" y="330" on="0"/>
        <pt x="475" y="330" on="0"/>
        <pt x="483" y="330" on="0"/>
        <pt x="491" y="330" on="0"/>
        <pt x="495" y="330" on="1"/>
        <pt x="495" y="334" on="0"/>
        <pt x="495" y="343" on="0"/>
        <pt x="495" y="351" on="0"/>
        <pt x="495" y="359" on="0"/>
        <pt x="495" y="363" on="1"/>
        <pt x="500" y="363" on="0"/>
        <pt x="508" y="363" on="0"/>
        <pt x="516" y="363" on="0"/>
        <pt x="524" y="363" on="0"/>
        <pt x="529" y="363" on="1"/>
        <pt x="529" y="380" on="1"/>
        <pt x="533" y="380" on="0"/>
        <pt x="541" y="380" on="0"/>
        <pt x="549" y="380" on="0"/>
        <pt x="557" y="380" on="0"/>
        <pt x="562" y="380" on="1"/>
        <pt x="562" y="384" on="0"/>
        <pt x="562" y="392" on="0"/>
        <pt x="562" y="401" on="0"/>
        <pt x="562" y="409" on="0"/>
        <pt x="562" y="413" on="1"/>
        <pt x="566" y="413" on="0"/>
        <pt x="574" y="413" on="0"/>
        <pt x="582" y="413" on="0"/>
        <pt x="590" y="413" on="0"/>
        <pt x="595" y="413" on="1"/>
        <pt x="595" y="429" on="1"/>
        <pt x="599" y="429" on="0"/>
        <pt x="607" y="429" on="0"/>
        <pt x="615" y="429" on="0"/>
        <pt x="623" y="429" on="0"/>
        <pt x="628" y="429" on="1"/>
        <pt x="628" y="436" on="0"/>
        <pt x="628" y="448" on="0"/>
        <pt x="628" y="460" on="0"/>
        <pt x="628" y="473" on="0"/>
        <pt x="628" y="479" on="1"/>
        <pt x="611" y="479" on="1"/>
      </contour>
    </TTGlyph>
    <TTGlyph name="l" xMin="0" yMin="-33" xMax="495" yMax="479">
      <contour>
        <pt x="479" y="50" on="1"/>
        <pt x="448" y="50" on="0"/>
        <pt x="386" y="50" on="0"/>
        <pt x="324" y="50" on="0"/>
        <pt x="262" y="50" on="0"/>
        <pt x="231" y="50" on="1"/>
        <pt x="231" y="103" on="0"/>
        <pt x="231" y="211" on="0"/>
        <pt x="231" y="318" on="0"/>
        <pt x="231" y="425" on="0"/>
        <pt x="231" y="479" on="1"/>
        <pt x="202" y="479" on="0"/>
        <pt x="145" y="479" on="0"/>
        <pt x="87" y="479" on="0"/>
        <pt x="29" y="479" on="0"/>
        <pt x="0" y="479" on="1"/>
        <pt x="0" y="415" on="0"/>
        <pt x="0" y="287" on="0"/>
        <pt x="0" y="159" on="0"/>
        <pt x="0" y="31" on="0"/>
        <pt x="0" y="-33" on="1"/>
        <pt x="62" y="-33" on="0"/>
        <pt x="186" y="-33" on="0"/>
        <pt x="310" y="-33" on="0"/>
        <pt x="434" y="-33" on="0"/>
        <pt x="495" y="-33" on="1"/>
        <pt x="495" y="-23" on="0"/>
        <pt x="495" y="-2" on="0"/>
        <pt x="495" y="19" on="0"/>
        <pt x="495" y="39" on="0"/>
        <pt x="495" y="50" on="1"/>
        <pt x="479" y="50" on="1"/>
      </contour>
    </TTGlyph>
    <TTGlyph name="m" xMin="0" yMin="-33" xMax="1024" yMax="479">
      <contour>
        <pt x="1007" y="297" on="1"/>
        <pt x="990" y="297" on="1"/>
        <pt x="991" y="303" on="0"/>
        <pt x="990" y="316" on="0"/>
        <pt x="991" y="328" on="0"/>
        <pt x="990" y="341" on="0"/>
        <pt x="991" y="347" on="1"/>
        <pt x="986" y="347" on="0"/>
        <pt x="979" y="347" on="0"/>
        <pt x="969" y="347" on="0"/>
        <pt x="962" y="347" on="0"/>
        <pt x="957" y="347" on="1"/>
        <pt x="958" y="351" on="0"/>
        <pt x="957" y="359" on="0"/>
        <pt x="958" y="367" on="0"/>
        <pt x="957" y="376" on="0"/>
        <pt x="958" y="380" on="1"/>
        <pt x="953" y="380" on="0"/>
        <pt x="946" y="380" on="0"/>
        <pt x="936" y="380" on="0"/>
        <pt x="929" y="380" on="0"/>
        <pt x="924" y="380" on="1"/>
        <pt x="925" y="384" on="0"/>
        <pt x="924" y="392" on="0"/>
        <pt x="925" y="401" on="0"/>
        <pt x="924" y="409" on="0"/>
        <pt x="925" y="413" on="1"/>
        <pt x="920" y="413" on="0"/>
        <pt x="913" y="413" on="0"/>
        <pt x="903" y="413" on="0"/>
        <pt x="896" y="413" on="0"/>
        <pt x="891" y="413" on="1"/>
        <pt x="892" y="429" on="1"/>
        <pt x="887" y="429" on="0"/>
        <pt x="879" y="429" on="0"/>
        <pt x="870" y="429" on="0"/>
        <pt x="863" y="429" on="0"/>
        <pt x="858" y="429" on="1"/>
        <pt x="859" y="446" on="1"/>
        <pt x="854" y="446" on="0"/>
        <pt x="846" y="446" on="0"/>
        <pt x="837" y="446" on="0"/>
        <pt x="830" y="446" on="0"/>
        <pt x="825" y="446" on="1"/>
        <pt x="826" y="462" on="1"/>
        <pt x="817" y="462" on="0"/>
        <pt x="801" y="462" on="0"/>
        <pt x="784" y="462" on="0"/>
        <pt x="768" y="462" on="0"/>
        <pt x="759" y="462" on="1"/>
        <pt x="760" y="479" on="1"/>
        <pt x="664" y="479" on="0"/>
        <pt x="475" y="479" on="0"/>
        <pt x="284" y="479" on="0"/>
        <pt x="95" y="479" on="0"/>
        <pt x="-1" y="479" on="1"/>
        <pt x="0" y="415" on="0"/>
        <pt x="-1" y="287" on="0"/>
        <pt x="0" y="159" on="0"/>
        <pt x="-1" y="31" on="0"/>
        <pt x="0" y="-33" on="1"/>
        <pt x="28" y="-33" on="0"/>
        <pt x="87" y="-33" on="0"/>
        <pt x="144" y="-33" on="0"/>
        <pt x="202" y="-33" on="0"/>
        <pt x="230" y="-33" on="1"/>
        <pt x="231" y="25" on="0"/>
        <pt x="230" y="140" on="0"/>
        <pt x="231" y="256" on="0"/>
        <pt x="230" y="372" on="0"/>
        <pt x="231" y="429" on="1"/>
        <pt x="251" y="429" on="0"/>
        <pt x="293" y="429" on="0"/>
        <pt x="333" y="429" on="0"/>
        <pt x="376" y="429" on="0"/>
        <pt x="395" y="429" on="1"/>
        <pt x="396" y="372" on="0"/>
        <pt x="395" y="256" on="0"/>
        <pt x="396" y="140" on="0"/>
        <pt x="395" y="25" on="0"/>
        <pt x="396" y="-33" on="1"/>
        <pt x="424" y="-33" on="0"/>
        <pt x="483" y="-33" on="0"/>
        <pt x="540" y="-33" on="0"/>
        <pt x="599" y="-33" on="0"/>
        <pt x="627" y="-33" on="1"/>
        <pt x="628" y="25" on="0"/>
        <pt x="627" y="140" on="0"/>
        <pt x="628" y="256" on="0"/>
        <pt x="627" y="372" on="0"/>
        <pt x="628" y="429" on="1"/>
        <pt x="639" y="429" on="0"/>
        <pt x="665" y="429" on="0"/>
        <pt x="689" y="429" on="0"/>
        <pt x="714" y="429" on="0"/>
        <pt x="726" y="429" on="1"/>
        <pt x="727" y="413" on="1"/>
        <pt x="730" y="413" on="0"/>
        <pt x="739" y="413" on="0"/>
        <pt x="746" y="413" on="0"/>
        <pt x="756" y="413" on="0"/>
        <pt x="759" y="413" on="1"/>
        <pt x="760" y="409" on="0"/>
        <pt x="759" y="401" on="0"/>
        <pt x="760" y="392" on="0"/>
        <pt x="759" y="384" on="0"/>
        <pt x="760" y="380" on="1"/>
        <pt x="763" y="380" on="0"/>
        <pt x="772" y="380" on="0"/>
        <pt x="779" y="380" on="0"/>
        <pt x="789" y="380" on="0"/>
        <pt x="792" y="380" on="1"/>
        <pt x="793" y="328" on="0"/>
        <pt x="792" y="225" on="0"/>
        <pt x="793" y="122" on="0"/>
        <pt x="792" y="19" on="0"/>
        <pt x="793" y="-33" on="1"/>
        <pt x="821" y="-33" on="0"/>
        <pt x="879" y="-33" on="0"/>
        <pt x="936" y="-33" on="0"/>
        <pt x="995" y="-33" on="0"/>
        <pt x="1023" y="-33" on="1"/>
        <pt x="1024" y="8" on="0"/>
        <pt x="1023" y="91" on="0"/>
        <pt x="1024" y="173" on="0"/>
        <pt x="1023" y="256" on="0"/>
        <pt x="1024" y="297" on="1"/>
        <pt x="1006" y="297" on="1"/>
      </contour>
    </TTGlyph>
    <TTGlyph name="n" xMin="0" yMin="-33" xMax="628" yMax="479">
      <contour>
        <pt x="611" y="479" on="1"/>
        <pt x="584" y="479" on="0"/>
        <pt x="531" y="479" on="0"/>
        <pt x="477" y="479" on="0"/>
        <pt x="423" y="479" on="0"/>
        <pt x="396" y="479" on="1"/>
        <pt x="396" y="460" on="0"/>
        <pt x="396" y="423" on="0"/>
        <pt x="396" y="386" on="0"/>
        <pt x="396" y="349" on="0"/>
        <pt x="396" y="330" on="1"/>
        <pt x="392" y="330" on="0"/>
        <pt x="384" y="330" on="0"/>
        <pt x="376" y="330" on="0"/>
        <pt x="367" y="330" on="0"/>
        <pt x="363" y="330" on="1"/>
        <pt x="363" y="347" on="1"/>
        <pt x="359" y="347" on="0"/>
        <pt x="351" y="347" on="0"/>
        <pt x="343" y="347" on="0"/>
        <pt x="334" y="347" on="0"/>
        <pt x="330" y="347" on="1"/>
        <pt x="330" y="363" on="1"/>
        <pt x="326" y="363" on="0"/>
        <pt x="318" y="363" on="0"/>
        <pt x="310" y="363" on="0"/>
        <pt x="301" y="363" on="0"/>
        <pt x="297" y="363" on="1"/>
        <pt x="297" y="380" on="1"/>
        <pt x="293" y="380" on="0"/>
        <pt x="285" y="380" on="0"/>
        <pt x="277" y="380" on="0"/>
        <pt x="268" y="380" on="0"/>
        <pt x="264" y="380" on="1"/>
        <pt x="264" y="396" on="1"/>
        <pt x="260" y="396" on="0"/>
        <pt x="252" y="396" on="0"/>
        <pt x="244" y="396" on="0"/>
        <pt x="235" y="396" on="0"/>
        <pt x="231" y="396" on="1"/>
        <pt x="231" y="407" on="0"/>
        <pt x="231" y="427" on="0"/>
        <pt x="231" y="448" on="0"/>
        <pt x="231" y="469" on="0"/>
        <pt x="231" y="479" on="1"/>
        <pt x="202" y="479" on="0"/>
        <pt x="145" y="479" on="0"/>
        <pt x="87" y="479" on="0"/>
        <pt x="29" y="479" on="0"/>
        <pt x="0" y="479" on="1"/>
        <pt x="0" y="415" on="0"/>
        <pt x="0" y="287" on="0"/>
        <pt x="0" y="159" on="0"/>
        <pt x="0" y="31" on="0"/>
        <pt x="0" y="-33" on="1"/>
        <pt x="29" y="-33" on="0"/>
        <pt x="87" y="-33" on="0"/>
        <pt x="145" y="-33" on="0"/>
        <pt x="202" y="-33" on="0"/>
        <pt x="231" y="-33" on="1"/>
        <pt x="231" y="10" on="0"/>
        <pt x="231" y="97" on="0"/>
        <pt x="231" y="184" on="0"/>
        <pt x="231" y="270" on="0"/>
        <pt x="231" y="314" on="1"/>
        <pt x="235" y="314" on="0"/>
        <pt x="244" y="314" on="0"/>
        <pt x="252" y="314" on="0"/>
        <pt x="260" y="314" on="0"/>
        <pt x="264" y="314" on="1"/>
        <pt x="264" y="297" on="1"/>
        <pt x="268" y="297" on="0"/>
        <pt x="277" y="297" on="0"/>
        <pt x="285" y="297" on="0"/>
        <pt x="293" y="297" on="0"/>
        <pt x="297" y="297" on="1"/>
        <pt x="297" y="281" on="1"/>
        <pt x="301" y="281" on="0"/>
        <pt x="310" y="281" on="0"/>
        <pt x="318" y="281" on="0"/>
        <pt x="326" y="281" on="0"/>
        <pt x="330" y="281" on="1"/>
        <pt x="330" y="264" on="1"/>
        <pt x="334" y="264" on="0"/>
        <pt x="343" y="264" on="0"/>
        <pt x="351" y="264" on="0"/>
        <pt x="359" y="264" on="0"/>
        <pt x="363" y="264" on="1"/>
        <pt x="363" y="248" on="1"/>
        <pt x="367" y="248" on="0"/>
        <pt x="376" y="248" on="0"/>
        <pt x="384" y="248" on="0"/>
        <pt x="392" y="248" on="0"/>
        <pt x="396" y="248" on="1"/>
        <pt x="396" y="213" on="0"/>
        <pt x="396" y="142" on="0"/>
        <pt x="396" y="72" on="0"/>
        <pt x="396" y="2" on="0"/>
        <pt x="396" y="-33" on="1"/>
        <pt x="425" y="-33" on="0"/>
        <pt x="483" y="-33" on="0"/>
        <pt x="541" y="-33" on="0"/>
        <pt x="599" y="-33" on="0"/>
        <pt x="628" y="-33" on="1"/>
        <pt x="628" y="31" on="0"/>
        <pt x="628" y="159" on="0"/>
        <pt x="628" y="287" on="0"/>
        <pt x="628" y="415" on="0"/>
        <pt x="628" y="479" on="1"/>
        <pt x="611" y="479" on="1"/>
      </contour>
    </TTGlyph>
    <TTGlyph name="nine" xMin="0" yMin="-33" xMax="628" yMax="479">
      <contour>
        <pt x="611" y="297" on="1"/>
        <pt x="594" y="297" on="1"/>
        <pt x="595" y="303" on="0"/>
        <pt x="594" y="316" on="0"/>
        <pt x="595" y="328" on="0"/>
        <pt x="594" y="341" on="0"/>
        <pt x="595" y="347" on="1"/>
        <pt x="589" y="347" on="0"/>
        <pt x="582" y="347" on="0"/>
        <pt x="573" y="347" on="0"/>
        <pt x="566" y="347" on="0"/>
        <pt x="561" y="347" on="1"/>
        <pt x="562" y="351" on="0"/>
        <pt x="561" y="359" on="0"/>
        <pt x="562" y="367" on="0"/>
        <pt x="561" y="376" on="0"/>
        <pt x="562" y="380" on="1"/>
        <pt x="556" y="380" on="0"/>
        <pt x="549" y="380" on="0"/>
        <pt x="540" y="380" on="0"/>
        <pt x="533" y="380" on="0"/>
        <pt x="528" y="380" on="1"/>
        <pt x="529" y="384" on="0"/>
        <pt x="528" y="392" on="0"/>
        <pt x="529" y="401" on="0"/>
        <pt x="528" y="409" on="0"/>
        <pt x="529" y="413" on="1"/>
        <pt x="523" y="413" on="0"/>
        <pt x="516" y="413" on="0"/>
        <pt x="507" y="413" on="0"/>
        <pt x="500" y="413" on="0"/>
        <pt x="494" y="413" on="1"/>
        <pt x="495" y="429" on="1"/>
        <pt x="490" y="429" on="0"/>
        <pt x="483" y="429" on="0"/>
        <pt x="474" y="429" on="0"/>
        <pt x="467" y="429" on="0"/>
        <pt x="461" y="429" on="1"/>
        <pt x="462" y="446" on="1"/>
        <pt x="457" y="446" on="0"/>
        <pt x="450" y="446" on="0"/>
        <pt x="441" y="446" on="0"/>
        <pt x="434" y="446" on="0"/>
        <pt x="428" y="446" on="1"/>
        <pt x="429" y="462" on="1"/>
        <pt x="420" y="462" on="0"/>
        <pt x="405" y="462" on="0"/>
        <pt x="387" y="462" on="0"/>
        <pt x="372" y="462" on="0"/>
        <pt x="362" y="462" on="1"/>
        <pt x="363" y="479" on="1"/>
        <pt x="350" y="479" on="0"/>
        <pt x="326" y="479" on="0"/>
        <pt x="300" y="479" on="0"/>
        <pt x="277" y="479" on="0"/>
        <pt x="263" y="479" on="1"/>
        <pt x="264" y="462" on="1"/>
        <pt x="255" y="462" on="0"/>
        <pt x="239" y="462" on="0"/>
        <pt x="222" y="462" on="0"/>
        <pt x="206" y="462" on="0"/>
        <pt x="197" y="462" on="1"/>
        <pt x="198" y="446" on="1"/>
        <pt x="193" y="446" on="0"/>
        <pt x="186" y="446" on="0"/>
        <pt x="177" y="446" on="0"/>
        <pt x="169" y="446" on="0"/>
        <pt x="164" y="446" on="1"/>
        <pt x="165" y="429" on="1"/>
        <pt x="160" y="429" on="0"/>
        <pt x="153" y="429" on="0"/>
        <pt x="144" y="429" on="0"/>
        <pt x="136" y="429" on="0"/>
        <pt x="131" y="429" on="1"/>
        <pt x="132" y="413" on="1"/>
        <pt x="127" y="413" on="0"/>
        <pt x="120" y="413" on="0"/>
        <pt x="110" y="413" on="0"/>
        <pt x="103" y="413" on="0"/>
        <pt x="98" y="413" on="1"/>
        <pt x="99" y="409" on="0"/>
        <pt x="98" y="401" on="0"/>
        <pt x="99" y="392" on="0"/>
        <pt x="98" y="384" on="0"/>
        <pt x="99" y="380" on="1"/>
        <pt x="94" y="380" on="0"/>
        <pt x="87" y="380" on="0"/>
        <pt x="77" y="380" on="0"/>
        <pt x="70" y="380" on="0"/>
        <pt x="65" y="380" on="1"/>
        <pt x="66" y="376" on="0"/>
        <pt x="65" y="367" on="0"/>
        <pt x="66" y="359" on="0"/>
        <pt x="65" y="351" on="0"/>
        <pt x="66" y="347" on="1"/>
        <pt x="61" y="347" on="0"/>
        <pt x="54" y="347" on="0"/>
        <pt x="44" y="347" on="0"/>
        <pt x="37" y="347" on="0"/>
        <pt x="32" y="347" on="1"/>
        <pt x="33" y="339" on="0"/>
        <pt x="32" y="322" on="0"/>
        <pt x="33" y="306" on="0"/>
        <pt x="32" y="289" on="0"/>
        <pt x="33" y="281" on="1"/>
        <pt x="28" y="281" on="0"/>
        <pt x="21" y="281" on="0"/>
        <pt x="11" y="281" on="0"/>
        <pt x="4" y="281" on="0"/>
        <pt x="-1" y="281" on="1"/>
        <pt x="0" y="266" on="0"/>
        <pt x="-1" y="237" on="0"/>
        <pt x="0" y="209" on="0"/>
        <pt x="-1" y="180" on="0"/>
        <pt x="0" y="165" on="1"/>
        <pt x="49" y="165" on="0"/>
        <pt x="149" y="165" on="0"/>
        <pt x="247" y="165" on="0"/>
        <pt x="347" y="165" on="0"/>
        <pt x="395" y="165" on="1"/>
        <pt x="396" y="151" on="0"/>
        <pt x="395" y="122" on="0"/>
        <pt x="396" y="93" on="0"/>
        <pt x="395" y="64" on="0"/>
        <pt x="396" y="50" on="1"/>
        <pt x="346" y="50" on="0"/>
        <pt x="248" y="50" on="0"/>
        <pt x="148" y="50" on="0"/>
        <pt x="50" y="50" on="0"/>
        <pt x="-1" y="50" on="1"/>
        <pt x="0" y="39" on="0"/>
        <pt x="-1" y="19" on="0"/>
        <pt x="0" y="-2" on="0"/>
        <pt x="-1" y="-23" on="0"/>
        <pt x="0" y="-33" on="1"/>
        <pt x="77" y="-33" on="0"/>
        <pt x="235" y="-33" on="0"/>
        <pt x="391" y="-33" on="0"/>
        <pt x="549" y="-33" on="0"/>
        <pt x="627" y="-33" on="1"/>
        <pt x="628" y="8" on="0"/>
        <pt x="627" y="91" on="0"/>
        <pt x="628" y="173" on="0"/>
        <pt x="627" y="256" on="0"/>
        <pt x="628" y="297" on="1"/>
        <pt x="610" y="297" on="1"/>
      </contour>
      <contour>
        <pt x="396" y="215" on="1"/>
        <pt x="230" y="215" on="1"/>
        <pt x="231" y="380" on="1"/>
        <pt x="263" y="380" on="1"/>
        <pt x="264" y="413" on="1"/>
        <pt x="296" y="413" on="1"/>
        <pt x="297" y="429" on="1"/>
        <pt x="329" y="429" on="1"/>
        <pt x="330" y="413" on="1"/>
        <pt x="362" y="413" on="1"/>
        <pt x="363" y="380" on="1"/>
        <pt x="395" y="380" on="1"/>
        <pt x="396" y="215" on="1"/>
      </contour>
    </TTGlyph>
    <TTGlyph name="o" xMin="0" yMin="-33" xMax="628" yMax="479">
      <contour>
        <pt x="611" y="297" on="1"/>
        <pt x="594" y="297" on="1"/>
        <pt x="595" y="303" on="0"/>
        <pt x="594" y="316" on="0"/>
        <pt x="595" y="328" on="0"/>
        <pt x="594" y="341" on="0"/>
        <pt x="595" y="347" on="1"/>
        <pt x="589" y="347" on="0"/>
        <pt x="582" y="347" on="0"/>
        <pt x="573" y="347" on="0"/>
        <pt x="566" y="347" on="0"/>
        <pt x="561" y="347" on="1"/>
        <pt x="562" y="351" on="0"/>
        <pt x="561" y="359" on="0"/>
        <pt x="562" y="367" on="0"/>
        <pt x="561" y="376" on="0"/>
        <pt x="562" y="380" on="1"/>
        <pt x="556" y="380" on="0"/>
        <pt x="549" y="380" on="0"/>
        <pt x="540" y="380" on="0"/>
        <pt x="533" y="380" on="0"/>
        <pt x="528" y="380" on="1"/>
        <pt x="529" y="384" on="0"/>
        <pt x="528" y="392" on="0"/>
        <pt x="529" y="401" on="0"/>
        <pt x="528" y="409" on="0"/>
        <pt x="529" y="413" on="1"/>
        <pt x="523" y="413" on="0"/>
        <pt x="516" y="413" on="0"/>
        <pt x="507" y="413" on="0"/>
        <pt x="500" y="413" on="0"/>
        <pt x="494" y="413" on="1"/>
        <pt x="495" y="429" on="1"/>
        <pt x="490" y="429" on="0"/>
        <pt x="483" y="429" on="0"/>
        <pt x="474" y="429" on="0"/>
        <pt x="467" y="429" on="0"/>
        <pt x="461" y="429" on="1"/>
        <pt x="462" y="446" on="1"/>
        <pt x="457" y="446" on="0"/>
        <pt x="450" y="446" on="0"/>
        <pt x="441" y="446" on="0"/>
        <pt x="434" y="446" on="0"/>
        <pt x="428" y="446" on="1"/>
        <pt x="429" y="462" on="1"/>
        <pt x="420" y="462" on="0"/>
        <pt x="405" y="462" on="0"/>
        <pt x="387" y="462" on="0"/>
        <pt x="372" y="462" on="0"/>
        <pt x="362" y="462" on="1"/>
        <pt x="363" y="479" on="1"/>
        <pt x="350" y="479" on="0"/>
        <pt x="326" y="479" on="0"/>
        <pt x="300" y="479" on="0"/>
        <pt x="277" y="479" on="0"/>
        <pt x="263" y="479" on="1"/>
        <pt x="264" y="462" on="1"/>
        <pt x="255" y="462" on="0"/>
        <pt x="239" y="462" on="0"/>
        <pt x="222" y="462" on="0"/>
        <pt x="206" y="462" on="0"/>
        <pt x="197" y="462" on="1"/>
        <pt x="198" y="446" on="1"/>
        <pt x="193" y="446" on="0"/>
        <pt x="186" y="446" on="0"/>
        <pt x="177" y="446" on="0"/>
        <pt x="169" y="446" on="0"/>
        <pt x="164" y="446" on="1"/>
        <pt x="165" y="429" on="1"/>
        <pt x="160" y="429" on="0"/>
        <pt x="153" y="429" on="0"/>
        <pt x="144" y="429" on="0"/>
        <pt x="136" y="429" on="0"/>
        <pt x="131" y="429" on="1"/>
        <pt x="132" y="413" on="1"/>
        <pt x="127" y="413" on="0"/>
        <pt x="120" y="413" on="0"/>
        <pt x="110" y="413" on="0"/>
        <pt x="103" y="413" on="0"/>
        <pt x="98" y="413" on="1"/>
        <pt x="99" y="409" on="0"/>
        <pt x="98" y="401" on="0"/>
        <pt x="99" y="392" on="0"/>
        <pt x="98" y="384" on="0"/>
        <pt x="99" y="380" on="1"/>
        <pt x="94" y="380" on="0"/>
        <pt x="87" y="380" on="0"/>
        <pt x="77" y="380" on="0"/>
        <pt x="70" y="380" on="0"/>
        <pt x="65" y="380" on="1"/>
        <pt x="66" y="376" on="0"/>
        <pt x="65" y="367" on="0"/>
        <pt x="66" y="359" on="0"/>
        <pt x="65" y="351" on="0"/>
        <pt x="66" y="347" on="1"/>
        <pt x="61" y="347" on="0"/>
        <pt x="54" y="347" on="0"/>
        <pt x="44" y="347" on="0"/>
        <pt x="37" y="347" on="0"/>
        <pt x="32" y="347" on="1"/>
        <pt x="33" y="339" on="0"/>
        <pt x="32" y="322" on="0"/>
        <pt x="33" y="306" on="0"/>
        <pt x="32" y="289" on="0"/>
        <pt x="33" y="281" on="1"/>
        <pt x="28" y="281" on="0"/>
        <pt x="21" y="281" on="0"/>
        <pt x="11" y="281" on="0"/>
        <pt x="4" y="281" on="0"/>
        <pt x="-1" y="281" on="1"/>
        <pt x="0" y="242" on="0"/>
        <pt x="-1" y="163" on="0"/>
        <pt x="0" y="85" on="0"/>
        <pt x="-1" y="6" on="0"/>
        <pt x="0" y="-33" on="1"/>
        <pt x="77" y="-33" on="0"/>
        <pt x="235" y="-33" on="0"/>
        <pt x="391" y="-33" on="0"/>
        <pt x="549" y="-33" on="0"/>
        <pt x="627" y="-33" on="1"/>
        <pt x="628" y="8" on="0"/>
        <pt x="627" y="91" on="0"/>
        <pt x="628" y="173" on="0"/>
        <pt x="627" y="256" on="0"/>
        <pt x="628" y="297" on="1"/>
        <pt x="610" y="297" on="1"/>
      </contour>
      <contour>
        <pt x="396" y="50" on="1"/>
        <pt x="230" y="50" on="1"/>
        <pt x="231" y="380" on="1"/>
        <pt x="263" y="380" on="1"/>
        <pt x="264" y="413" on="1"/>
        <pt x="296" y="413" on="1"/>
        <pt x="297" y="429" on="1"/>
        <pt x="329" y="429" on="1"/>
        <pt x="330" y="413" on="1"/>
        <pt x="362" y="413" on="1"/>
        <pt x="363" y="380" on="1"/>
        <pt x="395" y="380" on="1"/>
        <pt x="396" y="50" on="1"/>
      </contour>
    </TTGlyph>
    <TTGlyph name="one" xMin="0" yMin="-33" xMax="495" yMax="479">
      <contour>
        <pt x="479" y="50" on="1"/>
        <pt x="465" y="50" on="0"/>
        <pt x="436" y="50" on="0"/>
        <pt x="407" y="50" on="0"/>
        <pt x="378" y="50" on="0"/>
        <pt x="363" y="50" on="1"/>
        <pt x="363" y="103" on="0"/>
        <pt x="363" y="211" on="0"/>
        <pt x="363" y="318" on="0"/>
        <pt x="363" y="425" on="0"/>
        <pt x="363" y="479" on="1"/>
        <pt x="334" y="479" on="0"/>
        <pt x="277" y="479" on="0"/>
        <pt x="219" y="479" on="0"/>
        <pt x="161" y="479" on="0"/>
        <pt x="132" y="479" on="1"/>
        <pt x="132" y="475" on="0"/>
        <pt x="132" y="467" on="0"/>
        <pt x="132" y="458" on="0"/>
        <pt x="132" y="450" on="0"/>
        <pt x="132" y="446" on="1"/>
        <pt x="128" y="446" on="0"/>
        <pt x="120" y="446" on="0"/>
        <pt x="111" y="446" on="0"/>
        <pt x="103" y="446" on="0"/>
        <pt x="99" y="446" on="1"/>
        <pt x="99" y="429" on="1"/>
        <pt x="91" y="429" on="0"/>
        <pt x="74" y="429" on="0"/>
        <pt x="58" y="429" on="0"/>
        <pt x="41" y="429" on="0"/>
        <pt x="33" y="429" on="1"/>
        <pt x="33" y="413" on="1"/>
        <pt x="29" y="413" on="0"/>
        <pt x="21" y="413" on="0"/>
        <pt x="12" y="413" on="0"/>
        <pt x="4" y="413" on="0"/>
        <pt x="0" y="413" on="1"/>
        <pt x="0" y="407" on="0"/>
        <pt x="0" y="394" on="0"/>
        <pt x="0" y="382" on="0"/>
        <pt x="0" y="370" on="0"/>
        <pt x="0" y="363" on="1"/>
        <pt x="17" y="363" on="0"/>
        <pt x="50" y="363" on="0"/>
        <pt x="83" y="363" on="0"/>
        <pt x="116" y="363" on="0"/>
        <pt x="132" y="363" on="1"/>
        <pt x="132" y="324" on="0"/>
        <pt x="132" y="246" on="0"/>
        <pt x="132" y="167" on="0"/>
        <pt x="132" y="89" on="0"/>
        <pt x="132" y="50" on="1"/>
        <pt x="116" y="50" on="0"/>
        <pt x="83" y="50" on="0"/>
        <pt x="50" y="50" on="0"/>
        <pt x="17" y="50" on="0"/>
        <pt x="0" y="50" on="1"/>
        <pt x="0" y="39" on="0"/>
        <pt x="0" y="19" on="0"/>
        <pt x="0" y="-2" on="0"/>
        <pt x="0" y="-23" on="0"/>
        <pt x="0" y="-33" on="1"/>
        <pt x="62" y="-33" on="0"/>
        <pt x="186" y="-33" on="0"/>
        <pt x="310" y="-33" on="0"/>
        <pt x="434" y="-33" on="0"/>
        <pt x="495" y="-33" on="1"/>
        <pt x="495" y="-23" on="0"/>
        <pt x="495" y="-2" on="0"/>
        <pt x="495" y="19" on="0"/>
        <pt x="495" y="39" on="0"/>
        <pt x="495" y="50" on="1"/>
        <pt x="479" y="50" on="1"/>
      </contour>
    </TTGlyph>
    <TTGlyph name="p" xMin="0" yMin="-33" xMax="628" yMax="479">
      <contour>
        <pt x="611" y="297" on="1"/>
        <pt x="594" y="297" on="1"/>
        <pt x="595" y="303" on="0"/>
        <pt x="594" y="316" on="0"/>
        <pt x="595" y="328" on="0"/>
        <pt x="594" y="341" on="0"/>
        <pt x="595" y="347" on="1"/>
        <pt x="589" y="347" on="0"/>
        <pt x="582" y="347" on="0"/>
        <pt x="573" y="347" on="0"/>
        <pt x="566" y="347" on="0"/>
        <pt x="561" y="347" on="1"/>
        <pt x="562" y="351" on="0"/>
        <pt x="561" y="359" on="0"/>
        <pt x="562" y="367" on="0"/>
        <pt x="561" y="376" on="0"/>
        <pt x="562" y="380" on="1"/>
        <pt x="556" y="380" on="0"/>
        <pt x="549" y="380" on="0"/>
        <pt x="540" y="380" on="0"/>
        <pt x="533" y="380" on="0"/>
        <pt x="528" y="380" on="1"/>
        <pt x="529" y="384" on="0"/>
        <pt x="528" y="392" on="0"/>
        <pt x="529" y="401" on="0"/>
        <pt x="528" y="409" on="0"/>
        <pt x="529" y="413" on="1"/>
        <pt x="523" y="413" on="0"/>
        <pt x="516" y="413" on="0"/>
        <pt x="507" y="413" on="0"/>
        <pt x="500" y="413" on="0"/>
        <pt x="494" y="413" on="1"/>
        <pt x="495" y="429" on="1"/>
        <pt x="490" y="429" on="0"/>
        <pt x="483" y="429" on="0"/>
        <pt x="474" y="429" on="0"/>
        <pt x="467" y="429" on="0"/>
        <pt x="461" y="429" on="1"/>
        <pt x="462" y="446" on="1"/>
        <pt x="457" y="446" on="0"/>
        <pt x="450" y="446" on="0"/>
        <pt x="441" y="446" on="0"/>
        <pt x="434" y="446" on="0"/>
        <pt x="428" y="446" on="1"/>
        <pt x="429" y="462" on="1"/>
        <pt x="420" y="462" on="0"/>
        <pt x="405" y="462" on="0"/>
        <pt x="387" y="462" on="0"/>
        <pt x="372" y="462" on="0"/>
        <pt x="362" y="462" on="1"/>
        <pt x="363" y="479" on="1"/>
        <pt x="317" y="479" on="0"/>
        <pt x="227" y="479" on="0"/>
        <pt x="135" y="479" on="0"/>
        <pt x="45" y="479" on="0"/>
        <pt x="-1" y="479" on="1"/>
        <pt x="0" y="415" on="0"/>
        <pt x="-1" y="287" on="0"/>
        <pt x="0" y="159" on="0"/>
        <pt x="-1" y="31" on="0"/>
        <pt x="0" y="-33" on="1"/>
        <pt x="28" y="-33" on="0"/>
        <pt x="87" y="-33" on="0"/>
        <pt x="144" y="-33" on="0"/>
        <pt x="202" y="-33" on="0"/>
        <pt x="230" y="-33" on="1"/>
        <pt x="231" y="-8" on="0"/>
        <pt x="230" y="41" on="0"/>
        <pt x="231" y="91" on="0"/>
        <pt x="230" y="140" on="0"/>
        <pt x="231" y="165" on="1"/>
        <pt x="280" y="165" on="0"/>
        <pt x="380" y="165" on="0"/>
        <pt x="478" y="165" on="0"/>
        <pt x="578" y="165" on="0"/>
        <pt x="627" y="165" on="1"/>
        <pt x="628" y="182" on="0"/>
        <pt x="627" y="215" on="0"/>
        <pt x="628" y="248" on="0"/>
        <pt x="627" y="281" on="0"/>
        <pt x="628" y="297" on="1"/>
        <pt x="610" y="297" on="1"/>
      </contour>
      <contour>
        <pt x="396" y="215" on="1"/>
        <pt x="230" y="215" on="1"/>
        <pt x="231" y="429" on="1"/>
        <pt x="329" y="429" on="1"/>
        <pt x="330" y="413" on="1"/>
        <pt x="362" y="413" on="1"/>
        <pt x="363" y="380" on="1"/>
        <pt x="395" y="380" on="1"/>
        <pt x="396" y="215" on="1"/>
      </contour>
    </TTGlyph>
    <TTGlyph name="period" xMin="0" yMin="-33" xMax="231" yMax="66">
      <contour>
        <pt x="215" y="66" on="1"/>
        <pt x="188" y="66" on="0"/>
        <pt x="134" y="66" on="0"/>
        <pt x="81" y="66" on="0"/>
        <pt x="27" y="66" on="0"/>
        <pt x="0" y="66" on="1"/>
        <pt x="0" y="54" on="0"/>
        <pt x="0" y="29" on="0"/>
        <pt x="0" y="4" on="0"/>
        <pt x="0" y="-21" on="0"/>
        <pt x="0" y="-33" on="1"/>
        <pt x="29" y="-33" on="0"/>
        <pt x="87" y="-33" on="0"/>
        <pt x="145" y="-33" on="0"/>
        <pt x="202" y="-33" on="0"/>
        <pt x="231" y="-33" on="1"/>
        <pt x="231" y="-21" on="0"/>
        <pt x="231" y="4" on="0"/>
        <pt x="231" y="29" on="0"/>
        <pt x="231" y="54" on="0"/>
        <pt x="231" y="66" on="1"/>
        <pt x="215" y="66" on="1"/>
      </contour>
    </TTGlyph>
    <TTGlyph name="q" xMin="0" yMin="-33" xMax="628" yMax="479">
      <contour>
        <pt x="578" y="17" on="1"/>
        <pt x="561" y="17" on="1"/>
        <pt x="562" y="33" on="1"/>
        <pt x="528" y="33" on="1"/>
        <pt x="529" y="50" on="1"/>
        <pt x="494" y="50" on="1"/>
        <pt x="495" y="66" on="1"/>
        <pt x="461" y="66" on="1"/>
        <pt x="462" y="83" on="1"/>
        <pt x="428" y="83" on="1"/>
        <pt x="429" y="99" on="1"/>
        <pt x="395" y="99" on="1"/>
        <pt x="396" y="116" on="1"/>
        <pt x="362" y="116" on="1"/>
        <pt x="363" y="132" on="1"/>
        <pt x="329" y="132" on="1"/>
        <pt x="330" y="116" on="1"/>
        <pt x="296" y="116" on="1"/>
        <pt x="297" y="66" on="1"/>
        <pt x="329" y="66" on="1"/>
        <pt x="330" y="50" on="1"/>
        <pt x="362" y="50" on="1"/>
        <pt x="363" y="33" on="1"/>
        <pt x="395" y="33" on="1"/>
        <pt x="396" y="17" on="1"/>
        <pt x="428" y="17" on="1"/>
        <pt x="429" y="0" on="1"/>
        <pt x="461" y="0" on="1"/>
        <pt x="462" y="-17" on="1"/>
        <pt x="494" y="-17" on="1"/>
        <pt x="495" y="-33" on="1"/>
        <pt x="627" y="-33" on="1"/>
        <pt x="628" y="0" on="1"/>
        <pt x="594" y="0" on="1"/>
        <pt x="595" y="17" on="1"/>
        <pt x="577" y="17" on="1"/>
      </contour>
      <contour>
        <pt x="429" y="-17" on="1"/>
        <pt x="428" y="0" on="1"/>
        <pt x="396" y="0" on="1"/>
        <pt x="395" y="17" on="1"/>
        <pt x="363" y="17" on="1"/>
        <pt x="362" y="33" on="1"/>
        <pt x="330" y="33" on="1"/>
        <pt x="329" y="50" on="1"/>
        <pt x="231" y="50" on="1"/>
        <pt x="230" y="380" on="1"/>
        <pt x="264" y="380" on="1"/>
        <pt x="263" y="413" on="1"/>
        <pt x="297" y="413" on="1"/>
        <pt x="296" y="429" on="1"/>
        <pt x="330" y="429" on="1"/>
        <pt x="329" y="413" on="1"/>
        <pt x="363" y="413" on="1"/>
        <pt x="362" y="380" on="1"/>
        <pt x="396" y="380" on="1"/>
        <pt x="395" y="116" on="1"/>
        <pt x="429" y="116" on="1"/>
        <pt x="428" y="99" on="1"/>
        <pt x="462" y="99" on="1"/>
        <pt x="461" y="83" on="1"/>
        <pt x="495" y="83" on="1"/>
        <pt x="494" y="66" on="1"/>
        <pt x="529" y="66" on="1"/>
        <pt x="528" y="50" on="1"/>
        <pt x="562" y="50" on="1"/>
        <pt x="561" y="33" on="1"/>
        <pt x="595" y="33" on="1"/>
        <pt x="594" y="17" on="1"/>
        <pt x="628" y="17" on="1"/>
        <pt x="627" y="297" on="1"/>
        <pt x="595" y="297" on="1"/>
        <pt x="594" y="347" on="1"/>
        <pt x="562" y="347" on="1"/>
        <pt x="561" y="380" on="1"/>
        <pt x="529" y="380" on="1"/>
        <pt x="528" y="413" on="1"/>
        <pt x="495" y="413" on="1"/>
        <pt x="494" y="429" on="1"/>
        <pt x="462" y="429" on="1"/>
        <pt x="461" y="446" on="1"/>
        <pt x="429" y="446" on="1"/>
        <pt x="428" y="462" on="1"/>
        <pt x="363" y="462" on="1"/>
        <pt x="362" y="479" on="1"/>
        <pt x="264" y="479" on="1"/>
        <pt x="263" y="462" on="1"/>
        <pt x="198" y="462" on="1"/>
        <pt x="197" y="446" on="1"/>
        <pt x="165" y="446" on="1"/>
        <pt x="164" y="429" on="1"/>
        <pt x="132" y="429" on="1"/>
        <pt x="131" y="413" on="1"/>
        <pt x="99" y="413" on="1"/>
        <pt x="98" y="380" on="1"/>
        <pt x="66" y="380" on="1"/>
        <pt x="65" y="347" on="1"/>
        <pt x="33" y="347" on="1"/>
        <pt x="32" y="281" on="1"/>
        <pt x="0" y="281" on="1"/>
        <pt x="-1" y="-33" on="1"/>
        <pt x="462" y="-33" on="1"/>
        <pt x="461" y="-17" on="1"/>
        <pt x="429" y="-17" on="1"/>
      </contour>
    </TTGlyph>
    <TTGlyph name="question" xMin="0" yMin="-33" xMax="628" yMax="479">
      <contour>
        <pt x="611" y="297" on="1"/>
        <pt x="594" y="297" on="1"/>
        <pt x="595" y="303" on="0"/>
        <pt x="594" y="316" on="0"/>
        <pt x="595" y="328" on="0"/>
        <pt x="594" y="341" on="0"/>
        <pt x="595" y="347" on="1"/>
        <pt x="589" y="347" on="0"/>
        <pt x="582" y="347" on="0"/>
        <pt x="573" y="347" on="0"/>
        <pt x="566" y="347" on="0"/>
        <pt x="561" y="347" on="1"/>
        <pt x="562" y="351" on="0"/>
        <pt x="561" y="359" on="0"/>
        <pt x="562" y="367" on="0"/>
        <pt x="561" y="376" on="0"/>
        <pt x="562" y="380" on="1"/>
        <pt x="556" y="380" on="0"/>
        <pt x="549" y="380" on="0"/>
        <pt x="540" y="380" on="0"/>
        <pt x="533" y="380" on="0"/>
        <pt x="528" y="380" on="1"/>
        <pt x="529" y="384" on="0"/>
        <pt x="528" y="392" on="0"/>
        <pt x="529" y="401" on="0"/>
        <pt x="528" y="409" on="0"/>
        <pt x="529" y="413" on="1"/>
        <pt x="523" y="413" on="0"/>
        <pt x="516" y="413" on="0"/>
        <pt x="507" y="413" on="0"/>
        <pt x="500" y="413" on="0"/>
        <pt x="494" y="413" on="1"/>
        <pt x="495" y="429" on="1"/>
        <pt x="490" y="429" on="0"/>
        <pt x="483" y="429" on="0"/>
        <pt x="474" y="429" on="0"/>
        <pt x="467" y="429" on="0"/>
        <pt x="461" y="429" on="1"/>
        <pt x="462" y="446" on="1"/>
        <pt x="457" y="446" on="0"/>
        <pt x="450" y="446" on="0"/>
        <pt x="441" y="446" on="0"/>
        <pt x="434" y="446" on="0"/>
        <pt x="428" y="446" on="1"/>
        <pt x="429" y="462" on="1"/>
        <pt x="420" y="462" on="0"/>
        <pt x="405" y="462" on="0"/>
        <pt x="387" y="462" on="0"/>
        <pt x="372" y="462" on="0"/>
        <pt x="362" y="462" on="1"/>
        <pt x="363" y="479" on="1"/>
        <pt x="317" y="479" on="0"/>
        <pt x="227" y="479" on="0"/>
        <pt x="135" y="479" on="0"/>
        <pt x="45" y="479" on="0"/>
        <pt x="-1" y="479" on="1"/>
        <pt x="0" y="473" on="0"/>
        <pt x="-1" y="460" on="0"/>
        <pt x="0" y="448" on="0"/>
        <pt x="-1" y="436" on="0"/>
        <pt x="0" y="429" on="1"/>
        <pt x="40" y="429" on="0"/>
        <pt x="124" y="429" on="0"/>
        <pt x="205" y="429" on="0"/>
        <pt x="289" y="429" on="0"/>
        <pt x="329" y="429" on="1"/>
        <pt x="330" y="413" on="1"/>
        <pt x="333" y="413" on="0"/>
        <pt x="343" y="413" on="0"/>
        <pt x="350" y="413" on="0"/>
        <pt x="359" y="413" on="0"/>
        <pt x="362" y="413" on="1"/>
        <pt x="363" y="409" on="0"/>
        <pt x="362" y="401" on="0"/>
        <pt x="363" y="392" on="0"/>
        <pt x="362" y="384" on="0"/>
        <pt x="363" y="380" on="1"/>
        <pt x="366" y="380" on="0"/>
        <pt x="376" y="380" on="0"/>
        <pt x="383" y="380" on="0"/>
        <pt x="392" y="380" on="0"/>
        <pt x="395" y="380" on="1"/>
        <pt x="396" y="359" on="0"/>
        <pt x="395" y="318" on="0"/>
        <pt x="396" y="277" on="0"/>
        <pt x="395" y="235" on="0"/>
        <pt x="396" y="215" on="1"/>
        <pt x="379" y="215" on="0"/>
        <pt x="347" y="215" on="0"/>
        <pt x="313" y="215" on="0"/>
        <pt x="281" y="215" on="0"/>
        <pt x="263" y="215" on="1"/>
        <pt x="264" y="198" on="1"/>
        <pt x="259" y="198" on="0"/>
        <pt x="252" y="198" on="0"/>
        <pt x="243" y="198" on="0"/>
        <pt x="235" y="198" on="0"/>
        <pt x="230" y="198" on="1"/>
        <pt x="231" y="182" on="1"/>
        <pt x="226" y="182" on="0"/>
        <pt x="219" y="182" on="0"/>
        <pt x="210" y="182" on="0"/>
        <pt x="202" y="182" on="0"/>
        <pt x="197" y="182" on="1"/>
        <pt x="198" y="165" on="1"/>
        <pt x="193" y="165" on="0"/>
        <pt x="186" y="165" on="0"/>
        <pt x="177" y="165" on="0"/>
        <pt x="169" y="165" on="0"/>
        <pt x="164" y="165" on="1"/>
        <pt x="165" y="161" on="0"/>
        <pt x="164" y="153" on="0"/>
        <pt x="165" y="145" on="0"/>
        <pt x="164" y="136" on="0"/>
        <pt x="165" y="132" on="1"/>
        <pt x="160" y="132" on="0"/>
        <pt x="153" y="132" on="0"/>
        <pt x="144" y="132" on="0"/>
        <pt x="136" y="132" on="0"/>
        <pt x="131" y="132" on="1"/>
        <pt x="132" y="126" on="0"/>
        <pt x="131" y="114" on="0"/>
        <pt x="132" y="101" on="0"/>
        <pt x="131" y="89" on="0"/>
        <pt x="132" y="83" on="1"/>
        <pt x="160" y="83" on="0"/>
        <pt x="219" y="83" on="0"/>
        <pt x="276" y="83" on="0"/>
        <pt x="334" y="83" on="0"/>
        <pt x="362" y="83" on="1"/>
        <pt x="363" y="91" on="0"/>
        <pt x="362" y="107" on="0"/>
        <pt x="363" y="124" on="0"/>
        <pt x="362" y="140" on="0"/>
        <pt x="363" y="149" on="1"/>
        <pt x="366" y="149" on="0"/>
        <pt x="376" y="149" on="0"/>
        <pt x="383" y="149" on="0"/>
        <pt x="392" y="149" on="0"/>
        <pt x="395" y="149" on="1"/>
        <pt x="396" y="165" on="1"/>
        <pt x="424" y="165" on="0"/>
        <pt x="483" y="165" on="0"/>
        <pt x="540" y="165" on="0"/>
        <pt x="599" y="165" on="0"/>
        <pt x="627" y="165" on="1"/>
        <pt x="628" y="182" on="0"/>
        <pt x="627" y="215" on="0"/>
        <pt x="628" y="248" on="0"/>
        <pt x="627" y="281" on="0"/>
        <pt x="628" y="297" on="1"/>
        <pt x="610" y="297" on="1"/>
      </contour>
      <contour>
        <pt x="330" y="66" on="1"/>
        <pt x="305" y="66" on="0"/>
        <pt x="256" y="66" on="0"/>
        <pt x="205" y="66" on="0"/>
        <pt x="157" y="66" on="0"/>
        <pt x="131" y="66" on="1"/>
        <pt x="132" y="54" on="0"/>
        <pt x="131" y="29" on="0"/>
        <pt x="132" y="4" on="0"/>
        <pt x="131" y="-21" on="0"/>
        <pt x="132" y="-33" on="1"/>
        <pt x="160" y="-33" on="0"/>
        <pt x="219" y="-33" on="0"/>
        <pt x="276" y="-33" on="0"/>
        <pt x="334" y="-33" on="0"/>
        <pt x="362" y="-33" on="1"/>
        <pt x="363" y="-21" on="0"/>
        <pt x="362" y="4" on="0"/>
        <pt x="363" y="29" on="0"/>
        <pt x="362" y="54" on="0"/>
        <pt x="363" y="66" on="1"/>
        <pt x="358" y="66" on="0"/>
        <pt x="351" y="66" on="0"/>
        <pt x="342" y="66" on="0"/>
        <pt x="334" y="66" on="0"/>
        <pt x="329" y="66" on="1"/>
        <pt x="330" y="66" on="1"/>
      </contour>
    </TTGlyph>
    <TTGlyph name="quotedbl" xMin="0" yMin="396" xMax="495" yMax="462">
      <contour>
        <pt x="198" y="462" on="1"/>
        <pt x="173" y="462" on="0"/>
        <pt x="124" y="462" on="0"/>
        <pt x="74" y="462" on="0"/>
        <pt x="25" y="462" on="0"/>
        <pt x="0" y="462" on="1"/>
        <pt x="0" y="454" on="0"/>
        <pt x="0" y="438" on="0"/>
        <pt x="0" y="421" on="0"/>
        <pt x="0" y="405" on="0"/>
        <pt x="0" y="396" on="1"/>
        <pt x="29" y="396" on="0"/>
        <pt x="87" y="396" on="0"/>
        <pt x="145" y="396" on="0"/>
        <pt x="202" y="396" on="0"/>
        <pt x="231" y="396" on="1"/>
        <pt x="231" y="405" on="0"/>
        <pt x="231" y="421" on="0"/>
        <pt x="231" y="438" on="0"/>
        <pt x="231" y="454" on="0"/>
        <pt x="231" y="462" on="1"/>
        <pt x="227" y="462" on="0"/>
        <pt x="219" y="462" on="0"/>
        <pt x="211" y="462" on="0"/>
        <pt x="202" y="462" on="0"/>
        <pt x="198" y="462" on="1"/>
        <pt x="198" y="462" on="1"/>
      </contour>
      <contour>
        <pt x="479" y="462" on="1"/>
        <pt x="452" y="462" on="0"/>
        <pt x="398" y="462" on="0"/>
        <pt x="345" y="462" on="0"/>
        <pt x="291" y="462" on="0"/>
        <pt x="264" y="462" on="1"/>
        <pt x="264" y="454" on="0"/>
        <pt x="264" y="438" on="0"/>
        <pt x="264" y="421" on="0"/>
        <pt x="264" y="405" on="0"/>
        <pt x="264" y="396" on="1"/>
        <pt x="293" y="396" on="0"/>
        <pt x="351" y="396" on="0"/>
        <pt x="409" y="396" on="0"/>
        <pt x="467" y="396" on="0"/>
        <pt x="495" y="396" on="1"/>
        <pt x="495" y="405" on="0"/>
        <pt x="495" y="421" on="0"/>
        <pt x="495" y="438" on="0"/>
        <pt x="495" y="454" on="0"/>
        <pt x="495" y="462" on="1"/>
        <pt x="479" y="462" on="1"/>
      </contour>
    </TTGlyph>
    <TTGlyph name="quotesingle" xMin="0" yMin="330" xMax="231" yMax="462">
      <contour>
        <pt x="215" y="462" on="1"/>
        <pt x="196" y="462" on="0"/>
        <pt x="159" y="462" on="0"/>
        <pt x="122" y="462" on="0"/>
        <pt x="85" y="462" on="0"/>
        <pt x="66" y="462" on="1"/>
        <pt x="66" y="446" on="1"/>
        <pt x="62" y="446" on="0"/>
        <pt x="54" y="446" on="0"/>
        <pt x="45" y="446" on="0"/>
        <pt x="37" y="446" on="0"/>
        <pt x="33" y="446" on="1"/>
        <pt x="33" y="440" on="0"/>
        <pt x="33" y="427" on="0"/>
        <pt x="33" y="415" on="0"/>
        <pt x="33" y="403" on="0"/>
        <pt x="33" y="396" on="1"/>
        <pt x="29" y="396" on="0"/>
        <pt x="21" y="396" on="0"/>
        <pt x="12" y="396" on="0"/>
        <pt x="4" y="396" on="0"/>
        <pt x="0" y="396" on="1"/>
        <pt x="0" y="388" on="0"/>
        <pt x="0" y="372" on="0"/>
        <pt x="0" y="355" on="0"/>
        <pt x="0" y="339" on="0"/>
        <pt x="0" y="330" on="1"/>
        <pt x="17" y="330" on="0"/>
        <pt x="50" y="330" on="0"/>
        <pt x="83" y="330" on="0"/>
        <pt x="116" y="330" on="0"/>
        <pt x="132" y="330" on="1"/>
        <pt x="132" y="334" on="0"/>
        <pt x="132" y="343" on="0"/>
        <pt x="132" y="351" on="0"/>
        <pt x="132" y="359" on="0"/>
        <pt x="132" y="363" on="1"/>
        <pt x="136" y="363" on="0"/>
        <pt x="145" y="363" on="0"/>
        <pt x="153" y="363" on="0"/>
        <pt x="161" y="363" on="0"/>
        <pt x="165" y="363" on="1"/>
        <pt x="165" y="380" on="1"/>
        <pt x="169" y="380" on="0"/>
        <pt x="178" y="380" on="0"/>
        <pt x="186" y="380" on="0"/>
        <pt x="194" y="380" on="0"/>
        <pt x="198" y="380" on="1"/>
        <pt x="198" y="384" on="0"/>
        <pt x="198" y="392" on="0"/>
        <pt x="198" y="401" on="0"/>
        <pt x="198" y="409" on="0"/>
        <pt x="198" y="413" on="1"/>
        <pt x="202" y="413" on="0"/>
        <pt x="211" y="413" on="0"/>
        <pt x="219" y="413" on="0"/>
        <pt x="227" y="413" on="0"/>
        <pt x="231" y="413" on="1"/>
        <pt x="231" y="419" on="0"/>
        <pt x="231" y="431" on="0"/>
        <pt x="231" y="444" on="0"/>
        <pt x="231" y="456" on="0"/>
        <pt x="231" y="462" on="1"/>
        <pt x="215" y="462" on="1"/>
      </contour>
    </TTGlyph>
    <TTGlyph name="r" xMin="0" yMin="-33" xMax="628" yMax="479">
      <contour>
        <pt x="628" y="165" on="1"/>
        <pt x="628" y="182" on="0"/>
        <pt x="628" y="215" on="0"/>
        <pt x="628" y="248" on="0"/>
        <pt x="628" y="281" on="0"/>
        <pt x="628" y="297" on="1"/>
        <pt x="595" y="297" on="1"/>
        <pt x="595" y="303" on="0"/>
        <pt x="595" y="316" on="0"/>
        <pt x="595" y="328" on="0"/>
        <pt x="595" y="341" on="0"/>
        <pt x="595" y="347" on="1"/>
        <pt x="590" y="347" on="0"/>
        <pt x="582" y="347" on="0"/>
        <pt x="574" y="347" on="0"/>
        <pt x="566" y="347" on="0"/>
        <pt x="562" y="347" on="1"/>
        <pt x="562" y="351" on="0"/>
        <pt x="562" y="359" on="0"/>
        <pt x="562" y="367" on="0"/>
        <pt x="562" y="376" on="0"/>
        <pt x="562" y="380" on="1"/>
        <pt x="557" y="380" on="0"/>
        <pt x="549" y="380" on="0"/>
        <pt x="541" y="380" on="0"/>
        <pt x="533" y="380" on="0"/>
        <pt x="529" y="380" on="1"/>
        <pt x="529" y="384" on="0"/>
        <pt x="529" y="392" on="0"/>
        <pt x="529" y="401" on="0"/>
        <pt x="529" y="409" on="0"/>
        <pt x="529" y="413" on="1"/>
        <pt x="524" y="413" on="0"/>
        <pt x="516" y="413" on="0"/>
        <pt x="508" y="413" on="0"/>
        <pt x="500" y="413" on="0"/>
        <pt x="495" y="413" on="1"/>
        <pt x="495" y="429" on="1"/>
        <pt x="491" y="429" on="0"/>
        <pt x="483" y="429" on="0"/>
        <pt x="475" y="429" on="0"/>
        <pt x="467" y="429" on="0"/>
        <pt x="462" y="429" on="1"/>
        <pt x="462" y="446" on="1"/>
        <pt x="458" y="446" on="0"/>
        <pt x="450" y="446" on="0"/>
        <pt x="442" y="446" on="0"/>
        <pt x="434" y="446" on="0"/>
        <pt x="429" y="446" on="1"/>
        <pt x="429" y="462" on="1"/>
        <pt x="421" y="462" on="0"/>
        <pt x="405" y="462" on="0"/>
        <pt x="388" y="462" on="0"/>
        <pt x="372" y="462" on="0"/>
        <pt x="363" y="462" on="1"/>
        <pt x="363" y="479" on="1"/>
        <pt x="318" y="479" on="0"/>
        <pt x="227" y="479" on="0"/>
        <pt x="136" y="479" on="0"/>
        <pt x="45" y="479" on="0"/>
        <pt x="0" y="479" on="1"/>
        <pt x="0" y="415" on="0"/>
        <pt x="0" y="287" on="0"/>
        <pt x="0" y="159" on="0"/>
        <pt x="0" y="31" on="0"/>
        <pt x="0" y="-33" on="1"/>
        <pt x="29" y="-33" on="0"/>
        <pt x="87" y="-33" on="0"/>
        <pt x="145" y="-33" on="0"/>
        <pt x="202" y="-33" on="0"/>
        <pt x="231" y="-33" on="1"/>
        <pt x="231" y="-8" on="0"/>
        <pt x="231" y="41" on="0"/>
        <pt x="231" y="91" on="0"/>
        <pt x="231" y="140" on="0"/>
        <pt x="231" y="165" on="1"/>
        <pt x="235" y="165" on="0"/>
        <pt x="244" y="165" on="0"/>
        <pt x="252" y="165" on="0"/>
        <pt x="260" y="165" on="0"/>
        <pt x="264" y="165" on="1"/>
        <pt x="264" y="159" on="0"/>
        <pt x="264" y="147" on="0"/>
        <pt x="264" y="134" on="0"/>
        <pt x="264" y="122" on="0"/>
        <pt x="264" y="116" on="1"/>
        <pt x="268" y="116" on="0"/>
        <pt x="277" y="116" on="0"/>
        <pt x="285" y="116" on="0"/>
        <pt x="293" y="116" on="0"/>
        <pt x="297" y="116" on="1"/>
        <pt x="297" y="111" on="0"/>
        <pt x="297" y="103" on="0"/>
        <pt x="297" y="95" on="0"/>
        <pt x="297" y="87" on="0"/>
        <pt x="297" y="83" on="1"/>
        <pt x="301" y="83" on="0"/>
        <pt x="310" y="83" on="0"/>
        <pt x="318" y="83" on="0"/>
        <pt x="326" y="83" on="0"/>
        <pt x="330" y="83" on="1"/>
        <pt x="330" y="76" on="0"/>
        <pt x="330" y="64" on="0"/>
        <pt x="330" y="52" on="0"/>
        <pt x="330" y="39" on="0"/>
        <pt x="330" y="33" on="1"/>
        <pt x="334" y="33" on="0"/>
        <pt x="343" y="33" on="0"/>
        <pt x="351" y="33" on="0"/>
        <pt x="359" y="33" on="0"/>
        <pt x="363" y="33" on="1"/>
        <pt x="363" y="29" on="0"/>
        <pt x="363" y="21" on="0"/>
        <pt x="363" y="12" on="0"/>
        <pt x="363" y="4" on="0"/>
        <pt x="363" y="0" on="1"/>
        <pt x="367" y="0" on="0"/>
        <pt x="376" y="0" on="0"/>
        <pt x="384" y="0" on="0"/>
        <pt x="392" y="0" on="0"/>
        <pt x="396" y="0" on="1"/>
        <pt x="396" y="-4" on="0"/>
        <pt x="396" y="-12" on="0"/>
        <pt x="396" y="-21" on="0"/>
        <pt x="396" y="-29" on="0"/>
        <pt x="396" y="-33" on="1"/>
        <pt x="425" y="-33" on="0"/>
        <pt x="483" y="-33" on="0"/>
        <pt x="541" y="-33" on="0"/>
        <pt x="599" y="-33" on="0"/>
        <pt x="628" y="-33" on="1"/>
        <pt x="628" y="-25" on="0"/>
        <pt x="628" y="-8" on="0"/>
        <pt x="628" y="8" on="0"/>
        <pt x="628" y="25" on="0"/>
        <pt x="628" y="33" on="1"/>
        <pt x="623" y="33" on="0"/>
        <pt x="615" y="33" on="0"/>
        <pt x="607" y="33" on="0"/>
        <pt x="599" y="33" on="0"/>
        <pt x="595" y="33" on="1"/>
        <pt x="595" y="50" on="1"/>
        <pt x="590" y="50" on="0"/>
        <pt x="582" y="50" on="0"/>
        <pt x="574" y="50" on="0"/>
        <pt x="566" y="50" on="0"/>
        <pt x="562" y="50" on="1"/>
        <pt x="562" y="66" on="1"/>
        <pt x="557" y="66" on="0"/>
        <pt x="549" y="66" on="0"/>
        <pt x="541" y="66" on="0"/>
        <pt x="533" y="66" on="0"/>
        <pt x="529" y="66" on="1"/>
        <pt x="529" y="83" on="1"/>
        <pt x="524" y="83" on="0"/>
        <pt x="516" y="83" on="0"/>
        <pt x="508" y="83" on="0"/>
        <pt x="500" y="83" on="0"/>
        <pt x="495" y="83" on="1"/>
        <pt x="495" y="99" on="1"/>
        <pt x="491" y="99" on="0"/>
        <pt x="483" y="99" on="0"/>
        <pt x="475" y="99" on="0"/>
        <pt x="467" y="99" on="0"/>
        <pt x="462" y="99" on="1"/>
        <pt x="462" y="116" on="1"/>
        <pt x="458" y="116" on="0"/>
        <pt x="450" y="116" on="0"/>
        <pt x="442" y="116" on="0"/>
        <pt x="434" y="116" on="0"/>
        <pt x="429" y="116" on="1"/>
        <pt x="429" y="132" on="1"/>
        <pt x="425" y="132" on="0"/>
        <pt x="417" y="132" on="0"/>
        <pt x="409" y="132" on="0"/>
        <pt x="401" y="132" on="0"/>
        <pt x="396" y="132" on="1"/>
        <pt x="396" y="149" on="1"/>
        <pt x="392" y="149" on="0"/>
        <pt x="384" y="149" on="0"/>
        <pt x="376" y="149" on="0"/>
        <pt x="367" y="149" on="0"/>
        <pt x="363" y="149" on="1"/>
        <pt x="363" y="165" on="1"/>
        <pt x="396" y="165" on="0"/>
        <pt x="462" y="165" on="0"/>
        <pt x="529" y="165" on="0"/>
        <pt x="595" y="165" on="0"/>
        <pt x="628" y="165" on="1"/>
      </contour>
      <contour>
        <pt x="264" y="215" on="1"/>
        <pt x="231" y="215" on="1"/>
        <pt x="231" y="429" on="1"/>
        <pt x="330" y="429" on="1"/>
        <pt x="330" y="413" on="1"/>
        <pt x="363" y="413" on="1"/>
        <pt x="363" y="380" on="1"/>
        <pt x="396" y="380" on="1"/>
        <pt x="396" y="215" on="1"/>
        <pt x="264" y="215" on="1"/>
      </contour>
    </TTGlyph>
    <TTGlyph name="s" xMin="0" yMin="-33" xMax="628" yMax="479">
      <contour>
        <pt x="611" y="116" on="1"/>
        <pt x="594" y="116" on="1"/>
        <pt x="595" y="120" on="0"/>
        <pt x="594" y="128" on="0"/>
        <pt x="595" y="136" on="0"/>
        <pt x="594" y="145" on="0"/>
        <pt x="595" y="149" on="1"/>
        <pt x="589" y="149" on="0"/>
        <pt x="582" y="149" on="0"/>
        <pt x="573" y="149" on="0"/>
        <pt x="566" y="149" on="0"/>
        <pt x="561" y="149" on="1"/>
        <pt x="562" y="165" on="1"/>
        <pt x="556" y="165" on="0"/>
        <pt x="549" y="165" on="0"/>
        <pt x="540" y="165" on="0"/>
        <pt x="533" y="165" on="0"/>
        <pt x="528" y="165" on="1"/>
        <pt x="529" y="182" on="1"/>
        <pt x="523" y="182" on="0"/>
        <pt x="516" y="182" on="0"/>
        <pt x="507" y="182" on="0"/>
        <pt x="500" y="182" on="0"/>
        <pt x="494" y="182" on="1"/>
        <pt x="495" y="198" on="1"/>
        <pt x="486" y="198" on="0"/>
        <pt x="471" y="198" on="0"/>
        <pt x="453" y="198" on="0"/>
        <pt x="438" y="198" on="0"/>
        <pt x="428" y="198" on="1"/>
        <pt x="429" y="215" on="1"/>
        <pt x="404" y="215" on="0"/>
        <pt x="355" y="215" on="0"/>
        <pt x="305" y="215" on="0"/>
        <pt x="256" y="215" on="0"/>
        <pt x="230" y="215" on="1"/>
        <pt x="231" y="235" on="0"/>
        <pt x="230" y="277" on="0"/>
        <pt x="231" y="318" on="0"/>
        <pt x="230" y="359" on="0"/>
        <pt x="231" y="380" on="1"/>
        <pt x="234" y="380" on="0"/>
        <pt x="244" y="380" on="0"/>
        <pt x="251" y="380" on="0"/>
        <pt x="260" y="380" on="0"/>
        <pt x="263" y="380" on="1"/>
        <pt x="264" y="384" on="0"/>
        <pt x="263" y="392" on="0"/>
        <pt x="264" y="401" on="0"/>
        <pt x="263" y="409" on="0"/>
        <pt x="264" y="413" on="1"/>
        <pt x="267" y="413" on="0"/>
        <pt x="277" y="413" on="0"/>
        <pt x="284" y="413" on="0"/>
        <pt x="293" y="413" on="0"/>
        <pt x="296" y="413" on="1"/>
        <pt x="297" y="429" on="1"/>
        <pt x="317" y="429" on="0"/>
        <pt x="359" y="429" on="0"/>
        <pt x="400" y="429" on="0"/>
        <pt x="442" y="429" on="0"/>
        <pt x="461" y="429" on="1"/>
        <pt x="462" y="436" on="0"/>
        <pt x="461" y="448" on="0"/>
        <pt x="462" y="460" on="0"/>
        <pt x="461" y="473" on="0"/>
        <pt x="462" y="479" on="1"/>
        <pt x="437" y="479" on="0"/>
        <pt x="388" y="479" on="0"/>
        <pt x="338" y="479" on="0"/>
        <pt x="289" y="479" on="0"/>
        <pt x="263" y="479" on="1"/>
        <pt x="264" y="462" on="1"/>
        <pt x="255" y="462" on="0"/>
        <pt x="239" y="462" on="0"/>
        <pt x="222" y="462" on="0"/>
        <pt x="206" y="462" on="0"/>
        <pt x="197" y="462" on="1"/>
        <pt x="198" y="446" on="1"/>
        <pt x="193" y="446" on="0"/>
        <pt x="186" y="446" on="0"/>
        <pt x="177" y="446" on="0"/>
        <pt x="169" y="446" on="0"/>
        <pt x="164" y="446" on="1"/>
        <pt x="165" y="429" on="1"/>
        <pt x="160" y="429" on="0"/>
        <pt x="153" y="429" on="0"/>
        <pt x="144" y="429" on="0"/>
        <pt x="136" y="429" on="0"/>
        <pt x="131" y="429" on="1"/>
        <pt x="132" y="413" on="1"/>
        <pt x="127" y="413" on="0"/>
        <pt x="120" y="413" on="0"/>
        <pt x="110" y="413" on="0"/>
        <pt x="103" y="413" on="0"/>
        <pt x="98" y="413" on="1"/>
        <pt x="99" y="409" on="0"/>
        <pt x="98" y="401" on="0"/>
        <pt x="99" y="392" on="0"/>
        <pt x="98" y="384" on="0"/>
        <pt x="99" y="380" on="1"/>
        <pt x="94" y="380" on="0"/>
        <pt x="87" y="380" on="0"/>
        <pt x="77" y="380" on="0"/>
        <pt x="70" y="380" on="0"/>
        <pt x="65" y="380" on="1"/>
        <pt x="66" y="376" on="0"/>
        <pt x="65" y="367" on="0"/>
        <pt x="66" y="359" on="0"/>
        <pt x="65" y="351" on="0"/>
        <pt x="66" y="347" on="1"/>
        <pt x="61" y="347" on="0"/>
        <pt x="54" y="347" on="0"/>
        <pt x="44" y="347" on="0"/>
        <pt x="37" y="347" on="0"/>
        <pt x="32" y="347" on="1"/>
        <pt x="33" y="339" on="0"/>
        <pt x="32" y="322" on="0"/>
        <pt x="33" y="306" on="0"/>
        <pt x="32" y="289" on="0"/>
        <pt x="33" y="281" on="1"/>
        <pt x="28" y="281" on="0"/>
        <pt x="21" y="281" on="0"/>
        <pt x="11" y="281" on="0"/>
        <pt x="4" y="281" on="0"/>
        <pt x="-1" y="281" on="1"/>
        <pt x="0" y="266" on="0"/>
        <pt x="-1" y="237" on="0"/>
        <pt x="0" y="209" on="0"/>
        <pt x="-1" y="180" on="0"/>
        <pt x="0" y="165" on="1"/>
        <pt x="40" y="165" on="0"/>
        <pt x="124" y="165" on="0"/>
        <pt x="205" y="165" on="0"/>
        <pt x="289" y="165" on="0"/>
        <pt x="329" y="165" on="1"/>
        <pt x="330" y="149" on="1"/>
        <pt x="333" y="149" on="0"/>
        <pt x="343" y="149" on="0"/>
        <pt x="350" y="149" on="0"/>
        <pt x="359" y="149" on="0"/>
        <pt x="362" y="149" on="1"/>
        <pt x="363" y="145" on="0"/>
        <pt x="362" y="136" on="0"/>
        <pt x="363" y="128" on="0"/>
        <pt x="362" y="120" on="0"/>
        <pt x="363" y="116" on="1"/>
        <pt x="366" y="116" on="0"/>
        <pt x="376" y="116" on="0"/>
        <pt x="383" y="116" on="0"/>
        <pt x="392" y="116" on="0"/>
        <pt x="395" y="116" on="1"/>
        <pt x="396" y="107" on="0"/>
        <pt x="395" y="91" on="0"/>
        <pt x="396" y="74" on="0"/>
        <pt x="395" y="58" on="0"/>
        <pt x="396" y="50" on="1"/>
        <pt x="346" y="50" on="0"/>
        <pt x="248" y="50" on="0"/>
        <pt x="148" y="50" on="0"/>
        <pt x="50" y="50" on="0"/>
        <pt x="-1" y="50" on="1"/>
        <pt x="0" y="39" on="0"/>
        <pt x="-1" y="19" on="0"/>
        <pt x="0" y="-2" on="0"/>
        <pt x="-1" y="-23" on="0"/>
        <pt x="0" y="-33" on="1"/>
        <pt x="77" y="-33" on="0"/>
        <pt x="235" y="-33" on="0"/>
        <pt x="391" y="-33" on="0"/>
        <pt x="549" y="-33" on="0"/>
        <pt x="627" y="-33" on="1"/>
        <pt x="628" y="-14" on="0"/>
        <pt x="627" y="23" on="0"/>
        <pt x="628" y="60" on="0"/>
        <pt x="627" y="97" on="0"/>
        <pt x="628" y="116" on="1"/>
        <pt x="610" y="116" on="1"/>
      </contour>
    </TTGlyph>
    <TTGlyph name="seven" xMin="0" yMin="-33" xMax="628" yMax="479">
      <contour>
        <pt x="611" y="479" on="1"/>
        <pt x="535" y="479" on="0"/>
        <pt x="382" y="479" on="0"/>
        <pt x="229" y="479" on="0"/>
        <pt x="76" y="479" on="0"/>
        <pt x="0" y="479" on="1"/>
        <pt x="0" y="473" on="0"/>
        <pt x="0" y="460" on="0"/>
        <pt x="0" y="448" on="0"/>
        <pt x="0" y="436" on="0"/>
        <pt x="0" y="429" on="1"/>
        <pt x="50" y="429" on="0"/>
        <pt x="149" y="429" on="0"/>
        <pt x="248" y="429" on="0"/>
        <pt x="347" y="429" on="0"/>
        <pt x="396" y="429" on="1"/>
        <pt x="396" y="425" on="0"/>
        <pt x="396" y="417" on="0"/>
        <pt x="396" y="409" on="0"/>
        <pt x="396" y="401" on="0"/>
        <pt x="396" y="396" on="1"/>
        <pt x="392" y="396" on="0"/>
        <pt x="384" y="396" on="0"/>
        <pt x="376" y="396" on="0"/>
        <pt x="367" y="396" on="0"/>
        <pt x="363" y="396" on="1"/>
        <pt x="363" y="392" on="0"/>
        <pt x="363" y="384" on="0"/>
        <pt x="363" y="376" on="0"/>
        <pt x="363" y="367" on="0"/>
        <pt x="363" y="363" on="1"/>
        <pt x="359" y="363" on="0"/>
        <pt x="351" y="363" on="0"/>
        <pt x="343" y="363" on="0"/>
        <pt x="334" y="363" on="0"/>
        <pt x="330" y="363" on="1"/>
        <pt x="330" y="359" on="0"/>
        <pt x="330" y="351" on="0"/>
        <pt x="330" y="343" on="0"/>
        <pt x="330" y="334" on="0"/>
        <pt x="330" y="330" on="1"/>
        <pt x="326" y="330" on="0"/>
        <pt x="318" y="330" on="0"/>
        <pt x="310" y="330" on="0"/>
        <pt x="301" y="330" on="0"/>
        <pt x="297" y="330" on="1"/>
        <pt x="297" y="326" on="0"/>
        <pt x="297" y="318" on="0"/>
        <pt x="297" y="310" on="0"/>
        <pt x="297" y="301" on="0"/>
        <pt x="297" y="297" on="1"/>
        <pt x="293" y="297" on="0"/>
        <pt x="285" y="297" on="0"/>
        <pt x="277" y="297" on="0"/>
        <pt x="268" y="297" on="0"/>
        <pt x="264" y="297" on="1"/>
        <pt x="264" y="293" on="0"/>
        <pt x="264" y="285" on="0"/>
        <pt x="264" y="277" on="0"/>
        <pt x="264" y="268" on="0"/>
        <pt x="264" y="264" on="1"/>
        <pt x="260" y="264" on="0"/>
        <pt x="252" y="264" on="0"/>
        <pt x="244" y="264" on="0"/>
        <pt x="235" y="264" on="0"/>
        <pt x="231" y="264" on="1"/>
        <pt x="231" y="260" on="0"/>
        <pt x="231" y="252" on="0"/>
        <pt x="231" y="244" on="0"/>
        <pt x="231" y="235" on="0"/>
        <pt x="231" y="231" on="1"/>
        <pt x="227" y="231" on="0"/>
        <pt x="219" y="231" on="0"/>
        <pt x="211" y="231" on="0"/>
        <pt x="202" y="231" on="0"/>
        <pt x="198" y="231" on="1"/>
        <pt x="198" y="227" on="0"/>
        <pt x="198" y="219" on="0"/>
        <pt x="198" y="211" on="0"/>
        <pt x="198" y="202" on="0"/>
        <pt x="198" y="198" on="1"/>
        <pt x="194" y="198" on="0"/>
        <pt x="186" y="198" on="0"/>
        <pt x="178" y="198" on="0"/>
        <pt x="169" y="198" on="0"/>
        <pt x="165" y="198" on="1"/>
        <pt x="165" y="194" on="0"/>
        <pt x="165" y="186" on="0"/>
        <pt x="165" y="178" on="0"/>
        <pt x="165" y="169" on="0"/>
        <pt x="165" y="165" on="1"/>
        <pt x="161" y="165" on="0"/>
        <pt x="153" y="165" on="0"/>
        <pt x="145" y="165" on="0"/>
        <pt x="136" y="165" on="0"/>
        <pt x="132" y="165" on="1"/>
        <pt x="132" y="161" on="0"/>
        <pt x="132" y="153" on="0"/>
        <pt x="132" y="145" on="0"/>
        <pt x="132" y="136" on="0"/>
        <pt x="132" y="132" on="1"/>
        <pt x="128" y="132" on="0"/>
        <pt x="120" y="132" on="0"/>
        <pt x="111" y="132" on="0"/>
        <pt x="103" y="132" on="0"/>
        <pt x="99" y="132" on="1"/>
        <pt x="99" y="128" on="0"/>
        <pt x="99" y="120" on="0"/>
        <pt x="99" y="111" on="0"/>
        <pt x="99" y="103" on="0"/>
        <pt x="99" y="99" on="1"/>
        <pt x="95" y="99" on="0"/>
        <pt x="87" y="99" on="0"/>
        <pt x="78" y="99" on="0"/>
        <pt x="70" y="99" on="0"/>
        <pt x="66" y="99" on="1"/>
        <pt x="66" y="95" on="0"/>
        <pt x="66" y="87" on="0"/>
        <pt x="66" y="78" on="0"/>
        <pt x="66" y="70" on="0"/>
        <pt x="66" y="66" on="1"/>
        <pt x="62" y="66" on="0"/>
        <pt x="54" y="66" on="0"/>
        <pt x="45" y="66" on="0"/>
        <pt x="37" y="66" on="0"/>
        <pt x="33" y="66" on="1"/>
        <pt x="33" y="62" on="0"/>
        <pt x="33" y="54" on="0"/>
        <pt x="33" y="45" on="0"/>
        <pt x="33" y="37" on="0"/>
        <pt x="33" y="33" on="1"/>
        <pt x="29" y="33" on="0"/>
        <pt x="21" y="33" on="0"/>
        <pt x="12" y="33" on="0"/>
        <pt x="4" y="33" on="0"/>
        <pt x="0" y="33" on="1"/>
        <pt x="0" y="25" on="0"/>
        <pt x="0" y="8" on="0"/>
        <pt x="0" y="-8" on="0"/>
        <pt x="0" y="-25" on="0"/>
        <pt x="0" y="-33" on="1"/>
        <pt x="21" y="-33" on="0"/>
        <pt x="62" y="-33" on="0"/>
        <pt x="103" y="-33" on="0"/>
        <pt x="145" y="-33" on="0"/>
        <pt x="165" y="-33" on="1"/>
        <pt x="165" y="-17" on="1"/>
        <pt x="169" y="-17" on="0"/>
        <pt x="178" y="-17" on="0"/>
        <pt x="186" y="-17" on="0"/>
        <pt x="194" y="-17" on="0"/>
        <pt x="198" y="-17" on="1"/>
        <pt x="198" y="-12" on="0"/>
        <pt x="198" y="-4" on="0"/>
        <pt x="198" y="4" on="0"/>
        <pt x="198" y="12" on="0"/>
        <pt x="198" y="17" on="1"/>
        <pt x="202" y="17" on="0"/>
        <pt x="211" y="17" on="0"/>
        <pt x="219" y="17" on="0"/>
        <pt x="227" y="17" on="0"/>
        <pt x="231" y="17" on="1"/>
        <pt x="231" y="21" on="0"/>
        <pt x="231" y="29" on="0"/>
        <pt x="231" y="37" on="0"/>
        <pt x="231" y="45" on="0"/>
        <pt x="231" y="50" on="1"/>
        <pt x="235" y="50" on="0"/>
        <pt x="244" y="50" on="0"/>
        <pt x="252" y="50" on="0"/>
        <pt x="260" y="50" on="0"/>
        <pt x="264" y="50" on="1"/>
        <pt x="264" y="54" on="0"/>
        <pt x="264" y="62" on="0"/>
        <pt x="264" y="70" on="0"/>
        <pt x="264" y="78" on="0"/>
        <pt x="264" y="83" on="1"/>
        <pt x="268" y="83" on="0"/>
        <pt x="277" y="83" on="0"/>
        <pt x="285" y="83" on="0"/>
        <pt x="293" y="83" on="0"/>
        <pt x="297" y="83" on="1"/>
        <pt x="297" y="87" on="0"/>
        <pt x="297" y="95" on="0"/>
        <pt x="297" y="103" on="0"/>
        <pt x="297" y="111" on="0"/>
        <pt x="297" y="116" on="1"/>
        <pt x="301" y="116" on="0"/>
        <pt x="310" y="116" on="0"/>
        <pt x="318" y="116" on="0"/>
        <pt x="326" y="116" on="0"/>
        <pt x="330" y="116" on="1"/>
        <pt x="330" y="120" on="0"/>
        <pt x="330" y="128" on="0"/>
        <pt x="330" y="136" on="0"/>
        <pt x="330" y="145" on="0"/>
        <pt x="330" y="149" on="1"/>
        <pt x="334" y="149" on="0"/>
        <pt x="343" y="149" on="0"/>
        <pt x="351" y="149" on="0"/>
        <pt x="359" y="149" on="0"/>
        <pt x="363" y="149" on="1"/>
        <pt x="363" y="153" on="0"/>
        <pt x="363" y="161" on="0"/>
        <pt x="363" y="169" on="0"/>
        <pt x="363" y="178" on="0"/>
        <pt x="363" y="182" on="1"/>
        <pt x="367" y="182" on="0"/>
        <pt x="376" y="182" on="0"/>
        <pt x="384" y="182" on="0"/>
        <pt x="392" y="182" on="0"/>
        <pt x="396" y="182" on="1"/>
        <pt x="396" y="186" on="0"/>
        <pt x="396" y="194" on="0"/>
        <pt x="396" y="202" on="0"/>
        <pt x="396" y="211" on="0"/>
        <pt x="396" y="215" on="1"/>
        <pt x="401" y="215" on="0"/>
        <pt x="409" y="215" on="0"/>
        <pt x="417" y="215" on="0"/>
        <pt x="425" y="215" on="0"/>
        <pt x="429" y="215" on="1"/>
        <pt x="429" y="219" on="0"/>
        <pt x="429" y="227" on="0"/>
        <pt x="429" y="235" on="0"/>
        <pt x="429" y="244" on="0"/>
        <pt x="429" y="248" on="1"/>
        <pt x="434" y="248" on="0"/>
        <pt x="442" y="248" on="0"/>
        <pt x="450" y="248" on="0"/>
        <pt x="458" y="248" on="0"/>
        <pt x="462" y="248" on="1"/>
        <pt x="462" y="252" on="0"/>
        <pt x="462" y="260" on="0"/>
        <pt x="462" y="268" on="0"/>
        <pt x="462" y="277" on="0"/>
        <pt x="462" y="281" on="1"/>
        <pt x="467" y="281" on="0"/>
        <pt x="475" y="281" on="0"/>
        <pt x="483" y="281" on="0"/>
        <pt x="491" y="281" on="0"/>
        <pt x="495" y="281" on="1"/>
        <pt x="495" y="285" on="0"/>
        <pt x="495" y="293" on="0"/>
        <pt x="495" y="301" on="0"/>
        <pt x="495" y="310" on="0"/>
        <pt x="495" y="314" on="1"/>
        <pt x="500" y="314" on="0"/>
        <pt x="508" y="314" on="0"/>
        <pt x="516" y="314" on="0"/>
        <pt x="524" y="314" on="0"/>
        <pt x="529" y="314" on="1"/>
        <pt x="529" y="318" on="0"/>
        <pt x="529" y="326" on="0"/>
        <pt x="529" y="334" on="0"/>
        <pt x="529" y="343" on="0"/>
        <pt x="529" y="347" on="1"/>
        <pt x="533" y="347" on="0"/>
        <pt x="541" y="347" on="0"/>
        <pt x="549" y="347" on="0"/>
        <pt x="557" y="347" on="0"/>
        <pt x="562" y="347" on="1"/>
        <pt x="562" y="351" on="0"/>
        <pt x="562" y="359" on="0"/>
        <pt x="562" y="367" on="0"/>
        <pt x="562" y="376" on="0"/>
        <pt x="562" y="380" on="1"/>
        <pt x="566" y="380" on="0"/>
        <pt x="574" y="380" on="0"/>
        <pt x="582" y="380" on="0"/>
        <pt x="590" y="380" on="0"/>
        <pt x="595" y="380" on="1"/>
        <pt x="595" y="384" on="0"/>
        <pt x="595" y="392" on="0"/>
        <pt x="595" y="401" on="0"/>
        <pt x="595" y="409" on="0"/>
        <pt x="595" y="413" on="1"/>
        <pt x="599" y="413" on="0"/>
        <pt x="607" y="413" on="0"/>
        <pt x="615" y="413" on="0"/>
        <pt x="623" y="413" on="0"/>
        <pt x="628" y="413" on="1"/>
        <pt x="628" y="421" on="0"/>
        <pt x="628" y="438" on="0"/>
        <pt x="628" y="454" on="0"/>
        <pt x="628" y="471" on="0"/>
        <pt x="628" y="479" on="1"/>
        <pt x="611" y="479" on="1"/>
      </contour>
    </TTGlyph>
    <TTGlyph name="six" xMin="0" yMin="-33" xMax="628" yMax="479">
      <contour>
        <pt x="611" y="116" on="1"/>
        <pt x="594" y="116" on="1"/>
        <pt x="595" y="120" on="0"/>
        <pt x="594" y="128" on="0"/>
        <pt x="595" y="136" on="0"/>
        <pt x="594" y="145" on="0"/>
        <pt x="595" y="149" on="1"/>
        <pt x="589" y="149" on="0"/>
        <pt x="582" y="149" on="0"/>
        <pt x="573" y="149" on="0"/>
        <pt x="566" y="149" on="0"/>
        <pt x="561" y="149" on="1"/>
        <pt x="562" y="165" on="1"/>
        <pt x="556" y="165" on="0"/>
        <pt x="549" y="165" on="0"/>
        <pt x="540" y="165" on="0"/>
        <pt x="533" y="165" on="0"/>
        <pt x="528" y="165" on="1"/>
        <pt x="529" y="182" on="1"/>
        <pt x="523" y="182" on="0"/>
        <pt x="516" y="182" on="0"/>
        <pt x="507" y="182" on="0"/>
        <pt x="500" y="182" on="0"/>
        <pt x="494" y="182" on="1"/>
        <pt x="495" y="198" on="1"/>
        <pt x="486" y="198" on="0"/>
        <pt x="471" y="198" on="0"/>
        <pt x="453" y="198" on="0"/>
        <pt x="438" y="198" on="0"/>
        <pt x="428" y="198" on="1"/>
        <pt x="429" y="215" on="1"/>
        <pt x="404" y="215" on="0"/>
        <pt x="355" y="215" on="0"/>
        <pt x="305" y="215" on="0"/>
        <pt x="256" y="215" on="0"/>
        <pt x="230" y="215" on="1"/>
        <pt x="231" y="235" on="0"/>
        <pt x="230" y="277" on="0"/>
        <pt x="231" y="318" on="0"/>
        <pt x="230" y="359" on="0"/>
        <pt x="231" y="380" on="1"/>
        <pt x="234" y="380" on="0"/>
        <pt x="244" y="380" on="0"/>
        <pt x="251" y="380" on="0"/>
        <pt x="260" y="380" on="0"/>
        <pt x="263" y="380" on="1"/>
        <pt x="264" y="384" on="0"/>
        <pt x="263" y="392" on="0"/>
        <pt x="264" y="401" on="0"/>
        <pt x="263" y="409" on="0"/>
        <pt x="264" y="413" on="1"/>
        <pt x="267" y="413" on="0"/>
        <pt x="277" y="413" on="0"/>
        <pt x="284" y="413" on="0"/>
        <pt x="293" y="413" on="0"/>
        <pt x="296" y="413" on="1"/>
        <pt x="297" y="429" on="1"/>
        <pt x="317" y="429" on="0"/>
        <pt x="359" y="429" on="0"/>
        <pt x="400" y="429" on="0"/>
        <pt x="442" y="429" on="0"/>
        <pt x="461" y="429" on="1"/>
        <pt x="462" y="436" on="0"/>
        <pt x="461" y="448" on="0"/>
        <pt x="462" y="460" on="0"/>
        <pt x="461" y="473" on="0"/>
        <pt x="462" y="479" on="1"/>
        <pt x="437" y="479" on="0"/>
        <pt x="388" y="479" on="0"/>
        <pt x="338" y="479" on="0"/>
        <pt x="289" y="479" on="0"/>
        <pt x="263" y="479" on="1"/>
        <pt x="264" y="462" on="1"/>
        <pt x="255" y="462" on="0"/>
        <pt x="239" y="462" on="0"/>
        <pt x="222" y="462" on="0"/>
        <pt x="206" y="462" on="0"/>
        <pt x="197" y="462" on="1"/>
        <pt x="198" y="446" on="1"/>
        <pt x="193" y="446" on="0"/>
        <pt x="186" y="446" on="0"/>
        <pt x="177" y="446" on="0"/>
        <pt x="169" y="446" on="0"/>
        <pt x="164" y="446" on="1"/>
        <pt x="165" y="429" on="1"/>
        <pt x="160" y="429" on="0"/>
        <pt x="153" y="429" on="0"/>
        <pt x="144" y="429" on="0"/>
        <pt x="136" y="429" on="0"/>
        <pt x="131" y="429" on="1"/>
        <pt x="132" y="413" on="1"/>
        <pt x="127" y="413" on="0"/>
        <pt x="120" y="413" on="0"/>
        <pt x="110" y="413" on="0"/>
        <pt x="103" y="413" on="0"/>
        <pt x="98" y="413" on="1"/>
        <pt x="99" y="409" on="0"/>
        <pt x="98" y="401" on="0"/>
        <pt x="99" y="392" on="0"/>
        <pt x="98" y="384" on="0"/>
        <pt x="99" y="380" on="1"/>
        <pt x="94" y="380" on="0"/>
        <pt x="87" y="380" on="0"/>
        <pt x="77" y="380" on="0"/>
        <pt x="70" y="380" on="0"/>
        <pt x="65" y="380" on="1"/>
        <pt x="66" y="376" on="0"/>
        <pt x="65" y="367" on="0"/>
        <pt x="66" y="359" on="0"/>
        <pt x="65" y="351" on="0"/>
        <pt x="66" y="347" on="1"/>
        <pt x="61" y="347" on="0"/>
        <pt x="54" y="347" on="0"/>
        <pt x="44" y="347" on="0"/>
        <pt x="37" y="347" on="0"/>
        <pt x="32" y="347" on="1"/>
        <pt x="33" y="339" on="0"/>
        <pt x="32" y="322" on="0"/>
        <pt x="33" y="306" on="0"/>
        <pt x="32" y="289" on="0"/>
        <pt x="33" y="281" on="1"/>
        <pt x="28" y="281" on="0"/>
        <pt x="21" y="281" on="0"/>
        <pt x="11" y="281" on="0"/>
        <pt x="4" y="281" on="0"/>
        <pt x="-1" y="281" on="1"/>
        <pt x="0" y="242" on="0"/>
        <pt x="-1" y="163" on="0"/>
        <pt x="0" y="85" on="0"/>
        <pt x="-1" y="6" on="0"/>
        <pt x="0" y="-33" on="1"/>
        <pt x="77" y="-33" on="0"/>
        <pt x="235" y="-33" on="0"/>
        <pt x="391" y="-33" on="0"/>
        <pt x="549" y="-33" on="0"/>
        <pt x="627" y="-33" on="1"/>
        <pt x="628" y="-14" on="0"/>
        <pt x="627" y="23" on="0"/>
        <pt x="628" y="60" on="0"/>
        <pt x="627" y="97" on="0"/>
        <pt x="628" y="116" on="1"/>
        <pt x="610" y="116" on="1"/>
      </contour>
      <contour>
        <pt x="396" y="83" on="1"/>
        <pt x="395" y="50" on="1"/>
        <pt x="231" y="50" on="1"/>
        <pt x="230" y="165" on="1"/>
        <pt x="330" y="165" on="1"/>
        <pt x="329" y="149" on="1"/>
        <pt x="363" y="149" on="1"/>
        <pt x="362" y="116" on="1"/>
        <pt x="396" y="116" on="1"/>
        <pt x="395" y="83" on="1"/>
      </contour>
    </TTGlyph>
    <TTGlyph name="slash" xMin="0" yMin="-33" xMax="628" yMax="479">
      <contour>
        <pt x="611" y="479" on="1"/>
        <pt x="592" y="479" on="0"/>
        <pt x="555" y="479" on="0"/>
        <pt x="517" y="479" on="0"/>
        <pt x="481" y="479" on="0"/>
        <pt x="461" y="479" on="1"/>
        <pt x="462" y="462" on="1"/>
        <pt x="457" y="462" on="0"/>
        <pt x="450" y="462" on="0"/>
        <pt x="441" y="462" on="0"/>
        <pt x="434" y="462" on="0"/>
        <pt x="428" y="462" on="1"/>
        <pt x="429" y="458" on="0"/>
        <pt x="428" y="450" on="0"/>
        <pt x="429" y="442" on="0"/>
        <pt x="428" y="434" on="0"/>
        <pt x="429" y="429" on="1"/>
        <pt x="424" y="429" on="0"/>
        <pt x="417" y="429" on="0"/>
        <pt x="408" y="429" on="0"/>
        <pt x="401" y="429" on="0"/>
        <pt x="395" y="429" on="1"/>
        <pt x="396" y="425" on="0"/>
        <pt x="395" y="417" on="0"/>
        <pt x="396" y="409" on="0"/>
        <pt x="395" y="401" on="0"/>
        <pt x="396" y="396" on="1"/>
        <pt x="391" y="396" on="0"/>
        <pt x="384" y="396" on="0"/>
        <pt x="375" y="396" on="0"/>
        <pt x="367" y="396" on="0"/>
        <pt x="362" y="396" on="1"/>
        <pt x="363" y="392" on="0"/>
        <pt x="362" y="384" on="0"/>
        <pt x="363" y="376" on="0"/>
        <pt x="362" y="367" on="0"/>
        <pt x="363" y="363" on="1"/>
        <pt x="358" y="363" on="0"/>
        <pt x="351" y="363" on="0"/>
        <pt x="342" y="363" on="0"/>
        <pt x="334" y="363" on="0"/>
        <pt x="329" y="363" on="1"/>
        <pt x="330" y="359" on="0"/>
        <pt x="329" y="351" on="0"/>
        <pt x="330" y="343" on="0"/>
        <pt x="329" y="334" on="0"/>
        <pt x="330" y="330" on="1"/>
        <pt x="325" y="330" on="0"/>
        <pt x="318" y="330" on="0"/>
        <pt x="309" y="330" on="0"/>
        <pt x="301" y="330" on="0"/>
        <pt x="296" y="330" on="1"/>
        <pt x="297" y="326" on="0"/>
        <pt x="296" y="318" on="0"/>
        <pt x="297" y="310" on="0"/>
        <pt x="296" y="301" on="0"/>
        <pt x="297" y="297" on="1"/>
        <pt x="292" y="297" on="0"/>
        <pt x="285" y="297" on="0"/>
        <pt x="276" y="297" on="0"/>
        <pt x="268" y="297" on="0"/>
        <pt x="263" y="297" on="1"/>
        <pt x="264" y="293" on="0"/>
        <pt x="263" y="285" on="0"/>
        <pt x="264" y="277" on="0"/>
        <pt x="263" y="268" on="0"/>
        <pt x="264" y="264" on="1"/>
        <pt x="259" y="264" on="0"/>
        <pt x="252" y="264" on="0"/>
        <pt x="243" y="264" on="0"/>
        <pt x="235" y="264" on="0"/>
        <pt x="230" y="264" on="1"/>
        <pt x="231" y="260" on="0"/>
        <pt x="230" y="252" on="0"/>
        <pt x="231" y="244" on="0"/>
        <pt x="230" y="235" on="0"/>
        <pt x="231" y="231" on="1"/>
        <pt x="226" y="231" on="0"/>
        <pt x="219" y="231" on="0"/>
        <pt x="210" y="231" on="0"/>
        <pt x="202" y="231" on="0"/>
        <pt x="197" y="231" on="1"/>
        <pt x="198" y="227" on="0"/>
        <pt x="197" y="219" on="0"/>
        <pt x="198" y="211" on="0"/>
        <pt x="197" y="202" on="0"/>
        <pt x="198" y="198" on="1"/>
        <pt x="193" y="198" on="0"/>
        <pt x="186" y="198" on="0"/>
        <pt x="177" y="198" on="0"/>
        <pt x="169" y="198" on="0"/>
        <pt x="164" y="198" on="1"/>
        <pt x="165" y="194" on="0"/>
        <pt x="164" y="186" on="0"/>
        <pt x="165" y="178" on="0"/>
        <pt x="164" y="169" on="0"/>
        <pt x="165" y="165" on="1"/>
        <pt x="160" y="165" on="0"/>
        <pt x="153" y="165" on="0"/>
        <pt x="144" y="165" on="0"/>
        <pt x="136" y="165" on="0"/>
        <pt x="131" y="165" on="1"/>
        <pt x="132" y="161" on="0"/>
        <pt x="131" y="153" on="0"/>
        <pt x="132" y="145" on="0"/>
        <pt x="131" y="136" on="0"/>
        <pt x="132" y="132" on="1"/>
        <pt x="127" y="132" on="0"/>
        <pt x="120" y="132" on="0"/>
        <pt x="110" y="132" on="0"/>
        <pt x="103" y="132" on="0"/>
        <pt x="98" y="132" on="1"/>
        <pt x="99" y="128" on="0"/>
        <pt x="98" y="120" on="0"/>
        <pt x="99" y="111" on="0"/>
        <pt x="98" y="103" on="0"/>
        <pt x="99" y="99" on="1"/>
        <pt x="94" y="99" on="0"/>
        <pt x="87" y="99" on="0"/>
        <pt x="77" y="99" on="0"/>
        <pt x="70" y="99" on="0"/>
        <pt x="65" y="99" on="1"/>
        <pt x="66" y="95" on="0"/>
        <pt x="65" y="87" on="0"/>
        <pt x="66" y="78" on="0"/>
        <pt x="65" y="70" on="0"/>
        <pt x="66" y="66" on="1"/>
        <pt x="61" y="66" on="0"/>
        <pt x="54" y="66" on="0"/>
        <pt x="44" y="66" on="0"/>
        <pt x="37" y="66" on="0"/>
        <pt x="32" y="66" on="1"/>
        <pt x="33" y="62" on="0"/>
        <pt x="32" y="54" on="0"/>
        <pt x="33" y="45" on="0"/>
        <pt x="32" y="37" on="0"/>
        <pt x="33" y="33" on="1"/>
        <pt x="28" y="33" on="0"/>
        <pt x="21" y="33" on="0"/>
        <pt x="11" y="33" on="0"/>
        <pt x="4" y="33" on="0"/>
        <pt x="-1" y="33" on="1"/>
        <pt x="0" y="25" on="0"/>
        <pt x="-1" y="8" on="0"/>
        <pt x="0" y="-8" on="0"/>
        <pt x="-1" y="-25" on="0"/>
        <pt x="0" y="-33" on="1"/>
        <pt x="20" y="-33" on="0"/>
        <pt x="62" y="-33" on="0"/>
        <pt x="102" y="-33" on="0"/>
        <pt x="145" y="-33" on="0"/>
        <pt x="164" y="-33" on="1"/>
        <pt x="165" y="-17" on="1"/>
        <pt x="168" y="-17" on="0"/>
        <pt x="178" y="-17" on="0"/>
        <pt x="185" y="-17" on="0"/>
        <pt x="194" y="-17" on="0"/>
        <pt x="197" y="-17" on="1"/>
        <pt x="198" y="-12" on="0"/>
        <pt x="197" y="-4" on="0"/>
        <pt x="198" y="4" on="0"/>
        <pt x="197" y="12" on="0"/>
        <pt x="198" y="17" on="1"/>
        <pt x="201" y="17" on="0"/>
        <pt x="211" y="17" on="0"/>
        <pt x="218" y="17" on="0"/>
        <pt x="227" y="17" on="0"/>
        <pt x="230" y="17" on="1"/>
        <pt x="231" y="21" on="0"/>
        <pt x="230" y="29" on="0"/>
        <pt x="231" y="37" on="0"/>
        <pt x="230" y="45" on="0"/>
        <pt x="231" y="50" on="1"/>
        <pt x="234" y="50" on="0"/>
        <pt x="244" y="50" on="0"/>
        <pt x="251" y="50" on="0"/>
        <pt x="260" y="50" on="0"/>
        <pt x="263" y="50" on="1"/>
        <pt x="264" y="54" on="0"/>
        <pt x="263" y="62" on="0"/>
        <pt x="264" y="70" on="0"/>
        <pt x="263" y="78" on="0"/>
        <pt x="264" y="83" on="1"/>
        <pt x="267" y="83" on="0"/>
        <pt x="277" y="83" on="0"/>
        <pt x="284" y="83" on="0"/>
        <pt x="293" y="83" on="0"/>
        <pt x="296" y="83" on="1"/>
        <pt x="297" y="87" on="0"/>
        <pt x="296" y="95" on="0"/>
        <pt x="297" y="103" on="0"/>
        <pt x="296" y="111" on="0"/>
        <pt x="297" y="116" on="1"/>
        <pt x="300" y="116" on="0"/>
        <pt x="310" y="116" on="0"/>
        <pt x="317" y="116" on="0"/>
        <pt x="326" y="116" on="0"/>
        <pt x="329" y="116" on="1"/>
        <pt x="330" y="120" on="0"/>
        <pt x="329" y="128" on="0"/>
        <pt x="330" y="136" on="0"/>
        <pt x="329" y="145" on="0"/>
        <pt x="330" y="149" on="1"/>
        <pt x="333" y="149" on="0"/>
        <pt x="343" y="149" on="0"/>
        <pt x="350" y="149" on="0"/>
        <pt x="359" y="149" on="0"/>
        <pt x="362" y="149" on="1"/>
        <pt x="363" y="153" on="0"/>
        <pt x="362" y="161" on="0"/>
        <pt x="363" y="169" on="0"/>
        <pt x="362" y="178" on="0"/>
        <pt x="363" y="182" on="1"/>
        <pt x="366" y="182" on="0"/>
        <pt x="376" y="182" on="0"/>
        <pt x="383" y="182" on="0"/>
        <pt x="392" y="182" on="0"/>
        <pt x="395" y="182" on="1"/>
        <pt x="396" y="186" on="0"/>
        <pt x="395" y="194" on="0"/>
        <pt x="396" y="202" on="0"/>
        <pt x="395" y="211" on="0"/>
        <pt x="396" y="215" on="1"/>
        <pt x="400" y="215" on="0"/>
        <pt x="409" y="215" on="0"/>
        <pt x="416" y="215" on="0"/>
        <pt x="425" y="215" on="0"/>
        <pt x="428" y="215" on="1"/>
        <pt x="429" y="219" on="0"/>
        <pt x="428" y="227" on="0"/>
        <pt x="429" y="235" on="0"/>
        <pt x="428" y="244" on="0"/>
        <pt x="429" y="248" on="1"/>
        <pt x="433" y="248" on="0"/>
        <pt x="442" y="248" on="0"/>
        <pt x="449" y="248" on="0"/>
        <pt x="458" y="248" on="0"/>
        <pt x="461" y="248" on="1"/>
        <pt x="462" y="252" on="0"/>
        <pt x="461" y="260" on="0"/>
        <pt x="462" y="268" on="0"/>
        <pt x="461" y="277" on="0"/>
        <pt x="462" y="281" on="1"/>
        <pt x="466" y="281" on="0"/>
        <pt x="475" y="281" on="0"/>
        <pt x="482" y="281" on="0"/>
        <pt x="491" y="281" on="0"/>
        <pt x="494" y="281" on="1"/>
        <pt x="495" y="285" on="0"/>
        <pt x="494" y="293" on="0"/>
        <pt x="495" y="301" on="0"/>
        <pt x="494" y="310" on="0"/>
        <pt x="495" y="314" on="1"/>
        <pt x="499" y="314" on="0"/>
        <pt x="508" y="314" on="0"/>
        <pt x="515" y="314" on="0"/>
        <pt x="524" y="314" on="0"/>
        <pt x="528" y="314" on="1"/>
        <pt x="529" y="318" on="0"/>
        <pt x="528" y="326" on="0"/>
        <pt x="529" y="334" on="0"/>
        <pt x="528" y="343" on="0"/>
        <pt x="529" y="347" on="1"/>
        <pt x="532" y="347" on="0"/>
        <pt x="541" y="347" on="0"/>
        <pt x="548" y="347" on="0"/>
        <pt x="557" y="347" on="0"/>
        <pt x="561" y="347" on="1"/>
        <pt x="562" y="351" on="0"/>
        <pt x="561" y="359" on="0"/>
        <pt x="562" y="367" on="0"/>
        <pt x="561" y="376" on="0"/>
        <pt x="562" y="380" on="1"/>
        <pt x="565" y="380" on="0"/>
        <pt x="574" y="380" on="0"/>
        <pt x="581" y="380" on="0"/>
        <pt x="590" y="380" on="0"/>
        <pt x="594" y="380" on="1"/>
        <pt x="595" y="384" on="0"/>
        <pt x="594" y="392" on="0"/>
        <pt x="595" y="401" on="0"/>
        <pt x="594" y="409" on="0"/>
        <pt x="595" y="413" on="1"/>
        <pt x="598" y="413" on="0"/>
        <pt x="607" y="413" on="0"/>
        <pt x="614" y="413" on="0"/>
        <pt x="623" y="413" on="0"/>
        <pt x="627" y="413" on="1"/>
        <pt x="628" y="421" on="0"/>
        <pt x="627" y="438" on="0"/>
        <pt x="628" y="454" on="0"/>
        <pt x="627" y="471" on="0"/>
        <pt x="628" y="479" on="1"/>
        <pt x="610" y="479" on="1"/>
      </contour>
    </TTGlyph>
    <TTGlyph name="space" xMin="0" yMin="0" xMax="0" yMax="0">
      <contour>
        <pt x="0" y="0" on="1"/>
        <pt x="0" y="0" on="1"/>
        <pt x="0" y="0" on="1"/>
      </contour>
    </TTGlyph>
    <TTGlyph name="t" xMin="0" yMin="-33" xMax="495" yMax="479">
      <contour>
        <pt x="479" y="479" on="1"/>
        <pt x="419" y="479" on="0"/>
        <pt x="299" y="479" on="0"/>
        <pt x="180" y="479" on="0"/>
        <pt x="60" y="479" on="0"/>
        <pt x="0" y="479" on="1"/>
        <pt x="0" y="473" on="0"/>
        <pt x="0" y="460" on="0"/>
        <pt x="0" y="448" on="0"/>
        <pt x="0" y="436" on="0"/>
        <pt x="0" y="429" on="1"/>
        <pt x="17" y="429" on="0"/>
        <pt x="50" y="429" on="0"/>
        <pt x="83" y="429" on="0"/>
        <pt x="116" y="429" on="0"/>
        <pt x="132" y="429" on="1"/>
        <pt x="132" y="372" on="0"/>
        <pt x="132" y="256" on="0"/>
        <pt x="132" y="140" on="0"/>
        <pt x="132" y="25" on="0"/>
        <pt x="132" y="-33" on="1"/>
        <pt x="161" y="-33" on="0"/>
        <pt x="219" y="-33" on="0"/>
        <pt x="277" y="-33" on="0"/>
        <pt x="334" y="-33" on="0"/>
        <pt x="363" y="-33" on="1"/>
        <pt x="363" y="25" on="0"/>
        <pt x="363" y="140" on="0"/>
        <pt x="363" y="256" on="0"/>
        <pt x="363" y="372" on="0"/>
        <pt x="363" y="429" on="1"/>
        <pt x="380" y="429" on="0"/>
        <pt x="413" y="429" on="0"/>
        <pt x="446" y="429" on="0"/>
        <pt x="479" y="429" on="0"/>
        <pt x="495" y="429" on="1"/>
        <pt x="495" y="436" on="0"/>
        <pt x="495" y="448" on="0"/>
        <pt x="495" y="460" on="0"/>
        <pt x="495" y="473" on="0"/>
        <pt x="495" y="479" on="1"/>
        <pt x="479" y="479" on="1"/>
      </contour>
    </TTGlyph>
    <TTGlyph name="three" xMin="0" yMin="-33" xMax="628" yMax="479">
      <contour>
        <pt x="611" y="297" on="1"/>
        <pt x="594" y="297" on="1"/>
        <pt x="595" y="303" on="0"/>
        <pt x="594" y="316" on="0"/>
        <pt x="595" y="328" on="0"/>
        <pt x="594" y="341" on="0"/>
        <pt x="595" y="347" on="1"/>
        <pt x="589" y="347" on="0"/>
        <pt x="582" y="347" on="0"/>
        <pt x="573" y="347" on="0"/>
        <pt x="566" y="347" on="0"/>
        <pt x="561" y="347" on="1"/>
        <pt x="562" y="351" on="0"/>
        <pt x="561" y="359" on="0"/>
        <pt x="562" y="367" on="0"/>
        <pt x="561" y="376" on="0"/>
        <pt x="562" y="380" on="1"/>
        <pt x="556" y="380" on="0"/>
        <pt x="549" y="380" on="0"/>
        <pt x="540" y="380" on="0"/>
        <pt x="533" y="380" on="0"/>
        <pt x="528" y="380" on="1"/>
        <pt x="529" y="384" on="0"/>
        <pt x="528" y="392" on="0"/>
        <pt x="529" y="401" on="0"/>
        <pt x="528" y="409" on="0"/>
        <pt x="529" y="413" on="1"/>
        <pt x="523" y="413" on="0"/>
        <pt x="516" y="413" on="0"/>
        <pt x="507" y="413" on="0"/>
        <pt x="500" y="413" on="0"/>
        <pt x="494" y="413" on="1"/>
        <pt x="495" y="429" on="1"/>
        <pt x="490" y="429" on="0"/>
        <pt x="483" y="429" on="0"/>
        <pt x="474" y="429" on="0"/>
        <pt x="467" y="429" on="0"/>
        <pt x="461" y="429" on="1"/>
        <pt x="462" y="446" on="1"/>
        <pt x="457" y="446" on="0"/>
        <pt x="450" y="446" on="0"/>
        <pt x="441" y="446" on="0"/>
        <pt x="434" y="446" on="0"/>
        <pt x="428" y="446" on="1"/>
        <pt x="429" y="462" on="1"/>
        <pt x="420" y="462" on="0"/>
        <pt x="405" y="462" on="0"/>
        <pt x="387" y="462" on="0"/>
        <pt x="372" y="462" on="0"/>
        <pt x="362" y="462" on="1"/>
        <pt x="363" y="479" on="1"/>
        <pt x="317" y="479" on="0"/>
        <pt x="227" y="479" on="0"/>
        <pt x="135" y="479" on="0"/>
        <pt x="45" y="479" on="0"/>
        <pt x="-1" y="479" on="1"/>
        <pt x="0" y="473" on="0"/>
        <pt x="-1" y="460" on="0"/>
        <pt x="0" y="448" on="0"/>
        <pt x="-1" y="436" on="0"/>
        <pt x="0" y="429" on="1"/>
        <pt x="40" y="429" on="0"/>
        <pt x="124" y="429" on="0"/>
        <pt x="205" y="429" on="0"/>
        <pt x="289" y="429" on="0"/>
        <pt x="329" y="429" on="1"/>
        <pt x="330" y="413" on="1"/>
        <pt x="333" y="413" on="0"/>
        <pt x="343" y="413" on="0"/>
        <pt x="350" y="413" on="0"/>
        <pt x="359" y="413" on="0"/>
        <pt x="362" y="413" on="1"/>
        <pt x="363" y="409" on="0"/>
        <pt x="362" y="401" on="0"/>
        <pt x="363" y="392" on="0"/>
        <pt x="362" y="384" on="0"/>
        <pt x="363" y="380" on="1"/>
        <pt x="366" y="380" on="0"/>
        <pt x="376" y="380" on="0"/>
        <pt x="383" y="380" on="0"/>
        <pt x="392" y="380" on="0"/>
        <pt x="395" y="380" on="1"/>
        <pt x="396" y="359" on="0"/>
        <pt x="395" y="318" on="0"/>
        <pt x="396" y="277" on="0"/>
        <pt x="395" y="235" on="0"/>
        <pt x="396" y="215" on="1"/>
        <pt x="371" y="215" on="0"/>
        <pt x="322" y="215" on="0"/>
        <pt x="272" y="215" on="0"/>
        <pt x="223" y="215" on="0"/>
        <pt x="197" y="215" on="1"/>
        <pt x="198" y="209" on="0"/>
        <pt x="197" y="196" on="0"/>
        <pt x="198" y="184" on="0"/>
        <pt x="197" y="171" on="0"/>
        <pt x="198" y="165" on="1"/>
        <pt x="214" y="165" on="0"/>
        <pt x="248" y="165" on="0"/>
        <pt x="280" y="165" on="0"/>
        <pt x="314" y="165" on="0"/>
        <pt x="329" y="165" on="1"/>
        <pt x="330" y="149" on="1"/>
        <pt x="333" y="149" on="0"/>
        <pt x="343" y="149" on="0"/>
        <pt x="350" y="149" on="0"/>
        <pt x="359" y="149" on="0"/>
        <pt x="362" y="149" on="1"/>
        <pt x="363" y="145" on="0"/>
        <pt x="362" y="136" on="0"/>
        <pt x="363" y="128" on="0"/>
        <pt x="362" y="120" on="0"/>
        <pt x="363" y="116" on="1"/>
        <pt x="366" y="116" on="0"/>
        <pt x="376" y="116" on="0"/>
        <pt x="383" y="116" on="0"/>
        <pt x="392" y="116" on="0"/>
        <pt x="395" y="116" on="1"/>
        <pt x="396" y="107" on="0"/>
        <pt x="395" y="91" on="0"/>
        <pt x="396" y="74" on="0"/>
        <pt x="395" y="58" on="0"/>
        <pt x="396" y="50" on="1"/>
        <pt x="346" y="50" on="0"/>
        <pt x="248" y="50" on="0"/>
        <pt x="148" y="50" on="0"/>
        <pt x="50" y="50" on="0"/>
        <pt x="-1" y="50" on="1"/>
        <pt x="0" y="39" on="0"/>
        <pt x="-1" y="19" on="0"/>
        <pt x="0" y="-2" on="0"/>
        <pt x="-1" y="-23" on="0"/>
        <pt x="0" y="-33" on="1"/>
        <pt x="77" y="-33" on="0"/>
        <pt x="235" y="-33" on="0"/>
        <pt x="391" y="-33" on="0"/>
        <pt x="549" y="-33" on="0"/>
        <pt x="627" y="-33" on="1"/>
        <pt x="628" y="-14" on="0"/>
        <pt x="627" y="23" on="0"/>
        <pt x="628" y="60" on="0"/>
        <pt x="627" y="97" on="0"/>
        <pt x="628" y="116" on="1"/>
        <pt x="622" y="116" on="0"/>
        <pt x="615" y="116" on="0"/>
        <pt x="606" y="116" on="0"/>
        <pt x="599" y="116" on="0"/>
        <pt x="594" y="116" on="1"/>
        <pt x="595" y="120" on="0"/>
        <pt x="594" y="128" on="0"/>
        <pt x="595" y="136" on="0"/>
        <pt x="594" y="145" on="0"/>
        <pt x="595" y="149" on="1"/>
        <pt x="589" y="149" on="0"/>
        <pt x="582" y="149" on="0"/>
        <pt x="573" y="149" on="0"/>
        <pt x="566" y="149" on="0"/>
        <pt x="561" y="149" on="1"/>
        <pt x="562" y="165" on="1"/>
        <pt x="569" y="165" on="0"/>
        <pt x="586" y="165" on="0"/>
        <pt x="602" y="165" on="0"/>
        <pt x="619" y="165" on="0"/>
        <pt x="627" y="165" on="1"/>
        <pt x="628" y="182" on="0"/>
        <pt x="627" y="215" on="0"/>
        <pt x="628" y="248" on="0"/>
        <pt x="627" y="281" on="0"/>
        <pt x="628" y="297" on="1"/>
        <pt x="610" y="297" on="1"/>
      </contour>
    </TTGlyph>
    <TTGlyph name="two" xMin="0" yMin="-33" xMax="628" yMax="479">
      <contour>
        <pt x="611" y="297" on="1"/>
        <pt x="594" y="297" on="1"/>
        <pt x="595" y="303" on="0"/>
        <pt x="594" y="316" on="0"/>
        <pt x="595" y="328" on="0"/>
        <pt x="594" y="341" on="0"/>
        <pt x="595" y="347" on="1"/>
        <pt x="589" y="347" on="0"/>
        <pt x="582" y="347" on="0"/>
        <pt x="573" y="347" on="0"/>
        <pt x="566" y="347" on="0"/>
        <pt x="561" y="347" on="1"/>
        <pt x="562" y="351" on="0"/>
        <pt x="561" y="359" on="0"/>
        <pt x="562" y="367" on="0"/>
        <pt x="561" y="376" on="0"/>
        <pt x="562" y="380" on="1"/>
        <pt x="556" y="380" on="0"/>
        <pt x="549" y="380" on="0"/>
        <pt x="540" y="380" on="0"/>
        <pt x="533" y="380" on="0"/>
        <pt x="528" y="380" on="1"/>
        <pt x="529" y="384" on="0"/>
        <pt x="528" y="392" on="0"/>
        <pt x="529" y="401" on="0"/>
        <pt x="528" y="409" on="0"/>
        <pt x="529" y="413" on="1"/>
        <pt x="523" y="413" on="0"/>
        <pt x="516" y="413" on="0"/>
        <pt x="507" y="413" on="0"/>
        <pt x="500" y="413" on="0"/>
        <pt x="494" y="413" on="1"/>
        <pt x="495" y="429" on="1"/>
        <pt x="490" y="429" on="0"/>
        <pt x="483" y="429" on="0"/>
        <pt x="474" y="429" on="0"/>
        <pt x="467" y="429" on="0"/>
        <pt x="461" y="429" on="1"/>
        <pt x="462" y="446" on="1"/>
        <pt x="457" y="446" on="0"/>
        <pt x="450" y="446" on="0"/>
        <pt x="441" y="446" on="0"/>
        <pt x="434" y="446" on="0"/>
        <pt x="428" y="446" on="1"/>
        <pt x="429" y="462" on="1"/>
        <pt x="420" y="462" on="0"/>
        <pt x="405" y="462" on="0"/>
        <pt x="387" y="462" on="0"/>
        <pt x="372" y="462" on="0"/>
        <pt x="362" y="462" on="1"/>
        <pt x="363" y="479" on="1"/>
        <pt x="317" y="479" on="0"/>
        <pt x="227" y="479" on="0"/>
        <pt x="135" y="479" on="0"/>
        <pt x="45" y="479" on="0"/>
        <pt x="-1" y="479" on="1"/>
        <pt x="0" y="473" on="0"/>
        <pt x="-1" y="460" on="0"/>
        <pt x="0" y="448" on="0"/>
        <pt x="-1" y="436" on="0"/>
        <pt x="0" y="429" on="1"/>
        <pt x="40" y="429" on="0"/>
        <pt x="124" y="429" on="0"/>
        <pt x="205" y="429" on="0"/>
        <pt x="289" y="429" on="0"/>
        <pt x="329" y="429" on="1"/>
        <pt x="330" y="413" on="1"/>
        <pt x="333" y="413" on="0"/>
        <pt x="343" y="413" on="0"/>
        <pt x="350" y="413" on="0"/>
        <pt x="359" y="413" on="0"/>
        <pt x="362" y="413" on="1"/>
        <pt x="363" y="409" on="0"/>
        <pt x="362" y="401" on="0"/>
        <pt x="363" y="392" on="0"/>
        <pt x="362" y="384" on="0"/>
        <pt x="363" y="380" on="1"/>
        <pt x="366" y="380" on="0"/>
        <pt x="376" y="380" on="0"/>
        <pt x="383" y="380" on="0"/>
        <pt x="392" y="380" on="0"/>
        <pt x="395" y="380" on="1"/>
        <pt x="396" y="359" on="0"/>
        <pt x="395" y="318" on="0"/>
        <pt x="396" y="277" on="0"/>
        <pt x="395" y="235" on="0"/>
        <pt x="396" y="215" on="1"/>
        <pt x="375" y="215" on="0"/>
        <pt x="334" y="215" on="0"/>
        <pt x="292" y="215" on="0"/>
        <pt x="252" y="215" on="0"/>
        <pt x="230" y="215" on="1"/>
        <pt x="231" y="198" on="1"/>
        <pt x="222" y="198" on="0"/>
        <pt x="206" y="198" on="0"/>
        <pt x="189" y="198" on="0"/>
        <pt x="173" y="198" on="0"/>
        <pt x="164" y="198" on="1"/>
        <pt x="165" y="182" on="1"/>
        <pt x="160" y="182" on="0"/>
        <pt x="153" y="182" on="0"/>
        <pt x="144" y="182" on="0"/>
        <pt x="136" y="182" on="0"/>
        <pt x="131" y="182" on="1"/>
        <pt x="132" y="165" on="1"/>
        <pt x="127" y="165" on="0"/>
        <pt x="120" y="165" on="0"/>
        <pt x="110" y="165" on="0"/>
        <pt x="103" y="165" on="0"/>
        <pt x="98" y="165" on="1"/>
        <pt x="99" y="161" on="0"/>
        <pt x="98" y="153" on="0"/>
        <pt x="99" y="145" on="0"/>
        <pt x="98" y="136" on="0"/>
        <pt x="99" y="132" on="1"/>
        <pt x="94" y="132" on="0"/>
        <pt x="87" y="132" on="0"/>
        <pt x="77" y="132" on="0"/>
        <pt x="70" y="132" on="0"/>
        <pt x="65" y="132" on="1"/>
        <pt x="66" y="128" on="0"/>
        <pt x="65" y="120" on="0"/>
        <pt x="66" y="111" on="0"/>
        <pt x="65" y="103" on="0"/>
        <pt x="66" y="99" on="1"/>
        <pt x="61" y="99" on="0"/>
        <pt x="54" y="99" on="0"/>
        <pt x="44" y="99" on="0"/>
        <pt x="37" y="99" on="0"/>
        <pt x="32" y="99" on="1"/>
        <pt x="33" y="95" on="0"/>
        <pt x="32" y="87" on="0"/>
        <pt x="33" y="78" on="0"/>
        <pt x="32" y="70" on="0"/>
        <pt x="33" y="66" on="1"/>
        <pt x="28" y="66" on="0"/>
        <pt x="21" y="66" on="0"/>
        <pt x="11" y="66" on="0"/>
        <pt x="4" y="66" on="0"/>
        <pt x="-1" y="66" on="1"/>
        <pt x="0" y="54" on="0"/>
        <pt x="-1" y="29" on="0"/>
        <pt x="0" y="4" on="0"/>
        <pt x="-1" y="-21" on="0"/>
        <pt x="0" y="-33" on="1"/>
        <pt x="77" y="-33" on="0"/>
        <pt x="235" y="-33" on="0"/>
        <pt x="391" y="-33" on="0"/>
        <pt x="549" y="-33" on="0"/>
        <pt x="627" y="-33" on="1"/>
        <pt x="628" y="-23" on="0"/>
        <pt x="627" y="-2" on="0"/>
        <pt x="628" y="19" on="0"/>
        <pt x="627" y="39" on="0"/>
        <pt x="628" y="50" on="1"/>
        <pt x="577" y="50" on="0"/>
        <pt x="479" y="50" on="0"/>
        <pt x="379" y="50" on="0"/>
        <pt x="281" y="50" on="0"/>
        <pt x="230" y="50" on="1"/>
        <pt x="231" y="58" on="0"/>
        <pt x="230" y="74" on="0"/>
        <pt x="231" y="91" on="0"/>
        <pt x="230" y="107" on="0"/>
        <pt x="231" y="116" on="1"/>
        <pt x="234" y="116" on="0"/>
        <pt x="244" y="116" on="0"/>
        <pt x="251" y="116" on="0"/>
        <pt x="260" y="116" on="0"/>
        <pt x="263" y="116" on="1"/>
        <pt x="264" y="120" on="0"/>
        <pt x="263" y="128" on="0"/>
        <pt x="264" y="136" on="0"/>
        <pt x="263" y="145" on="0"/>
        <pt x="264" y="149" on="1"/>
        <pt x="267" y="149" on="0"/>
        <pt x="277" y="149" on="0"/>
        <pt x="284" y="149" on="0"/>
        <pt x="293" y="149" on="0"/>
        <pt x="296" y="149" on="1"/>
        <pt x="297" y="165" on="1"/>
        <pt x="338" y="165" on="0"/>
        <pt x="421" y="165" on="0"/>
        <pt x="503" y="165" on="0"/>
        <pt x="586" y="165" on="0"/>
        <pt x="627" y="165" on="1"/>
        <pt x="628" y="182" on="0"/>
        <pt x="627" y="215" on="0"/>
        <pt x="628" y="248" on="0"/>
        <pt x="627" y="281" on="0"/>
        <pt x="628" y="297" on="1"/>
        <pt x="610" y="297" on="1"/>
      </contour>
    </TTGlyph>
    <TTGlyph name="u" xMin="0" yMin="-33" xMax="628" yMax="479">
      <contour>
        <pt x="611" y="479" on="1"/>
        <pt x="584" y="479" on="0"/>
        <pt x="531" y="479" on="0"/>
        <pt x="477" y="479" on="0"/>
        <pt x="423" y="479" on="0"/>
        <pt x="396" y="479" on="1"/>
        <pt x="396" y="425" on="0"/>
        <pt x="396" y="318" on="0"/>
        <pt x="396" y="211" on="0"/>
        <pt x="396" y="103" on="0"/>
        <pt x="396" y="50" on="1"/>
        <pt x="376" y="50" on="0"/>
        <pt x="334" y="50" on="0"/>
        <pt x="293" y="50" on="0"/>
        <pt x="252" y="50" on="0"/>
        <pt x="231" y="50" on="1"/>
        <pt x="231" y="103" on="0"/>
        <pt x="231" y="211" on="0"/>
        <pt x="231" y="318" on="0"/>
        <pt x="231" y="425" on="0"/>
        <pt x="231" y="479" on="1"/>
        <pt x="202" y="479" on="0"/>
        <pt x="145" y="479" on="0"/>
        <pt x="87" y="479" on="0"/>
        <pt x="29" y="479" on="0"/>
        <pt x="0" y="479" on="1"/>
        <pt x="0" y="415" on="0"/>
        <pt x="0" y="287" on="0"/>
        <pt x="0" y="159" on="0"/>
        <pt x="0" y="31" on="0"/>
        <pt x="0" y="-33" on="1"/>
        <pt x="78" y="-33" on="0"/>
        <pt x="235" y="-33" on="0"/>
        <pt x="392" y="-33" on="0"/>
        <pt x="549" y="-33" on="0"/>
        <pt x="628" y="-33" on="1"/>
        <pt x="628" y="31" on="0"/>
        <pt x="628" y="159" on="0"/>
        <pt x="628" y="287" on="0"/>
        <pt x="628" y="415" on="0"/>
        <pt x="628" y="479" on="1"/>
        <pt x="611" y="479" on="1"/>
      </contour>
    </TTGlyph>
    <TTGlyph name="uni0000" xMin="0" yMin="0" xMax="0" yMax="0">
      <contour>
        <pt x="0" y="0" on="1"/>
        <pt x="0" y="0" on="1"/>
        <pt x="0" y="0" on="1"/>
      </contour>
    </TTGlyph>
    <TTGlyph name="uni0001" xMin="0" yMin="0" xMax="0" yMax="0">
      <contour>
        <pt x="0" y="0" on="1"/>
        <pt x="0" y="0" on="1"/>
        <pt x="0" y="0" on="1"/>
      </contour>
    </TTGlyph>
    <TTGlyph name="v" xMin="0" yMin="-33" xMax="628" yMax="479">
      <contour>
        <pt x="611" y="479" on="1"/>
        <pt x="584" y="479" on="0"/>
        <pt x="531" y="479" on="0"/>
        <pt x="477" y="479" on="0"/>
        <pt x="423" y="479" on="0"/>
        <pt x="396" y="479" on="1"/>
        <pt x="396" y="429" on="0"/>
        <pt x="396" y="330" on="0"/>
        <pt x="396" y="231" on="0"/>
        <pt x="396" y="132" on="0"/>
        <pt x="396" y="83" on="1"/>
        <pt x="392" y="83" on="0"/>
        <pt x="384" y="83" on="0"/>
        <pt x="376" y="83" on="0"/>
        <pt x="367" y="83" on="0"/>
        <pt x="363" y="83" on="1"/>
        <pt x="363" y="66" on="1"/>
        <pt x="359" y="66" on="0"/>
        <pt x="351" y="66" on="0"/>
        <pt x="343" y="66" on="0"/>
        <pt x="334" y="66" on="0"/>
        <pt x="330" y="66" on="1"/>
        <pt x="330" y="50" on="1"/>
        <pt x="326" y="50" on="0"/>
        <pt x="318" y="50" on="0"/>
        <pt x="310" y="50" on="0"/>
        <pt x="301" y="50" on="0"/>
        <pt x="297" y="50" on="1"/>
        <pt x="297" y="66" on="1"/>
        <pt x="293" y="66" on="0"/>
        <pt x="285" y="66" on="0"/>
        <pt x="277" y="66" on="0"/>
        <pt x="268" y="66" on="0"/>
        <pt x="264" y="66" on="1"/>
        <pt x="264" y="83" on="1"/>
        <pt x="260" y="83" on="0"/>
        <pt x="252" y="83" on="0"/>
        <pt x="244" y="83" on="0"/>
        <pt x="235" y="83" on="0"/>
        <pt x="231" y="83" on="1"/>
        <pt x="231" y="132" on="0"/>
        <pt x="231" y="231" on="0"/>
        <pt x="231" y="330" on="0"/>
        <pt x="231" y="429" on="0"/>
        <pt x="231" y="479" on="1"/>
        <pt x="202" y="479" on="0"/>
        <pt x="145" y="479" on="0"/>
        <pt x="87" y="479" on="0"/>
        <pt x="29" y="479" on="0"/>
        <pt x="0" y="479" on="1"/>
        <pt x="0" y="431" on="0"/>
        <pt x="0" y="337" on="0"/>
        <pt x="0" y="242" on="0"/>
        <pt x="0" y="147" on="0"/>
        <pt x="0" y="99" on="1"/>
        <pt x="4" y="99" on="0"/>
        <pt x="12" y="99" on="0"/>
        <pt x="21" y="99" on="0"/>
        <pt x="29" y="99" on="0"/>
        <pt x="33" y="99" on="1"/>
        <pt x="33" y="83" on="1"/>
        <pt x="37" y="83" on="0"/>
        <pt x="45" y="83" on="0"/>
        <pt x="54" y="83" on="0"/>
        <pt x="62" y="83" on="0"/>
        <pt x="66" y="83" on="1"/>
        <pt x="66" y="66" on="1"/>
        <pt x="70" y="66" on="0"/>
        <pt x="78" y="66" on="0"/>
        <pt x="87" y="66" on="0"/>
        <pt x="95" y="66" on="0"/>
        <pt x="99" y="66" on="1"/>
        <pt x="99" y="50" on="1"/>
        <pt x="103" y="50" on="0"/>
        <pt x="111" y="50" on="0"/>
        <pt x="120" y="50" on="0"/>
        <pt x="128" y="50" on="0"/>
        <pt x="132" y="50" on="1"/>
        <pt x="132" y="33" on="1"/>
        <pt x="136" y="33" on="0"/>
        <pt x="145" y="33" on="0"/>
        <pt x="153" y="33" on="0"/>
        <pt x="161" y="33" on="0"/>
        <pt x="165" y="33" on="1"/>
        <pt x="165" y="17" on="1"/>
        <pt x="169" y="17" on="0"/>
        <pt x="178" y="17" on="0"/>
        <pt x="186" y="17" on="0"/>
        <pt x="194" y="17" on="0"/>
        <pt x="198" y="17" on="1"/>
        <pt x="198" y="0" on="1"/>
        <pt x="202" y="0" on="0"/>
        <pt x="211" y="0" on="0"/>
        <pt x="219" y="0" on="0"/>
        <pt x="227" y="0" on="0"/>
        <pt x="231" y="0" on="1"/>
        <pt x="231" y="-17" on="1"/>
        <pt x="235" y="-17" on="0"/>
        <pt x="244" y="-17" on="0"/>
        <pt x="252" y="-17" on="0"/>
        <pt x="260" y="-17" on="0"/>
        <pt x="264" y="-17" on="1"/>
        <pt x="264" y="-33" on="1"/>
        <pt x="277" y="-33" on="0"/>
        <pt x="301" y="-33" on="0"/>
        <pt x="326" y="-33" on="0"/>
        <pt x="351" y="-33" on="0"/>
        <pt x="363" y="-33" on="1"/>
        <pt x="363" y="-17" on="1"/>
        <pt x="367" y="-17" on="0"/>
        <pt x="376" y="-17" on="0"/>
        <pt x="384" y="-17" on="0"/>
        <pt x="392" y="-17" on="0"/>
        <pt x="396" y="-17" on="1"/>
        <pt x="396" y="0" on="1"/>
        <pt x="401" y="0" on="0"/>
        <pt x="409" y="0" on="0"/>
        <pt x="417" y="0" on="0"/>
        <pt x="425" y="0" on="0"/>
        <pt x="429" y="0" on="1"/>
        <pt x="429" y="17" on="1"/>
        <pt x="434" y="17" on="0"/>
        <pt x="442" y="17" on="0"/>
        <pt x="450" y="17" on="0"/>
        <pt x="458" y="17" on="0"/>
        <pt x="462" y="17" on="1"/>
        <pt x="462" y="33" on="1"/>
        <pt x="467" y="33" on="0"/>
        <pt x="475" y="33" on="0"/>
        <pt x="483" y="33" on="0"/>
        <pt x="491" y="33" on="0"/>
        <pt x="495" y="33" on="1"/>
        <pt x="495" y="50" on="1"/>
        <pt x="500" y="50" on="0"/>
        <pt x="508" y="50" on="0"/>
        <pt x="516" y="50" on="0"/>
        <pt x="524" y="50" on="0"/>
        <pt x="529" y="50" on="1"/>
        <pt x="529" y="66" on="1"/>
        <pt x="533" y="66" on="0"/>
        <pt x="541" y="66" on="0"/>
        <pt x="549" y="66" on="0"/>
        <pt x="557" y="66" on="0"/>
        <pt x="562" y="66" on="1"/>
        <pt x="562" y="83" on="1"/>
        <pt x="566" y="83" on="0"/>
        <pt x="574" y="83" on="0"/>
        <pt x="582" y="83" on="0"/>
        <pt x="590" y="83" on="0"/>
        <pt x="595" y="83" on="1"/>
        <pt x="595" y="99" on="1"/>
        <pt x="599" y="99" on="0"/>
        <pt x="607" y="99" on="0"/>
        <pt x="615" y="99" on="0"/>
        <pt x="623" y="99" on="0"/>
        <pt x="628" y="99" on="1"/>
        <pt x="628" y="147" on="0"/>
        <pt x="628" y="242" on="0"/>
        <pt x="628" y="337" on="0"/>
        <pt x="628" y="431" on="0"/>
        <pt x="628" y="479" on="1"/>
        <pt x="611" y="479" on="1"/>
      </contour>
    </TTGlyph>
    <TTGlyph name="w" xMin="0" yMin="-33" xMax="1024" yMax="479">
      <contour>
        <pt x="1007" y="479" on="1"/>
        <pt x="980" y="479" on="0"/>
        <pt x="927" y="479" on="0"/>
        <pt x="872" y="479" on="0"/>
        <pt x="820" y="479" on="0"/>
        <pt x="792" y="479" on="1"/>
        <pt x="793" y="425" on="0"/>
        <pt x="792" y="318" on="0"/>
        <pt x="793" y="211" on="0"/>
        <pt x="792" y="103" on="0"/>
        <pt x="793" y="50" on="1"/>
        <pt x="771" y="50" on="0"/>
        <pt x="731" y="50" on="0"/>
        <pt x="689" y="50" on="0"/>
        <pt x="648" y="50" on="0"/>
        <pt x="627" y="50" on="1"/>
        <pt x="628" y="103" on="0"/>
        <pt x="627" y="211" on="0"/>
        <pt x="628" y="318" on="0"/>
        <pt x="627" y="425" on="0"/>
        <pt x="628" y="479" on="1"/>
        <pt x="598" y="479" on="0"/>
        <pt x="541" y="479" on="0"/>
        <pt x="482" y="479" on="0"/>
        <pt x="425" y="479" on="0"/>
        <pt x="395" y="479" on="1"/>
        <pt x="396" y="425" on="0"/>
        <pt x="395" y="318" on="0"/>
        <pt x="396" y="211" on="0"/>
        <pt x="395" y="103" on="0"/>
        <pt x="396" y="50" on="1"/>
        <pt x="375" y="50" on="0"/>
        <pt x="334" y="50" on="0"/>
        <pt x="292" y="50" on="0"/>
        <pt x="252" y="50" on="0"/>
        <pt x="230" y="50" on="1"/>
        <pt x="231" y="103" on="0"/>
        <pt x="230" y="211" on="0"/>
        <pt x="231" y="318" on="0"/>
        <pt x="230" y="425" on="0"/>
        <pt x="231" y="479" on="1"/>
        <pt x="201" y="479" on="0"/>
        <pt x="145" y="479" on="0"/>
        <pt x="86" y="479" on="0"/>
        <pt x="29" y="479" on="0"/>
        <pt x="-1" y="479" on="1"/>
        <pt x="0" y="415" on="0"/>
        <pt x="-1" y="287" on="0"/>
        <pt x="0" y="159" on="0"/>
        <pt x="-1" y="31" on="0"/>
        <pt x="0" y="-33" on="1"/>
        <pt x="127" y="-33" on="0"/>
        <pt x="384" y="-33" on="0"/>
        <pt x="639" y="-33" on="0"/>
        <pt x="896" y="-33" on="0"/>
        <pt x="1023" y="-33" on="1"/>
        <pt x="1024" y="31" on="0"/>
        <pt x="1023" y="159" on="0"/>
        <pt x="1024" y="287" on="0"/>
        <pt x="1023" y="415" on="0"/>
        <pt x="1024" y="479" on="1"/>
        <pt x="1006" y="479" on="1"/>
      </contour>
    </TTGlyph>
    <TTGlyph name="x" xMin="0" yMin="-33" xMax="760" yMax="479">
      <contour>
        <pt x="743" y="479" on="1"/>
        <pt x="716" y="479" on="0"/>
        <pt x="663" y="479" on="0"/>
        <pt x="609" y="479" on="0"/>
        <pt x="555" y="479" on="0"/>
        <pt x="529" y="479" on="1"/>
        <pt x="529" y="475" on="0"/>
        <pt x="529" y="467" on="0"/>
        <pt x="529" y="458" on="0"/>
        <pt x="529" y="450" on="0"/>
        <pt x="529" y="446" on="1"/>
        <pt x="524" y="446" on="0"/>
        <pt x="516" y="446" on="0"/>
        <pt x="508" y="446" on="0"/>
        <pt x="500" y="446" on="0"/>
        <pt x="495" y="446" on="1"/>
        <pt x="495" y="440" on="0"/>
        <pt x="495" y="427" on="0"/>
        <pt x="495" y="415" on="0"/>
        <pt x="495" y="403" on="0"/>
        <pt x="495" y="396" on="1"/>
        <pt x="491" y="396" on="0"/>
        <pt x="483" y="396" on="0"/>
        <pt x="475" y="396" on="0"/>
        <pt x="467" y="396" on="0"/>
        <pt x="462" y="396" on="1"/>
        <pt x="462" y="390" on="0"/>
        <pt x="462" y="378" on="0"/>
        <pt x="462" y="365" on="0"/>
        <pt x="462" y="353" on="0"/>
        <pt x="462" y="347" on="1"/>
        <pt x="458" y="347" on="0"/>
        <pt x="450" y="347" on="0"/>
        <pt x="442" y="347" on="0"/>
        <pt x="434" y="347" on="0"/>
        <pt x="429" y="347" on="1"/>
        <pt x="429" y="341" on="0"/>
        <pt x="429" y="328" on="0"/>
        <pt x="429" y="316" on="0"/>
        <pt x="429" y="303" on="0"/>
        <pt x="429" y="297" on="1"/>
        <pt x="425" y="297" on="0"/>
        <pt x="417" y="297" on="0"/>
        <pt x="409" y="297" on="0"/>
        <pt x="401" y="297" on="0"/>
        <pt x="396" y="297" on="1"/>
        <pt x="396" y="291" on="0"/>
        <pt x="396" y="279" on="0"/>
        <pt x="396" y="266" on="0"/>
        <pt x="396" y="254" on="0"/>
        <pt x="396" y="248" on="1"/>
        <pt x="392" y="248" on="0"/>
        <pt x="384" y="248" on="0"/>
        <pt x="376" y="248" on="0"/>
        <pt x="367" y="248" on="0"/>
        <pt x="363" y="248" on="1"/>
        <pt x="363" y="254" on="0"/>
        <pt x="363" y="266" on="0"/>
        <pt x="363" y="279" on="0"/>
        <pt x="363" y="291" on="0"/>
        <pt x="363" y="297" on="1"/>
        <pt x="359" y="297" on="0"/>
        <pt x="351" y="297" on="0"/>
        <pt x="343" y="297" on="0"/>
        <pt x="334" y="297" on="0"/>
        <pt x="330" y="297" on="1"/>
        <pt x="330" y="303" on="0"/>
        <pt x="330" y="316" on="0"/>
        <pt x="330" y="328" on="0"/>
        <pt x="330" y="341" on="0"/>
        <pt x="330" y="347" on="1"/>
        <pt x="326" y="347" on="0"/>
        <pt x="318" y="347" on="0"/>
        <pt x="310" y="347" on="0"/>
        <pt x="301" y="347" on="0"/>
        <pt x="297" y="347" on="1"/>
        <pt x="297" y="353" on="0"/>
        <pt x="297" y="365" on="0"/>
        <pt x="297" y="378" on="0"/>
        <pt x="297" y="390" on="0"/>
        <pt x="297" y="396" on="1"/>
        <pt x="293" y="396" on="0"/>
        <pt x="285" y="396" on="0"/>
        <pt x="277" y="396" on="0"/>
        <pt x="268" y="396" on="0"/>
        <pt x="264" y="396" on="1"/>
        <pt x="264" y="403" on="0"/>
        <pt x="264" y="415" on="0"/>
        <pt x="264" y="427" on="0"/>
        <pt x="264" y="440" on="0"/>
        <pt x="264" y="446" on="1"/>
        <pt x="260" y="446" on="0"/>
        <pt x="252" y="446" on="0"/>
        <pt x="244" y="446" on="0"/>
        <pt x="235" y="446" on="0"/>
        <pt x="231" y="446" on="1"/>
        <pt x="231" y="450" on="0"/>
        <pt x="231" y="458" on="0"/>
        <pt x="231" y="467" on="0"/>
        <pt x="231" y="475" on="0"/>
        <pt x="231" y="479" on="1"/>
        <pt x="202" y="479" on="0"/>
        <pt x="145" y="479" on="0"/>
        <pt x="87" y="479" on="0"/>
        <pt x="29" y="479" on="0"/>
        <pt x="0" y="479" on="1"/>
        <pt x="0" y="473" on="0"/>
        <pt x="0" y="460" on="0"/>
        <pt x="0" y="448" on="0"/>
        <pt x="0" y="436" on="0"/>
        <pt x="0" y="429" on="1"/>
        <pt x="4" y="429" on="0"/>
        <pt x="12" y="429" on="0"/>
        <pt x="21" y="429" on="0"/>
        <pt x="29" y="429" on="0"/>
        <pt x="33" y="429" on="1"/>
        <pt x="33" y="413" on="1"/>
        <pt x="37" y="413" on="0"/>
        <pt x="45" y="413" on="0"/>
        <pt x="54" y="413" on="0"/>
        <pt x="62" y="413" on="0"/>
        <pt x="66" y="413" on="1"/>
        <pt x="66" y="409" on="0"/>
        <pt x="66" y="401" on="0"/>
        <pt x="66" y="392" on="0"/>
        <pt x="66" y="384" on="0"/>
        <pt x="66" y="380" on="1"/>
        <pt x="70" y="380" on="0"/>
        <pt x="78" y="380" on="0"/>
        <pt x="87" y="380" on="0"/>
        <pt x="95" y="380" on="0"/>
        <pt x="99" y="380" on="1"/>
        <pt x="99" y="363" on="1"/>
        <pt x="103" y="363" on="0"/>
        <pt x="111" y="363" on="0"/>
        <pt x="120" y="363" on="0"/>
        <pt x="128" y="363" on="0"/>
        <pt x="132" y="363" on="1"/>
        <pt x="132" y="359" on="0"/>
        <pt x="132" y="351" on="0"/>
        <pt x="132" y="343" on="0"/>
        <pt x="132" y="334" on="0"/>
        <pt x="132" y="330" on="1"/>
        <pt x="136" y="330" on="0"/>
        <pt x="145" y="330" on="0"/>
        <pt x="153" y="330" on="0"/>
        <pt x="161" y="330" on="0"/>
        <pt x="165" y="330" on="1"/>
        <pt x="165" y="314" on="1"/>
        <pt x="169" y="314" on="0"/>
        <pt x="178" y="314" on="0"/>
        <pt x="186" y="314" on="0"/>
        <pt x="194" y="314" on="0"/>
        <pt x="198" y="314" on="1"/>
        <pt x="198" y="310" on="0"/>
        <pt x="198" y="301" on="0"/>
        <pt x="198" y="293" on="0"/>
        <pt x="198" y="285" on="0"/>
        <pt x="198" y="281" on="1"/>
        <pt x="202" y="281" on="0"/>
        <pt x="211" y="281" on="0"/>
        <pt x="219" y="281" on="0"/>
        <pt x="227" y="281" on="0"/>
        <pt x="231" y="281" on="1"/>
        <pt x="231" y="264" on="1"/>
        <pt x="235" y="264" on="0"/>
        <pt x="244" y="264" on="0"/>
        <pt x="252" y="264" on="0"/>
        <pt x="260" y="264" on="0"/>
        <pt x="264" y="264" on="1"/>
        <pt x="264" y="260" on="0"/>
        <pt x="264" y="252" on="0"/>
        <pt x="264" y="244" on="0"/>
        <pt x="264" y="235" on="0"/>
        <pt x="264" y="231" on="1"/>
        <pt x="268" y="231" on="0"/>
        <pt x="277" y="231" on="0"/>
        <pt x="285" y="231" on="0"/>
        <pt x="293" y="231" on="0"/>
        <pt x="297" y="231" on="1"/>
        <pt x="297" y="215" on="1"/>
        <pt x="293" y="215" on="0"/>
        <pt x="285" y="215" on="0"/>
        <pt x="277" y="215" on="0"/>
        <pt x="268" y="215" on="0"/>
        <pt x="264" y="215" on="1"/>
        <pt x="264" y="211" on="0"/>
        <pt x="264" y="202" on="0"/>
        <pt x="264" y="194" on="0"/>
        <pt x="264" y="186" on="0"/>
        <pt x="264" y="182" on="1"/>
        <pt x="260" y="182" on="0"/>
        <pt x="252" y="182" on="0"/>
        <pt x="244" y="182" on="0"/>
        <pt x="235" y="182" on="0"/>
        <pt x="231" y="182" on="1"/>
        <pt x="231" y="165" on="1"/>
        <pt x="227" y="165" on="0"/>
        <pt x="219" y="165" on="0"/>
        <pt x="211" y="165" on="0"/>
        <pt x="202" y="165" on="0"/>
        <pt x="198" y="165" on="1"/>
        <pt x="198" y="161" on="0"/>
        <pt x="198" y="153" on="0"/>
        <pt x="198" y="145" on="0"/>
        <pt x="198" y="136" on="0"/>
        <pt x="198" y="132" on="1"/>
        <pt x="194" y="132" on="0"/>
        <pt x="186" y="132" on="0"/>
        <pt x="178" y="132" on="0"/>
        <pt x="169" y="132" on="0"/>
        <pt x="165" y="132" on="1"/>
        <pt x="165" y="116" on="1"/>
        <pt x="161" y="116" on="0"/>
        <pt x="153" y="116" on="0"/>
        <pt x="145" y="116" on="0"/>
        <pt x="136" y="116" on="0"/>
        <pt x="132" y="116" on="1"/>
        <pt x="132" y="111" on="0"/>
        <pt x="132" y="103" on="0"/>
        <pt x="132" y="95" on="0"/>
        <pt x="132" y="87" on="0"/>
        <pt x="132" y="83" on="1"/>
        <pt x="128" y="83" on="0"/>
        <pt x="120" y="83" on="0"/>
        <pt x="111" y="83" on="0"/>
        <pt x="103" y="83" on="0"/>
        <pt x="99" y="83" on="1"/>
        <pt x="99" y="66" on="1"/>
        <pt x="95" y="66" on="0"/>
        <pt x="87" y="66" on="0"/>
        <pt x="78" y="66" on="0"/>
        <pt x="70" y="66" on="0"/>
        <pt x="66" y="66" on="1"/>
        <pt x="66" y="62" on="0"/>
        <pt x="66" y="54" on="0"/>
        <pt x="66" y="45" on="0"/>
        <pt x="66" y="37" on="0"/>
        <pt x="66" y="33" on="1"/>
        <pt x="62" y="33" on="0"/>
        <pt x="54" y="33" on="0"/>
        <pt x="45" y="33" on="0"/>
        <pt x="37" y="33" on="0"/>
        <pt x="33" y="33" on="1"/>
        <pt x="33" y="17" on="1"/>
        <pt x="29" y="17" on="0"/>
        <pt x="21" y="17" on="0"/>
        <pt x="12" y="17" on="0"/>
        <pt x="4" y="17" on="0"/>
        <pt x="0" y="17" on="1"/>
        <pt x="0" y="10" on="0"/>
        <pt x="0" y="-2" on="0"/>
        <pt x="0" y="-14" on="0"/>
        <pt x="0" y="-27" on="0"/>
        <pt x="0" y="-33" on="1"/>
        <pt x="29" y="-33" on="0"/>
        <pt x="87" y="-33" on="0"/>
        <pt x="145" y="-33" on="0"/>
        <pt x="202" y="-33" on="0"/>
        <pt x="231" y="-33" on="1"/>
        <pt x="231" y="-29" on="0"/>
        <pt x="231" y="-21" on="0"/>
        <pt x="231" y="-12" on="0"/>
        <pt x="231" y="-4" on="0"/>
        <pt x="231" y="0" on="1"/>
        <pt x="235" y="0" on="0"/>
        <pt x="244" y="0" on="0"/>
        <pt x="252" y="0" on="0"/>
        <pt x="260" y="0" on="0"/>
        <pt x="264" y="0" on="1"/>
        <pt x="264" y="6" on="0"/>
        <pt x="264" y="19" on="0"/>
        <pt x="264" y="31" on="0"/>
        <pt x="264" y="43" on="0"/>
        <pt x="264" y="50" on="1"/>
        <pt x="268" y="50" on="0"/>
        <pt x="277" y="50" on="0"/>
        <pt x="285" y="50" on="0"/>
        <pt x="293" y="50" on="0"/>
        <pt x="297" y="50" on="1"/>
        <pt x="297" y="56" on="0"/>
        <pt x="297" y="68" on="0"/>
        <pt x="297" y="81" on="0"/>
        <pt x="297" y="93" on="0"/>
        <pt x="297" y="99" on="1"/>
        <pt x="301" y="99" on="0"/>
        <pt x="310" y="99" on="0"/>
        <pt x="318" y="99" on="0"/>
        <pt x="326" y="99" on="0"/>
        <pt x="330" y="99" on="1"/>
        <pt x="330" y="105" on="0"/>
        <pt x="330" y="118" on="0"/>
        <pt x="330" y="130" on="0"/>
        <pt x="330" y="142" on="0"/>
        <pt x="330" y="149" on="1"/>
        <pt x="334" y="149" on="0"/>
        <pt x="343" y="149" on="0"/>
        <pt x="351" y="149" on="0"/>
        <pt x="359" y="149" on="0"/>
        <pt x="363" y="149" on="1"/>
        <pt x="363" y="155" on="0"/>
        <pt x="363" y="167" on="0"/>
        <pt x="363" y="180" on="0"/>
        <pt x="363" y="192" on="0"/>
        <pt x="363" y="198" on="1"/>
        <pt x="367" y="198" on="0"/>
        <pt x="376" y="198" on="0"/>
        <pt x="384" y="198" on="0"/>
        <pt x="392" y="198" on="0"/>
        <pt x="396" y="198" on="1"/>
        <pt x="396" y="192" on="0"/>
        <pt x="396" y="180" on="0"/>
        <pt x="396" y="167" on="0"/>
        <pt x="396" y="155" on="0"/>
        <pt x="396" y="149" on="1"/>
        <pt x="401" y="149" on="0"/>
        <pt x="409" y="149" on="0"/>
        <pt x="417" y="149" on="0"/>
        <pt x="425" y="149" on="0"/>
        <pt x="429" y="149" on="1"/>
        <pt x="429" y="142" on="0"/>
        <pt x="429" y="130" on="0"/>
        <pt x="429" y="118" on="0"/>
        <pt x="429" y="105" on="0"/>
        <pt x="429" y="99" on="1"/>
        <pt x="434" y="99" on="0"/>
        <pt x="442" y="99" on="0"/>
        <pt x="450" y="99" on="0"/>
        <pt x="458" y="99" on="0"/>
        <pt x="462" y="99" on="1"/>
        <pt x="462" y="93" on="0"/>
        <pt x="462" y="81" on="0"/>
        <pt x="462" y="68" on="0"/>
        <pt x="462" y="56" on="0"/>
        <pt x="462" y="50" on="1"/>
        <pt x="467" y="50" on="0"/>
        <pt x="475" y="50" on="0"/>
        <pt x="483" y="50" on="0"/>
        <pt x="491" y="50" on="0"/>
        <pt x="495" y="50" on="1"/>
        <pt x="495" y="43" on="0"/>
        <pt x="495" y="31" on="0"/>
        <pt x="495" y="19" on="0"/>
        <pt x="495" y="6" on="0"/>
        <pt x="495" y="0" on="1"/>
        <pt x="500" y="0" on="0"/>
        <pt x="508" y="0" on="0"/>
        <pt x="516" y="0" on="0"/>
        <pt x="524" y="0" on="0"/>
        <pt x="529" y="0" on="1"/>
        <pt x="529" y="-4" on="0"/>
        <pt x="529" y="-12" on="0"/>
        <pt x="529" y="-21" on="0"/>
        <pt x="529" y="-29" on="0"/>
        <pt x="529" y="-33" on="1"/>
        <pt x="557" y="-33" on="0"/>
        <pt x="615" y="-33" on="0"/>
        <pt x="673" y="-33" on="0"/>
        <pt x="731" y="-33" on="0"/>
        <pt x="760" y="-33" on="1"/>
        <pt x="760" y="-27" on="0"/>
        <pt x="760" y="-14" on="0"/>
        <pt x="760" y="-2" on="0"/>
        <pt x="760" y="10" on="0"/>
        <pt x="760" y="17" on="1"/>
        <pt x="756" y="17" on="0"/>
        <pt x="747" y="17" on="0"/>
        <pt x="739" y="17" on="0"/>
        <pt x="731" y="17" on="0"/>
        <pt x="727" y="17" on="1"/>
        <pt x="727" y="33" on="1"/>
        <pt x="723" y="33" on="0"/>
        <pt x="714" y="33" on="0"/>
        <pt x="706" y="33" on="0"/>
        <pt x="698" y="33" on="0"/>
        <pt x="694" y="33" on="1"/>
        <pt x="694" y="37" on="0"/>
        <pt x="694" y="45" on="0"/>
        <pt x="694" y="54" on="0"/>
        <pt x="694" y="62" on="0"/>
        <pt x="694" y="66" on="1"/>
        <pt x="690" y="66" on="0"/>
        <pt x="681" y="66" on="0"/>
        <pt x="673" y="66" on="0"/>
        <pt x="665" y="66" on="0"/>
        <pt x="661" y="66" on="1"/>
        <pt x="661" y="83" on="1"/>
        <pt x="657" y="83" on="0"/>
        <pt x="648" y="83" on="0"/>
        <pt x="640" y="83" on="0"/>
        <pt x="632" y="83" on="0"/>
        <pt x="628" y="83" on="1"/>
        <pt x="628" y="87" on="0"/>
        <pt x="628" y="95" on="0"/>
        <pt x="628" y="103" on="0"/>
        <pt x="628" y="111" on="0"/>
        <pt x="628" y="116" on="1"/>
        <pt x="623" y="116" on="0"/>
        <pt x="615" y="116" on="0"/>
        <pt x="607" y="116" on="0"/>
        <pt x="599" y="116" on="0"/>
        <pt x="595" y="116" on="1"/>
        <pt x="595" y="132" on="1"/>
        <pt x="590" y="132" on="0"/>
        <pt x="582" y="132" on="0"/>
        <pt x="574" y="132" on="0"/>
        <pt x="566" y="132" on="0"/>
        <pt x="562" y="132" on="1"/>
        <pt x="562" y="136" on="0"/>
        <pt x="562" y="145" on="0"/>
        <pt x="562" y="153" on="0"/>
        <pt x="562" y="161" on="0"/>
        <pt x="562" y="165" on="1"/>
        <pt x="557" y="165" on="0"/>
        <pt x="549" y="165" on="0"/>
        <pt x="541" y="165" on="0"/>
        <pt x="533" y="165" on="0"/>
        <pt x="529" y="165" on="1"/>
        <pt x="529" y="182" on="1"/>
        <pt x="524" y="182" on="0"/>
        <pt x="516" y="182" on="0"/>
        <pt x="508" y="182" on="0"/>
        <pt x="500" y="182" on="0"/>
        <pt x="495" y="182" on="1"/>
        <pt x="495" y="186" on="0"/>
        <pt x="495" y="194" on="0"/>
        <pt x="495" y="202" on="0"/>
        <pt x="495" y="211" on="0"/>
        <pt x="495" y="215" on="1"/>
        <pt x="491" y="215" on="0"/>
        <pt x="483" y="215" on="0"/>
        <pt x="475" y="215" on="0"/>
        <pt x="467" y="215" on="0"/>
        <pt x="462" y="215" on="1"/>
        <pt x="462" y="231" on="1"/>
        <pt x="467" y="231" on="0"/>
        <pt x="475" y="231" on="0"/>
        <pt x="483" y="231" on="0"/>
        <pt x="491" y="231" on="0"/>
        <pt x="495" y="231" on="1"/>
        <pt x="495" y="235" on="0"/>
        <pt x="495" y="244" on="0"/>
        <pt x="495" y="252" on="0"/>
        <pt x="495" y="260" on="0"/>
        <pt x="495" y="264" on="1"/>
        <pt x="500" y="264" on="0"/>
        <pt x="508" y="264" on="0"/>
        <pt x="516" y="264" on="0"/>
        <pt x="524" y="264" on="0"/>
        <pt x="529" y="264" on="1"/>
        <pt x="529" y="281" on="1"/>
        <pt x="533" y="281" on="0"/>
        <pt x="541" y="281" on="0"/>
        <pt x="549" y="281" on="0"/>
        <pt x="557" y="281" on="0"/>
        <pt x="562" y="281" on="1"/>
        <pt x="562" y="285" on="0"/>
        <pt x="562" y="293" on="0"/>
        <pt x="562" y="301" on="0"/>
        <pt x="562" y="310" on="0"/>
        <pt x="562" y="314" on="1"/>
        <pt x="566" y="314" on="0"/>
        <pt x="574" y="314" on="0"/>
        <pt x="582" y="314" on="0"/>
        <pt x="590" y="314" on="0"/>
        <pt x="595" y="314" on="1"/>
        <pt x="595" y="330" on="1"/>
        <pt x="599" y="330" on="0"/>
        <pt x="607" y="330" on="0"/>
        <pt x="615" y="330" on="0"/>
        <pt x="623" y="330" on="0"/>
        <pt x="628" y="330" on="1"/>
        <pt x="628" y="334" on="0"/>
        <pt x="628" y="343" on="0"/>
        <pt x="628" y="351" on="0"/>
        <pt x="628" y="359" on="0"/>
        <pt x="628" y="363" on="1"/>
        <pt x="632" y="363" on="0"/>
        <pt x="640" y="363" on="0"/>
        <pt x="648" y="363" on="0"/>
        <pt x="657" y="363" on="0"/>
        <pt x="661" y="363" on="1"/>
        <pt x="661" y="380" on="1"/>
        <pt x="665" y="380" on="0"/>
        <pt x="673" y="380" on="0"/>
        <pt x="681" y="380" on="0"/>
        <pt x="690" y="380" on="0"/>
        <pt x="694" y="380" on="1"/>
        <pt x="694" y="384" on="0"/>
        <pt x="694" y="392" on="0"/>
        <pt x="694" y="401" on="0"/>
        <pt x="694" y="409" on="0"/>
        <pt x="694" y="413" on="1"/>
        <pt x="698" y="413" on="0"/>
        <pt x="706" y="413" on="0"/>
        <pt x="714" y="413" on="0"/>
        <pt x="723" y="413" on="0"/>
        <pt x="727" y="413" on="1"/>
        <pt x="727" y="429" on="1"/>
        <pt x="731" y="429" on="0"/>
        <pt x="739" y="429" on="0"/>
        <pt x="747" y="429" on="0"/>
        <pt x="756" y="429" on="0"/>
        <pt x="760" y="429" on="1"/>
        <pt x="760" y="436" on="0"/>
        <pt x="760" y="448" on="0"/>
        <pt x="760" y="460" on="0"/>
        <pt x="760" y="473" on="0"/>
        <pt x="760" y="479" on="1"/>
        <pt x="743" y="479" on="1"/>
      </contour>
    </TTGlyph>
</ttFont>
